<?xml version="1.0" encoding="utf-8"?>
<!-- Generator: Adobe Illustrator 26.3.1, SVG Export Plug-In . SVG Version: 6.00 Build 0)  -->
<svg version="1.1" id="Layer_1" xmlns="http://www.w3.org/2000/svg" xmlns:xlink="http://www.w3.org/1999/xlink" x="0px" y="0px"
	 viewBox="0 0 763.3 864" style="enable-background:new 0 0 763.3 864;" xml:space="preserve">
<path d="M671.2,289l-3.4,7.2l-100.2-47.1l3.7-7L671.2,289z M86.4,569.1l7.1,2.9l39.3-95.9l-7.5-2.5L86.4,569.1z M132.7,215.8l7.7,2
	l30.4-91.5l-7.5-2.5L132.7,215.8z M398.9,131.6l78.5,58.5l5.2-6.1l-78-58.4L398.9,131.6z M136,264.9l-7,3.5l20.4,40.2l6.9-3.5
	L136,264.9z M158.6,350.3l-4.3,35.2l7.7,0.9l4.1-33.6l0-1.9L158.6,350.3z M299.6,123.3l1.7,7.2l22.8-5.4l-1.8-7.3L299.6,123.3z"/>
<path d="M746.5,313.8c-6.6,2.4-13.4,4.5-19.8,7.2c-8.4,3.5-14,10-17,18.6c-2.1,6.1-3.6,12.5-5.4,18.7c-0.3,1.2-0.5,2.4-1.4,3.5
	c-1-4.2-1.9-8.4-3-12.6c-2.8-10.5-6.4-20.7-16.6-26.2c-5.7-3.1-12.2-5-18.3-7.3c-1.7-0.6-3.5-1-5.9-1.6c1.3-0.5,2-0.8,2.8-1
	c2.7-0.8,5.3-1.6,8-2.3c15.8-4.1,25.7-14,29.5-29.9c1.2-5,2.4-9.9,3.9-15.8c0.9,4,1.5,7.1,2.4,10.2c1.4,4.9,2.8,9.8,4.7,14.6
	c3.8,9.5,11,15.5,20.5,18.9C736,310.6,741.3,312.1,746.5,313.8z"/>
<path d="M305.1,147.4c-6.6,2.4-13.4,4.5-19.8,7.2c-8.4,3.6-14,10.1-17,18.6c-2.1,6.1-3.6,12.5-5.4,18.7c-0.3,1.2-0.5,2.4-1.4,3.5
	c-1-4.2-1.9-8.4-3-12.6c-2.8-10.5-6.4-20.7-16.6-26.2c-5.7-3.1-12.2-5-18.3-7.3c-1.7-0.6-3.5-1-5.9-1.6c1.3-0.5,2-0.8,2.8-1
	c2.6-0.8,5.3-1.6,8-2.3c15.8-4.1,25.7-14,29.5-29.9c1.2-4.9,2.4-9.9,3.9-15.8c0.9,4,1.5,7.1,2.4,10.2c1.4,4.9,2.8,9.8,4.7,14.6
	c3.8,9.5,11,15.5,20.5,18.9C294.7,144.2,300,145.7,305.1,147.4z"/>
<path d="M228.4,326.3c-6.6,2.4-13.4,4.5-19.8,7.2c-8.4,3.5-14,10-17,18.6c-2.1,6.1-3.6,12.5-5.4,18.7c-0.3,1.2-0.6,2.4-1.4,3.5
	c-1-4.2-1.9-8.4-3-12.6c-2.8-10.5-6.4-20.7-16.6-26.2c-5.7-3.1-12.2-5-18.3-7.3c-1.7-0.6-3.5-1-5.9-1.6c1.3-0.5,2-0.8,2.8-1
	c2.6-0.8,5.3-1.6,8-2.3c15.8-4.1,25.7-14,29.5-29.9c1.2-5,2.4-9.9,3.9-15.8c0.9,4,1.5,7.1,2.4,10.2c1.4,4.9,2.8,9.8,4.7,14.6
	c3.8,9.5,11,15.5,20.5,18.9C218,323.1,223.3,324.7,228.4,326.3z"/>
<path d="M98.9,595.9c-6.6,2.4-13.4,4.5-19.8,7.2c-8.4,3.5-14,10-17,18.6c-2.1,6.1-3.6,12.5-5.4,18.7c-0.3,1.2-0.5,2.4-1.4,3.5
	c-1-4.2-1.9-8.4-3-12.6c-2.8-10.5-6.4-20.7-16.6-26.2c-5.7-3.1-12.2-5-18.3-7.3c-1.7-0.6-3.5-1-5.9-1.6c1.3-0.5,2-0.8,2.8-1
	c2.6-0.8,5.3-1.6,8-2.3c15.8-4.1,25.7-14,29.5-29.9c1.2-5,2.4-9.9,3.9-15.8c0.9,4,1.5,7.1,2.4,10.2c1.4,4.9,2.8,9.8,4.7,14.6
	c3.8,9.5,11,15.5,20.5,18.9C88.4,592.7,93.7,594.2,98.9,595.9z"/>
<path d="M194.1,443.7c-14.9-5.1-29.8-10.1-45-15.3c10.7-11.9,21.2-23.5,31.6-35c-0.1-0.1-0.2-0.2-0.3-0.3
	c-13.1,8.4-26.3,16.9-39.7,25.4c-2.6-15.9-5.1-31.4-7.7-47c-0.1,0-0.2,0-0.4,0c-1.6,15.6-3.2,31.3-4.9,47.3
	c-14.1-7.9-27.7-15.5-41.4-23.2c-0.1,0.1-0.2,0.2-0.2,0.3c11.2,11,22.4,22,33.9,33.3c-15,6.1-29.5,12-44.1,18c0,0.1,0.1,0.2,0.1,0.3
	c15.6-1.9,31.3-3.8,47.2-5.8c-4.6,15.6-9.1,30.8-13.5,46c0.1,0,0.2,0.1,0.2,0.1c8.3-13.5,16.6-27,25.1-40.8
	c9.3,13.2,18.3,26.1,27.3,39c0.1-0.1,0.2-0.1,0.3-0.2c-5.3-14.8-10.6-29.6-16.1-44.7c16.1,1,31.8,2,47.5,2.9
	C194,443.9,194.1,443.8,194.1,443.7z"/>
<path d="M414.5,112.8c-12.9-2.5-25.8-4.9-39.1-7.5c2.9,13.1,5.8,26,8.6,38.9c-0.1,0-0.2,0.1-0.3,0.1c-6.1-11.6-12.3-23.3-18.5-35.2
	c-8.5,10.6-16.9,20.9-25.2,31.2c-0.1,0-0.1-0.1-0.2-0.1c5.3-12.1,10.6-24.3,16.1-36.7c-13.5-0.1-26.7-0.2-39.9-0.2
	c0-0.1,0-0.2,0-0.3c12.7-3.4,25.5-6.8,38.5-10.2c-8.3-10.6-16.5-20.9-24.6-31.2c0.1-0.1,0.1-0.1,0.2-0.2
	c10.5,7.8,21.1,15.6,31.9,23.6c3.1-13.2,6.1-26,9.1-38.8c0.1,0,0.2,0,0.3,0c0.5,13.2,0.9,26.3,1.4,39.8c12-5.7,23.9-11.3,35.7-16.9
	c0.1,0.1,0.1,0.2,0.2,0.3c-9.9,8.5-19.8,17-30,25.7c12.1,5.9,24,11.7,35.8,17.5C414.6,112.6,414.5,112.7,414.5,112.8z"/>
<path d="M607.7,232.2c-21.2-4.1-42.5-8.1-64.4-12.3c4.8,21.6,9.5,42.8,14.2,63.9c-0.2,0.1-0.3,0.1-0.5,0.2
	c-10.1-19.2-20.2-38.3-30.5-58c-14,17.4-27.8,34.4-41.5,51.4c-0.1-0.1-0.2-0.1-0.3-0.2c8.8-20,17.5-39.9,26.5-60.4
	c-22.2-0.1-43.9-0.2-65.6-0.4c0-0.2-0.1-0.3-0.1-0.5c21-5.6,41.9-11.1,63.4-16.9c-13.7-17.4-27.1-34.4-40.5-51.4
	c0.1-0.1,0.2-0.2,0.4-0.3c17.4,12.9,34.7,25.7,52.5,38.9c5.1-21.7,10-42.8,15-63.8c0.2,0,0.3,0,0.5,0c0.8,21.7,1.5,43.3,2.3,65.5
	c19.8-9.4,39.3-18.6,58.7-27.8c0.1,0.2,0.2,0.3,0.3,0.5c-16.3,14-32.6,28-49.4,42.3c19.9,9.7,39.4,19.3,58.9,28.8
	C607.8,231.9,607.8,232.1,607.7,232.2z"/>
<path d="M119.3,243.9c8.7,6.9,17.2,13.7,25.8,20.4c0,0.1-0.1,0.1-0.1,0.2c-10-4.3-20-8.5-30.2-12.9c0,11.1,0.1,22,0.1,32.8
	c-0.1,0-0.2,0-0.2,0c-2.9-10.5-5.8-20.9-8.8-31.7c-8.7,7-17.3,13.9-25.8,20.7c0,0-0.1-0.1-0.1-0.1c6.4-8.9,12.8-17.7,19.4-26.8
	c-10.8-2.4-21.5-4.8-32.1-7.2c0-0.1,0-0.2,0-0.2c10.9-0.5,21.7-1,32.9-1.5c-4.8-10-9.6-19.7-14.3-29.5c0.1,0,0.1-0.1,0.2-0.1
	c7.1,8.1,14.3,16.3,21.6,24.7c4.8-10.1,9.5-19.9,14.2-29.7c0.1,0,0.2,0,0.2,0.1c-1.9,10.7-3.9,21.4-5.9,32.4
	c10.7-2.5,21.2-4.9,31.7-7.4c0,0.1,0.1,0.2,0.1,0.3C138.5,233.5,129.1,238.6,119.3,243.9z"/>
<path d="M173,57.2c6.6,8.9,13.1,17.7,19.6,26.4c-0.1,0.1-0.1,0.1-0.2,0.2c-8.5-6.7-17.1-13.4-25.9-20.3c-2.8,10.7-5.6,21.2-8.4,31.7
	c-0.1,0-0.2,0-0.2,0c-0.1-10.9-0.2-21.7-0.3-32.9c-10.2,4.5-20.3,8.9-30.3,13.3c0-0.1-0.1-0.1-0.1-0.1c8.5-6.9,17-13.8,25.7-20.8
	c-9.9-5.2-19.5-10.2-29.1-15.2c0-0.1,0.1-0.2,0.1-0.2c10.6,2.3,21.2,4.7,32.1,7.1c-2.1-10.9-4.2-21.5-6.2-32.2
	c0.1,0,0.2-0.1,0.2-0.1c4.8,9.7,9.6,19.4,14.5,29.4c7.2-8.5,14.3-16.7,21.4-25c0.1,0,0.1,0.1,0.2,0.1c-4.6,9.8-9.3,19.7-14,29.7
	c11,0.4,21.8,0.7,32.6,1.1c0,0.1,0,0.2,0,0.3C194.2,52.2,183.7,54.7,173,57.2z"/>
<path d="M243.4,98.9c-3.9,1.4-7.8,2.6-11.6,4.2c-4.9,2.1-8.2,5.9-10,10.9c-1.3,3.6-2.1,7.3-3.1,11c-0.2,0.7-0.3,1.4-0.8,2.1
	c-0.6-2.5-1.1-4.9-1.8-7.4c-1.7-6.1-3.8-12.1-9.8-15.4c-3.4-1.8-7.1-2.9-10.7-4.3c-1-0.4-2-0.6-3.5-0.9c0.8-0.3,1.2-0.4,1.6-0.6
	c1.6-0.5,3.1-0.9,4.7-1.4c9.3-2.4,15.1-8.2,17.3-17.5c0.7-2.9,1.4-5.8,2.3-9.2c0.5,2.3,0.9,4.2,1.4,6c0.9,2.9,1.7,5.8,2.8,8.6
	c2.2,5.6,6.5,9.1,12,11.1C237.2,97,240.4,97.9,243.4,98.9z"/>
<path d="M504.8,688.7c-0.8-2-1.2-4.7-1.2-8.1c0-2.5,0.4-4.7,1.2-6.8c0.8-2.1,2-3.4,3.5-4.1s3.5-1,6.1-1c10.9,0,16.4,3.9,16.4,11.6
	c0,2.3-0.3,4.6-0.9,7c-0.6,2.4-1.5,4.2-2.6,5.5c-1.1,1.3-2.6,1.9-4.3,1.9c-3.6-0.1-7.4-0.6-11.3-1.6
	C507.9,692.1,505.5,690.7,504.8,688.7z M746.5,727.9c0,1.2-3,2.5-9,4c-6,1.5-12,3.4-18,5.7c-6,2.4-12.4,5.8-19,10.4
	c5.3,6.8,9.3,12.2,12,16.2c2.7,4,4.5,7.6,5.4,10.8c0.9,3.2,1.3,6.1,1.3,8.5c0,5.9-2.4,10.3-7.2,13c-4.8,2.7-11.2,4.1-19,4.1
	c-6.1,0-11.3-0.5-15.7-1.4c-3.9-0.8-8.5-2.9-13.9-6.2c-5.3-3.3-8-7.4-8-12.3c0.2-11.6,6.7-21.6,19.7-29.9c-4.5-5.1-8.1-9.6-11-13.6
	c-0.3,0.8-0.6,1.7-0.9,2.6c-3.5,9.9-6.5,16.6-8.9,20.2c-2.4,3.6-5.4,6.8-8.8,9.5c-3.5,2.7-7.7,4.1-12.7,4.1c-4.6,0-9-1.2-13.2-3.6
	c-4.1-2.4-7.9-8.1-11.1-17.2c-3.1,8.1-6.6,14.2-10.5,18.3c-3.9,4.1-9.3,6.1-16.2,6.2c-5,0-10.3-0.8-15.9-2.4
	c-5.6-1.6-9.2-6-10.7-13.2c-0.5-2.3-0.9-5.5-1.1-9.6c-0.9,1.9-1.8,3.7-2.7,5.5c-3,5.9-6.7,10.6-11.2,14.3c-4.5,3.6-9,5.5-13.3,5.5
	c-3.8,0-7.3-0.5-10.4-1.4c-6.7-2-12.2-4.8-16.3-8.3c-0.8-0.8-1.6-2-2.2-3.7c-1.8,2.8-3.8,5.4-5.8,7.7c-3.6,4.1-7.5,6.2-11.8,6.2
	c-4.8,0-9.9-0.9-15.2-2.6c-5.3-1.7-9.8-5.3-13.5-10.8c-3.7-5.5-5.5-14.8-5.5-28c0-6.9,1.1-19.6,3.3-38.1l-4.2-0.7
	c-2.3,12.8-5.9,24.4-11,35c-5.1,10.6-10.4,18.7-15.9,24.3c-5.6,5.6-10.5,8.5-14.9,8.5c-7.8,0-13.8-2.9-17.8-8.6
	c-2.6-3.6-4-12.2-4.2-26c-7.4,13.1-14.6,19.7-21.6,19.7c-6.5,0-11.6-0.9-15.5-2.8c-2.2,5.7-4.2,9.8-5.9,12.3
	c-2.4,3.6-5.4,6.8-8.8,9.5c-3.5,2.7-7.7,4.1-12.7,4.1c-4.6,0-9-1.2-13.2-3.6c-4.1-2.4-7.9-8.1-11.1-17.2
	c-3.1,8.1-6.6,14.2-10.5,18.3c-3.9,4.1-9.3,6.1-16.2,6.2c-5,0-10.3-0.8-15.9-2.4c-5.6-1.6-9.2-6-10.7-13.2
	c-0.9-4.2-1.4-11.4-1.4-21.6c0-2,0.1-4.1,0.2-6.1c-4.6,1.3-10.2,2.5-16.9,3.7c4.4,12.7,6.6,25.8,6.6,39.5c0,21.9-5.8,33-17.4,33.2
	c-5.9,0-10.7-1-14.2-3c-9.7-5.4-14.5-18.8-14.5-40.2c0-8.7,1-18.4,3-29.1l-8.8,7.1c-4.6,3.7-9.8,5.6-15.3,5.6c-5,0-9.9-1.1-14.8-3.3
	c-0.4-0.2-0.7-0.3-1-0.5c-0.2,0.9-0.5,1.8-0.7,2.7c-3.5,12.6-6.6,20.7-9.3,24.3c-2.7,3.6-5.9,5.5-9.4,5.5c-4.7,0-9.1-1-13-3.1
	c-3.9-2.1-6.8-4.8-8.8-8.3c-1.7-3-3.5-9.3-5.2-18.7c-2.6,9.3-4.7,15.4-6.3,18.3c-3.3,6.2-7.6,9.3-12.9,9.3c-4.4,0-9.2-0.8-14.5-2.5
	C52.2,771,46.1,762,46.1,747.6c0.2-10.2,1.2-19.9,3.1-29.2c1.9-9.3,5.4-18.2,10.5-26.7c5.1-8.6,10.5-14.6,16.4-18
	c5.9-3.4,11.3-5.2,16.3-5.3c3.8,0,7.5,0.4,10.9,1.3c3.5,0.9,6.6,2,9.4,3.3c2.8,1.4,4.2,3.1,4.2,5.1c0,2.2-0.9,3.3-2.7,3.3
	c-2.2,0-3.9-0.2-5.1-0.7c-1.2-0.5-2.6-0.7-4.2-0.7c-1.9,0-4.9,1.9-9,5.8c-4.1,3.9-8.2,9.6-12.2,17c-5.9,11-8.9,24.8-8.9,41.4
	c0,4.8,0.3,9.5,1,14.1c5.7-7,10.2-15.1,13.5-24.3c3.2-9.2,5.8-17.3,7.8-24.5c2-7.2,3.5-14.6,4.7-22.2c0.3-1.9,1.2-2.9,2.7-2.9
	c1.8,0,3.9,0.4,6.4,1.3c2.4,0.9,4,1.7,4.6,2.6c0.7,0.9,1.1,2.2,1.2,3.9c0.5,15.8,0.8,27.2,1,34.4c0.2,7.2,0.8,14.4,1.8,21.7
	c1,7.3,2.7,13.7,5.1,19.2c4.2-6.5,7.2-13.1,8.9-20c0.9-3.3,1.7-6.1,2.4-8.6c-1.5-3.2-2.2-7.6-2.2-13.1c0-10.4,2.5-19.4,7.5-27.1
	c5-7.7,10-12.9,15.1-15.7c5.1-2.8,11.5-4.4,19.3-4.9c5.6,0,11,1,16.4,2.9c5.4,1.9,8.2,4.2,8.3,6.8c1.8-0.2,3.4-0.3,4.6-0.3
	c2.5,0,5.4,0.5,8.8,1.4c3.4,0.9,5.1,2.3,5.1,4.2c0,8.1-1.4,20.6-4.1,37.3c9.9-2.6,17.1-5.2,21.5-8.1c1.2-0.8,2.3-1.5,3.3-2
	c0.5-3.1,1.2-6.3,1.9-9.5c2.4-10.2,4.1-16,4.9-17.6c0.9-1.6,1.8-2.6,2.7-3.1c0.9-0.5,2-0.7,3.3-0.7c3.3,0,8.9,1.2,17,3.6
	c1.4,0.4,2.1,1.6,2.1,3.7c0,1.6-0.7,6.7-2.2,15.1c-1.5,8.4-2.2,17-2.2,25.6c0,7.3,0.7,13.6,2.2,19c7-6.7,12.7-15.1,17.2-25.2
	c4.4-10.2,7.2-17.2,8.4-21.1c0.8-2.6,2.2-4,4.1-4c2,0,4.4,0.4,7.2,1.2c2.8,0.8,4.3,2.2,4.4,4.4c0.1,2.1,0.2,5.8,0.4,11
	c0.2,5.2,0.9,12.8,2.3,22.7c1.3,9.9,3.2,14.9,5.7,14.9c3.6,0,7.2-3.6,11.1-10.7c2.1-3.9,4.2-8.4,6.2-13.3c-0.1-0.9-0.2-1.8-0.2-2.8
	c0-7.7,1.9-15.5,5.6-23.4c3.7-7.9,8.7-13.9,14.8-18c6.1-4.1,11.5-6.1,16.1-6.1c5.7,0,12,1,19,3.1c2.8,0.9,4.2,2.8,4.2,5.6
	c2.2,0.5,3.9,1.1,5.1,1.7c1.2,0.6,2.2,2.1,2.8,4.6c0.6,2.5,1,6.9,1,13.1c-0.1,6.3-0.4,13.7-0.9,22.4c-0.5,8.6-0.8,14.4-0.8,17.4
	c1.9-0.8,4-2.5,6.2-5c2.2-2.5,5.1-6.9,8.8-13.2c3.6-6.3,6.9-12.6,9.7-18.9c2.8-6.3,4.8-12.8,5.9-19.3c-9.8-1-17-3.4-21.6-7.1
	c-4.6-3.7-7-7.7-7-11.9c0-5.7,1.8-10.5,5.5-14.2c3.6-3.7,7.5-5.5,11.6-5.5c3.9,0,7.9,0.7,11.8,2c4,1.3,7,4.4,9,9.2
	c2.1,4.8,3.1,11.2,3.2,19.3l15.6,1.8c5.7,0.6,9.3,4.8,10.7,12.6c1.5,7.6,2.3,15.5,2.3,23.9l-0.1,16.8c0.1,6.6,1.1,12.4,3.1,17.4
	c4.6-1.1,8.5-4.2,11.8-9.2c2.1-3.2,4.2-6.9,6.2-11c0.1-10.2,1.8-21.8,5-34.8c0.8-3.3,2.8-4.9,5.9-4.9c2.9,0,7.4,0.9,13.5,2.6
	c3.7,1,5.6,3.4,5.6,7.1c0,4.3-0.4,11.9-1.2,22.8c-0.3,3.5-0.4,6.9-0.4,10.4c0,12.5,0.6,20.5,1.9,24.1c9.4-4.5,18.8-19,28.3-43.6
	c0.3-0.9,0.6-1.6,1-2.1c0.6-4,1.4-8.1,2.4-12.3c2.4-10.2,4.1-16,4.9-17.6c0.9-1.6,1.8-2.6,2.7-3.1c0.9-0.5,2-0.7,3.3-0.7
	c3.3,0,8.9,1.2,17,3.6c1.4,0.4,2.1,1.6,2.1,3.7c0,1.6-0.7,6.7-2.2,15.1c-1.5,8.4-2.2,17-2.2,25.6c0,7.3,0.7,13.6,2.2,19
	c7-6.7,12.7-15.1,17.2-25.2c4.4-10.2,7.2-17.2,8.4-21.1c0.8-2.6,2.2-4,4.1-4c2,0,4.4,0.4,7.2,1.2c2.8,0.8,4.3,2.2,4.4,4.4
	c0.1,2.1,0.2,5.8,0.4,11c0.2,5.2,0.9,12.8,2.3,22.7c1.3,9.9,3.2,14.9,5.7,14.9c3.6,0,7.2-3.6,11.1-10.7c3.7-6.8,7.3-15.3,10.8-25.4
	c-1.4-3.5-2.2-6.8-2.2-9.9c0-7.3,1.3-13.2,4-17.7c2.7-4.5,5.7-7.7,9.2-9.6c3.4-1.9,6.8-2.8,10-2.9c7.4,0,16.2,1.8,26.5,5.3
	c1.8,0.6,3.6,1.9,5.4,3.8c1.8,1.9,2.7,4,2.7,6.5c0,3.1-1.5,4.6-4.5,4.6c-3.6,0-6.3-1.5-8.1-4.6c-1.7-3.1-4-4.6-6.8-4.6
	c-2.2,0-4.4,1.9-6.8,5.8c-2.3,3.9-3.5,9.2-3.6,15.9c0,3,1.2,6.5,3.6,10.5c2.4,4,5.1,8.1,8.1,12.2c10.6-5.9,19.3-10.1,26.3-12.4
	c7.3-2.5,12.4-3.7,15.5-3.7c1.8,0,4.1,0.5,6.8,1.4C745.1,725.9,746.5,726.9,746.5,727.9z M199.1,692.3c-5.3-0.4-9.2-1.2-11.6-2.6
	c-10.6,1.6-18,9-22.3,22.4c-1.7,5.6-2.6,10.1-2.6,13.5c0,0.9,0.2,3,0.7,6.3c11.4-7.1,19.7-13.6,25-19.3
	C193.6,706.9,197.2,700.1,199.1,692.3z M216.2,770.4c0-6.1-1.2-15.3-3.6-27.6c-2.9,10.4-4.4,19.2-4.4,26.4c0.1,9.7,1.1,16,3.1,19.1
	C214.6,783.6,216.2,777.6,216.2,770.4z M387.8,697.5c-6.6,0.8-12.1,4.1-16.6,10c-4.5,5.8-6.8,13.3-6.8,22.4
	C377,719.6,384.8,708.8,387.8,697.5z M435.7,682.1c0-2.5-0.6-5.5-1.7-9.1c-1.1-3.6-3.3-6.4-6.6-8.3c-4.5,2.6-6.7,7.3-6.7,14.2
	c0,2.8,0.8,5.2,2.3,7.2c1.5,2,5.6,3,12,3C435.4,686.9,435.7,684.5,435.7,682.1z M688.3,776.4c0-3.6-1.7-8.3-5.1-14.2
	c-5.9,5.6-8.9,12.3-8.9,20.2c0,1.6,0.4,3.2,1.2,4.6c0.8,1.4,2.2,2.2,4.1,2.3c2.7,0,4.8-1,6.3-2.9
	C687.5,784.5,688.2,781.2,688.3,776.4z"/>
</svg>
