<?xml version="1.0" encoding="utf-8"?>
<!-- Generator: Adobe Illustrator 26.3.1, SVG Export Plug-In . SVG Version: 6.00 Build 0)  -->
<svg version="1.1" id="Layer_1" xmlns="http://www.w3.org/2000/svg" xmlns:xlink="http://www.w3.org/1999/xlink" x="0px" y="0px"
	 viewBox="0 0 864 681.31" style="enable-background:new 0 0 864 681.31;" xml:space="preserve">
<path d="M132.67,94.77L478.47,194l-3.06,10.69L129.32,105.3L132.67,94.77z M637.55,283.75l86.9,90.16l7.8-7.5l-86.39-90.53
	L637.55,283.75z M785.7,456.33l-10.42,2.77l26.76,102.04l10.81-2.98L785.7,456.33z"/>
<path d="M682.91,251.35c-30.3-2.77-60.6-5.55-91.73-8.4c9.76,29.85,19.3,59.04,28.84,88.23c-0.2,0.1-0.4,0.21-0.61,0.31
	c-16.84-25.6-33.68-51.19-51-77.52c-17.22,26.16-34.1,51.82-50.98,77.47c-0.21-0.09-0.42-0.18-0.63-0.27
	c9.53-29.15,19.06-58.3,28.83-88.22c-31.5,2.88-62.29,5.7-93.09,8.52c-0.04-0.16-0.08-0.31-0.12-0.47
	c28.93-10.8,57.86-21.59,87.56-32.68c-21.73-22.65-43.01-44.82-64.28-66.99c0.13-0.19,0.27-0.38,0.4-0.56
	c26.32,15.78,52.64,31.57,79.67,47.78c4.15-31.03,8.22-61.42,12.29-91.81c0.23,0.01,0.47,0.02,0.7,0.03
	c4.05,30.34,8.1,60.66,12.26,91.8c27.03-16.2,53.32-31.97,79.62-47.73c0.16,0.17,0.31,0.33,0.47,0.5
	c-21.25,22.15-42.5,44.29-64.27,66.98c29.11,10.88,57.66,21.54,86.21,32.21C683,250.8,682.96,251.08,682.91,251.35z"/>
<path d="M139.98,79.98c-15.19-1.39-30.38-2.78-45.99-4.21c4.89,14.97,9.68,29.6,14.46,44.24c-0.1,0.05-0.2,0.1-0.3,0.15
	c-8.44-12.83-16.89-25.67-25.57-38.87c-8.63,13.12-17.1,25.98-25.56,38.85c-0.1-0.05-0.21-0.09-0.31-0.14
	c4.78-14.62,9.55-29.23,14.46-44.23c-15.79,1.45-31.23,2.86-46.68,4.27c-0.02-0.08-0.04-0.16-0.06-0.23
	c14.5-5.41,29.01-10.83,43.9-16.38C57.43,52.08,46.77,40.96,36.1,29.84c0.07-0.09,0.13-0.19,0.2-0.28
	c13.2,7.91,26.39,15.83,39.94,23.96c2.08-15.56,4.12-30.8,6.16-46.03c0.12,0.01,0.23,0.01,0.35,0.02c2.03,15.19,4.06,30.39,6.14,46
	c13.55-8.12,26.74-16.03,39.92-23.93c0.08,0.08,0.16,0.17,0.24,0.25c-10.65,11.1-21.31,22.21-32.23,33.59
	c14.6,5.45,28.91,10.8,43.23,16.15C140.03,79.71,140,79.84,139.98,79.98z"/>
<path d="M823.13,413.44c-9.41,3.37-18.93,6.32-28.06,10.18c-11.86,5.03-19.84,14.24-24.05,26.29c-3.03,8.65-5.12,17.64-7.6,26.48
	c-0.47,1.67-0.78,3.39-1.94,5.01c-1.41-5.93-2.67-11.9-4.26-17.79c-4-14.8-9.12-29.26-23.55-37.1c-8.13-4.41-17.22-7.06-25.92-10.38
	c-2.38-0.91-4.92-1.37-8.39-2.3c1.88-0.66,2.88-1.06,3.91-1.37c3.76-1.11,7.5-2.3,11.29-3.27c22.41-5.75,36.38-19.79,41.81-42.31
	c1.69-7.01,3.46-14,5.51-22.32c1.32,5.6,2.15,10.08,3.44,14.43c2.04,6.93,4.02,13.92,6.67,20.63c5.32,13.5,15.64,21.93,29.04,26.71
	C808.37,408.95,815.86,411.12,823.13,413.44z"/>
<path d="M244.62,440.09c1.03,7.89,3.88,15.13,8.54,21.73c-0.52,2.46-2.33,3.69-5.43,3.69c-2.59,0-6.41-1.23-11.45-3.69
	c-3.49-1.68-6.21-4.72-8.15-9.12c-9.19,15.26-15.39,32.69-18.63,52.29c-3.24,19.59-5.47,31.69-6.7,36.28s-2.88,7.37-4.95,8.34
	c-2.07,0.97-4.46,1.45-7.18,1.45c-10.86,0-19.47-2.72-25.8-8.15c-2.39-1.92-4.3-7.21-5.73-15.85c-2.89,8.43-5.57,14.3-8.04,17.59
	c-3.88,5.17-8.35,7.76-13.39,7.76c-6.73,0-12.87-1.45-18.43-4.37c-5.57-2.91-9.7-6.82-12.42-11.74c-2.46-4.27-4.92-13.13-7.38-26.58
	c-3.75,13.19-6.72,21.86-8.92,26c-4.66,8.8-10.73,13.19-18.23,13.19c-6.21,0-13.06-1.17-20.56-3.49
	c-17.46-5.17-26.19-17.98-26.19-38.41c0.26-14.48,1.75-28.29,4.46-41.42c2.72-13.13,7.66-25.77,14.84-37.93S59.82,407,68.17,402.15
	c8.34-4.85,16.07-7.34,23.18-7.47c5.43,0,10.61,0.62,15.52,1.84c4.91,1.23,9.37,2.81,13.39,4.75c4.01,1.94,6.02,4.34,6.02,7.18
	c0,3.1-1.3,4.66-3.88,4.66c-3.1,0-5.53-0.32-7.27-0.97c-1.75-0.65-3.72-0.97-5.92-0.97c-2.72,0-6.99,2.75-12.8,8.25
	c-5.82,5.5-11.58,13.55-17.27,24.15c-8.4,15.65-12.61,35.25-12.61,58.79c0,6.86,0.46,13.52,1.36,19.98
	C76.04,512.38,82.4,500.9,87,487.9c4.59-13,8.28-24.57,11.06-34.73c2.78-10.15,5.01-20.66,6.69-31.53c0.39-2.72,1.68-4.07,3.88-4.07
	c2.58,0,5.59,0.62,9.02,1.84c3.43,1.23,5.63,2.46,6.6,3.69s1.52,3.07,1.65,5.53c0.65,22.38,1.1,38.64,1.36,48.79
	c0.26,10.16,1.1,20.44,2.52,30.85c1.42,10.41,3.81,19.5,7.18,27.26c5.95-9.18,10.15-18.63,12.61-28.33
	c2.91-10.65,5.1-18.4,6.57-23.27c-0.11-5.57-0.17-11.52-0.17-17.86c0-25.22,2.07-40.35,6.21-45.4c1.68-2.2,3.94-3.3,6.79-3.3
	c5.69,0,12.22,1.52,19.59,4.56s11.06,6.44,11.06,10.19c0,2.98-0.58,11.64-1.75,26c6.99-12.03,12.39-19.95,16.2-23.77
	c3.81-3.81,7.28-5.72,10.38-5.72c3.11,0,8.15,1.36,15.13,4.07C242.42,433.88,244.1,436.34,244.62,440.09z M281.77,429.7
	c5.5,1.36,10.83,2.1,16.01,2.23c2.45,0,4.49-0.9,6.11-2.72c1.62-1.81,2.84-4.4,3.69-7.76s1.26-6.66,1.26-9.9
	c0-10.99-7.76-16.49-23.28-16.49c-3.62,0-6.5,0.48-8.63,1.45c-2.14,0.97-3.78,2.91-4.95,5.82s-1.75,6.11-1.75,9.6
	c0,4.92,0.55,8.76,1.65,11.54C272.97,426.28,276.27,428.35,281.77,429.7z M569.98,479.08c0,1.68-4.23,3.56-12.7,5.62
	c-8.47,2.07-16.98,4.79-25.52,8.15c-8.53,3.36-17.53,8.28-26.97,14.74c7.5,9.7,13.19,17.36,17.07,22.99
	c3.88,5.62,6.43,10.74,7.66,15.33s1.85,8.63,1.85,12.13c0,8.4-3.43,14.55-10.28,18.43c-6.86,3.88-15.84,5.82-26.97,5.82
	c-8.67,0-16.1-0.65-22.31-1.94c-5.57-1.16-12.13-4.07-19.69-8.73c-7.57-4.66-11.35-10.48-11.35-17.46
	c0.26-16.42,9.57-30.59,27.94-42.49c-7.81-8.94-13.95-16.69-18.44-23.27c-8.86,11.17-17.75,20.05-26.67,26.67
	c-9.5,7.05-19.3,10.57-29.39,10.57c-25.06,0-41.41-6.59-49.07-19.75c-2.41,5.51-4.84,10.71-7.29,15.58
	c-4.2,8.34-9.51,15.1-15.91,20.27c-6.41,5.17-12.71,7.76-18.92,7.76c-5.43,0-10.35-0.65-14.75-1.94
	c-9.57-2.84-17.26-6.79-23.09-11.84c-3.1-2.84-5.17-10.41-6.21-22.7c-0.39-4.27-0.58-8.54-0.58-12.81c0-14.87,2.39-31.82,7.18-50.83
	c1.16-4.66,3.94-6.99,8.34-6.99c4.14,0,10.54,1.23,19.21,3.69c5.3,1.42,7.95,4.79,7.95,10.09c0,6.08-0.58,16.88-1.75,32.4
	c-0.39,4.92-0.58,9.83-0.58,14.74c0,17.72,0.91,29.1,2.72,34.15c12.87-6.12,25.79-25.58,38.78-58.36
	c0.39-6.99,1.49-14.27,3.32-21.86c2.33-9.63,6.89-17.39,13.68-23.28c6.79-5.88,15.23-8.83,25.32-8.83c5.43,0,12.09,1.04,19.98,3.1
	c14.75,4.14,22.12,10.93,22.12,20.37c0,4.66-1.42,9.12-4.27,13.39c-7.24,11.25-20.37,17.59-39.38,19.01
	c0,12.42,1.16,20.95,3.49,25.61s4.66,6.98,6.99,6.98c2.97,0,7.98-1.84,15.03-5.53s14.23-9.18,21.53-16.49
	c5.87-5.87,10.83-11.15,14.91-15.86c-2.5-5.6-3.75-10.83-3.75-15.67c0-10.35,1.9-18.72,5.72-25.13c3.81-6.4,8.15-10.93,13-13.58
	s9.6-4.04,14.26-4.17c10.48,0,23.02,2.52,37.64,7.57c2.58,0.91,5.14,2.69,7.66,5.34c2.52,2.65,3.78,5.72,3.78,9.22
	c0,4.4-2.13,6.6-6.4,6.6c-5.17,0-8.99-2.2-11.45-6.6c-2.46-4.4-5.69-6.6-9.7-6.6c-3.1,0-6.3,2.75-9.6,8.25
	c-3.3,5.5-5.02,13.03-5.14,22.6c0,4.27,1.68,9.25,5.04,14.94c3.36,5.69,7.18,11.45,11.45,17.27c15-8.4,27.42-14.29,37.25-17.66
	c10.35-3.49,17.66-5.24,21.92-5.24c2.59,0,5.79,0.68,9.6,2.04S569.98,477.66,569.98,479.08z M381.59,469.57
	c9.44-1.94,15.65-4.95,18.63-9.02c2.97-4.07,4.46-7.73,4.46-10.96c-0.13-3.36-1.75-6.53-4.85-9.51
	C390.13,446.68,384.05,456.51,381.59,469.57z M487.52,547.96c0-5.05-2.39-11.77-7.18-20.18c-8.41,7.89-12.61,17.46-12.61,28.71
	c0,2.33,0.58,4.49,1.75,6.5c1.16,2,3.11,3.07,5.82,3.2c3.88,0,6.85-1.36,8.92-4.07C486.29,559.4,487.39,554.68,487.52,547.96z"/>
<path d="M850.2,622.25c-5.51,1.99-11.1,3.71-16.45,5.98c-6.96,2.95-11.64,8.35-14.11,15.42c-1.78,5.08-3.01,10.35-4.46,15.54
	c-0.28,0.98-0.46,1.99-1.14,2.94c-0.83-3.48-1.57-6.98-2.5-10.44c-2.35-8.69-5.35-17.17-13.82-21.77
	c-4.77-2.59-10.1-4.14-15.21-6.09c-1.39-0.53-2.89-0.8-4.92-1.35c1.1-0.39,1.69-0.62,2.29-0.8c2.2-0.65,4.4-1.35,6.62-1.92
	c13.15-3.37,21.35-11.61,24.53-24.83c0.99-4.11,2.03-8.22,3.23-13.09c0.77,3.29,1.26,5.92,2.02,8.47c1.2,4.07,2.36,8.17,3.91,12.1
	c3.12,7.92,9.18,12.87,17.04,15.67C841.53,619.62,845.93,620.89,850.2,622.25z"/>
</svg>
