<?xml version="1.0" encoding="utf-8"?>
<!-- Generator: Adobe Illustrator 26.3.1, SVG Export Plug-In . SVG Version: 6.00 Build 0)  -->
<svg version="1.1" id="Layer_1" xmlns="http://www.w3.org/2000/svg" xmlns:xlink="http://www.w3.org/1999/xlink" x="0px" y="0px"
	 viewBox="0 0 705.69 864" style="enable-background:new 0 0 705.69 864;" xml:space="preserve">
<path d="M563.08,601.96l-8,6.12L462.2,471.42l1.83-1.24c0.67-0.46,1.35-0.94,2.02-1.42c0.7-0.5,1.41-1,2.11-1.48l1.83-1.24
	L563.08,601.96z M298.43,561.95l8.58,4.63l58.35-107.74l-8.94-4.18L298.43,561.95z M352.27,120.31l50.83,111.36l8.77-4.09
	L361.05,116.3L352.27,120.31z M417.7,344.12l9.39,1.63l8.66-49.92l-9.68-1.06L417.7,344.12z"/>
<path d="M503.65,772.34c-0.36,0-0.81,0.11-1.35,0.34c-0.54,0.22-1.39,1.37-2.56,3.44c-3.42,6.3-6.9,12.89-10.45,19.77
	c-3.56,6.88-7.13,12.8-10.73,17.74c-3.6,4.95-7.51,8.73-11.74,11.33c-1.98-6.03-2.97-11.02-2.97-14.98
	c0-10.52,1.17-20.48,3.51-29.89c2.34-9.4,3.51-16.71,3.51-21.92c0-4.95-0.56-8.52-1.69-10.73c-1.12-2.2-3.44-3.8-6.95-4.79
	c-11.42-3.33-20.96-5.04-28.6-5.13c-0.54-7.47-2.43-13.13-5.67-17c-3.24-3.87-7.11-6.41-11.6-7.62c-4.5-1.21-8.68-1.87-12.55-1.96
	c-3.6,0-6.57,1.6-8.91,4.79s-3.51,6.5-3.51,9.92c0,3.33,1.03,6.47,3.11,9.44c2.07,2.97,4.97,5.62,8.7,7.96s9.33,4.45,16.8,6.34
	c-1.53,7.28-3.98,14.84-7.35,22.66c-3.37,7.83-7.26,14.35-11.67,19.56c-4.41,5.22-9.33,9.38-14.77,12.48
	c-5.45,3.1-9.24,4.65-11.4,4.65c-2.25,0-4.1-1.8-5.53-5.4c-1.44-3.6-2.16-7.82-2.16-12.68c0-1.62,0.31-3.15,0.94-4.59l3.1-0.27
	c10.8-0.72,18.71-5.04,23.75-12.95c1.98-2.97,2.97-6.03,2.97-9.18c0-3.33-1.53-6.38-4.59-9.17s-6.99-4.7-11.8-5.73
	c-4.81-1.03-9.02-1.55-12.62-1.55c-5.4,0-10.43,1.84-15.11,5.53c-9.35,7.49-14.1,19.01-14.29,34.54
	c-4.75,4.21-9.17,7.87-13.24,10.93c-6.93,5.22-14.48,8.19-22.66,8.91c-2.97-3.42-4.81-7.22-5.53-11.4
	c-0.72-4.18-1.08-8.48-1.08-12.89c0-8.37,0.94-14.66,2.83-18.89c1.62-3.69,3.8-7.08,6.54-10.19c2.74-3.1,5.46-4.65,8.16-4.65
	c0.99,1.08,1.53,2.38,1.62,3.91c0.45,3.33,3.05,4.99,7.82,4.99c1.44,0,2.52-0.54,3.24-1.62c0.9-1.44,1.35-2.97,1.35-4.59
	c0-3.96-1.62-6.52-4.86-7.69c-9.44-3.24-16.24-4.86-20.37-4.86c-6.66,0.09-12.68,1.95-18.08,5.6c-5.39,3.64-9.56,8.75-12.48,15.31
	c-2.56,5.76-4,11.06-4.32,15.92c-0.12,0.21-0.23,0.44-0.34,0.68c-4.86,11.51-11.02,19.38-18.49,23.61
	c-1.08-3.6-1.71-8.54-1.89-14.84c-0.27-10.7-1.08-18.98-2.43-24.83c-1.44-6.83-6.93-10.25-16.46-10.25c-3.69,0-7.15,1.26-10.39,3.78
	c-2.88,2.34-8.72,10.53-17.54,24.56c0.18-12.5,0.43-21.5,0.74-26.99c0.32-5.48,0.47-8.86,0.47-10.12c0-1.35-0.97-2.63-2.9-3.85
	s-4.84-2.2-8.7-2.97c-3.87-0.76-6.61-1.15-8.23-1.15c-1.35,0-2.34,0.22-2.97,0.67s-1.3,1.39-2.02,2.83
	c-1.26,2.7-2.16,8.77-2.7,18.21s-0.81,16.96-0.81,22.53c0,0.06,0,0.11,0,0.16c-0.61,1.14-1.28,2.43-2.02,3.89
	c-2.79,5.22-6.03,10.48-9.71,15.79c-3.69,5.31-6.48,8.36-8.37,9.17c0-2.97,0.25-8.7,0.74-17.2s0.79-15.85,0.88-22.06
	c0-6.12-0.32-10.41-0.94-12.89c-0.63-2.47-1.55-4-2.77-4.59c-1.22-0.58-2.9-1.15-5.06-1.69c0-2.79-1.39-4.63-4.18-5.53
	c-6.92-2.07-13.17-3.1-18.75-3.1c-4.59,0-9.9,2-15.92,6c-6.03,4-10.89,9.92-14.57,17.74c-3.58,7.6-5.41,15.07-5.51,22.42
	c-10.84,20.68-21.64,31.15-32.4,31.41c-4.5-5.4-7.42-10.86-8.77-16.39c-1.35-5.53-2.02-12.48-2.02-20.85
	c0-7.82,1.44-15.76,4.32-23.81s7.24-15.22,13.08-21.52c1.53,2.97,2.3,5.94,2.3,8.91c0,0.99-0.07,1.87-0.2,2.63
	c-0.13,0.77-0.2,1.64-0.2,2.63c0,0.81,0.72,1.42,2.16,1.82s2.88,0.61,4.32,0.61c2.34,0,4.07-1.3,5.19-3.91s1.69-5.58,1.69-8.91
	c0-7.91-2.79-12.73-8.37-14.44c-9.81-2.97-15.7-4.45-17.67-4.45c-2.61,0-6.52,1.75-11.74,5.26s-9.65,8.28-13.29,14.3
	c-3.65,6.03-6.39,12.41-8.23,19.16c-1.85,6.75-2.77,14.93-2.77,24.55c0,6.75,1.55,14.15,4.66,22.2c3.1,8.05,8.18,14.01,15.24,17.88
	s15.4,5.89,25.03,6.07c7.28,0,13.31-2.29,18.08-6.88c4.77-4.59,9.06-9.98,12.88-16.19c1.38-2.23,2.61-4.29,3.71-6.19
	c3.9,2.32,9.42,3.49,16.6,3.49c6.92,0,14.03-6.47,21.32-19.43c0.27,13.58,1.67,22.13,4.18,25.63c3.96,5.67,9.81,8.5,17.54,8.5
	c4.05,0,7.69-1.8,10.93-5.4c3.18-3.53,6.38-8.47,9.61-14.78c1.11,9.31,3.16,15.05,6.17,17.21c4.4,3.06,10.16,4.59,17.27,4.59
	c1.26,0,2.51-0.09,3.78-0.27c2.79-0.36,5.89-5.31,9.31-14.84c1.08-3.15,3.3-9.65,6.68-19.5c3.37-9.85,6.95-16.57,10.73-20.17
	c0.54,1.62,0.81,3.29,0.81,4.99c0,3.33,0.11,8.36,0.34,15.11s1.24,12.28,3.04,16.59c1.44,3.69,3.94,6.34,7.49,7.96
	c3.56,1.62,7.76,2.48,12.62,2.56c5.4,0,10.57-3.22,15.51-9.65c0.84-1.09,1.61-2.14,2.36-3.17c0.29,0.98,0.61,1.91,0.95,2.77
	c2.2,5.53,6.52,9.94,12.95,13.22c6.43,3.28,14.28,4.97,23.54,5.06c12.33-0.16,24.21-5.94,35.65-17.3c0.39,0.58,0.81,1.15,1.25,1.71
	c3.82,4.81,8.59,8.05,14.3,9.71c5.71,1.67,11.54,2.5,17.47,2.5c5.67,0,11.33-1.39,17-4.18s10.55-6.59,14.64-11.4
	c4.09-4.81,8.37-11.72,12.82-20.71c4.45-8.99,8.11-18.75,10.99-29.28l9.85,1.08c-0.9,7.02-1.91,13.09-3.04,18.21
	c-1.12,5.13-2.07,10.55-2.83,16.26c-0.77,5.71-1.15,12.39-1.15,20.04c0,12.95,4.86,22.26,14.57,27.93
	c5.85,3.51,12.59,5.26,20.24,5.26c5.67,0,10.3-2.16,13.9-6.48c8.09-9.71,14.73-20.91,19.9-33.59c5.17-12.68,8.21-21.18,9.1-25.5
	C508.29,773.15,505.18,772.34,503.65,772.34z M373.12,765.25c1.75-3.19,4.25-5.73,7.49-7.62c1.98,1.08,2.97,2.74,2.97,4.99
	c0,2.88-1.12,5.83-3.37,8.84s-5.93,5.24-11.06,6.68C370.04,772.74,371.36,768.45,373.12,765.25z M115.9,783.13
	c0-8.99,2.22-16.37,6.68-22.13c4.45-5.75,9.91-9.04,16.39-9.85C136,762.31,128.31,772.97,115.9,783.13z M413.26,725.66
	c0-1.26,0.22-2.56,0.67-3.91c3.87,2.52,6.25,7.33,7.15,14.44C415.87,733.48,413.26,729.97,413.26,725.66z"/>
<path d="M689.75,670.14c-26.81,0.34-53.62,0.68-81.14,1.03c11.27,25.25,22.3,49.94,33.32,74.63c-0.12,0.08-0.23,0.15-0.35,0.23
	c-17.1-20.89-34.19-41.79-51.75-63.24c-12.61,24.37-24.95,48.24-37.3,72.1c-0.19-0.06-0.39-0.11-0.58-0.17
	c5.64-26.23,11.27-52.47,17.06-79.41c-26.85,5.32-53.15,10.53-79.44,15.73c-0.06-0.2-0.12-0.39-0.17-0.59
	c23.94-11.91,47.89-23.81,72.49-36.04c-21.03-17.79-41.5-35.11-61.97-52.42c0.09-0.18,0.19-0.35,0.28-0.53
	c24.32,11.34,48.65,22.67,73.57,34.29c0.79-27.16,1.56-53.79,2.33-80.43c0.24-0.04,0.48-0.08,0.72-0.11
	c6.25,25.86,12.51,51.71,18.93,78.28c21.95-16.5,43.42-32.63,64.88-48.76c0.14,0.14,0.28,0.28,0.43,0.41
	c-16.43,21.16-32.86,42.31-49.76,64.07c26.51,6.87,52.5,13.6,78.5,20.33C689.78,669.74,689.77,669.94,689.75,670.14z"/>
<path d="M496.52,425.67c-24.87,0.32-49.73,0.63-75.26,0.96c10.46,23.42,20.68,46.32,30.9,69.22c-0.11,0.07-0.22,0.14-0.33,0.22
	c-15.86-19.38-31.71-38.76-47.99-58.65c-11.69,22.61-23.14,44.74-34.59,66.87c-0.18-0.05-0.36-0.11-0.54-0.16
	c5.23-24.33,10.46-48.66,15.83-73.65c-24.91,4.93-49.29,9.76-73.68,14.59c-0.05-0.18-0.11-0.36-0.16-0.55
	c22.2-11.05,44.42-22.09,67.23-33.43c-19.51-16.5-38.49-32.56-57.47-48.62c0.09-0.16,0.17-0.33,0.26-0.49
	c22.56,10.51,45.12,21.03,68.23,31.8c0.73-25.19,1.44-49.89,2.16-74.59c0.22-0.04,0.44-0.07,0.67-0.11
	c5.8,23.98,11.6,47.96,17.56,72.6c20.36-15.3,40.27-30.26,60.17-45.22c0.13,0.13,0.26,0.26,0.4,0.38
	c-15.24,19.62-30.48,39.24-46.15,59.43c24.59,6.37,48.69,12.61,72.8,18.85C496.55,425.3,496.53,425.49,496.52,425.67z"/>
<path d="M364.93,78.93c7.55,12.95,14.93,25.62,22.31,38.28c-0.06,0.05-0.12,0.1-0.18,0.15c-10.43-10.26-20.86-20.53-31.57-31.07
	c-5.38,13.87-10.64,27.45-15.9,41.03c-0.11-0.02-0.21-0.04-0.32-0.06c1.51-14.47,3.02-28.93,4.57-43.79
	c-14.16,4.43-28.03,8.77-41.9,13.11c-0.04-0.1-0.08-0.2-0.13-0.31c12.21-7.8,24.42-15.62,36.97-23.64
	c-12.37-8.36-24.41-16.5-36.45-24.64c0.04-0.1,0.08-0.2,0.12-0.3c13.77,4.69,27.54,9.38,41.65,14.19
	c-1.16-14.68-2.3-29.08-3.43-43.48c0.13-0.03,0.25-0.07,0.38-0.1c4.88,13.57,9.75,27.14,14.76,41.08
	c10.87-10.17,21.5-20.11,32.12-30.06c0.08,0.07,0.17,0.13,0.25,0.2c-7.62,12.36-15.24,24.72-23.08,37.43
	c14.69,2.16,29.09,4.27,43.49,6.38c0,0.11,0.01,0.22,0.01,0.32C394.17,75.4,379.74,77.14,364.93,78.93z"/>
<path d="M466.16,250.05c-4.83,1.74-9.71,3.25-14.39,5.23c-6.09,2.58-10.18,7.3-12.34,13.49c-1.55,4.44-2.63,9.05-3.9,13.59
	c-0.24,0.86-0.4,1.74-0.99,2.57c-0.72-3.04-1.37-6.11-2.19-9.13c-2.05-7.6-4.68-15.01-12.08-19.03c-4.17-2.26-8.83-3.62-13.3-5.33
	c-1.22-0.47-2.53-0.7-4.3-1.18c0.96-0.34,1.48-0.55,2-0.7c1.93-0.57,3.85-1.18,5.79-1.68c11.5-2.95,18.67-10.15,21.45-21.71
	c0.87-3.6,1.77-7.18,2.83-11.45c0.67,2.87,1.11,5.17,1.76,7.4c1.05,3.56,2.06,7.14,3.42,10.58c2.73,6.92,8.02,11.25,14.9,13.7
	C458.58,247.74,462.43,248.86,466.16,250.05z"/>
<path d="M313.62,581.27c-4.83,1.73-9.71,3.24-14.39,5.23c-6.09,2.58-10.18,7.3-12.34,13.49c-1.55,4.44-2.63,9.05-3.9,13.59
	c-0.24,0.86-0.4,1.74-0.99,2.57c-0.72-3.04-1.37-6.11-2.19-9.13c-2.05-7.6-4.68-15.01-12.08-19.03c-4.17-2.26-8.83-3.62-13.3-5.33
	c-1.22-0.47-2.53-0.7-4.3-1.18c0.96-0.34,1.48-0.55,2-0.7c1.93-0.57,3.85-1.18,5.79-1.68c11.5-2.95,18.67-10.15,21.45-21.71
	c0.87-3.6,1.77-7.18,2.83-11.45c0.67,2.87,1.11,5.17,1.76,7.4c1.05,3.56,2.06,7.14,3.42,10.58c2.73,6.92,8.02,11.25,14.9,13.7
	C306.04,578.96,309.89,580.08,313.62,581.27z"/>
</svg>
