<?xml version="1.0" encoding="utf-8"?>
<!-- Generator: Adobe Illustrator 26.3.1, SVG Export Plug-In . SVG Version: 6.00 Build 0)  -->
<svg version="1.1" id="Layer_1" xmlns="http://www.w3.org/2000/svg" xmlns:xlink="http://www.w3.org/1999/xlink" x="0px" y="0px"
	 viewBox="0 0 817.51 864" style="enable-background:new 0 0 817.51 864;" xml:space="preserve">
<path d="M555.89,565.21c-4.59,5.28-9.18,10.56-13.77,15.85c-1-0.84-2-1.69-3-2.54c4.48-5.42,8.96-10.85,13.45-16.28
	C553.68,563.23,554.78,564.22,555.89,565.21z"/>
<path d="M542.32,583.66l-5.81-4.91l15.85-19.19l6.13,5.49L542.32,583.66z"/>
<path d="M647.91,200.17l3.11,7.47l-170.58,71.22l-3.66-7.45l1.83-0.76L647.91,200.17z M321.97,482.5l157.3,94.5l4.13-6.91
	l-157.18-94.68L321.97,482.5z M573.48,505.71l7.24,2.92l64.39-159.35l-7.76-3.12L573.48,505.71z M165.74,288.52L252.6,414.9
	l6.84-4.7l-86.75-125.96L165.74,288.52z M655.28,285.16l7.36,2.98l25.75-63.16l-7.3-3.81L655.28,285.16z M735,82.55l-20.59,57.09
	l7.85,2.8l20.16-57.25L735,82.55z M268.77,264.28l48.02,1.87l0.44-7.96l-47.89-2.24L268.77,264.28z M408.95,276.52l-35.71-11.27
	l-2.38,7.4l36.2,11.93L408.95,276.52z M201.16,242.54l-23.84-8.8l-2.75,7.23l23.82,9.16L201.16,242.54z"/>
<path d="M556.13,600.53c-6.93,2.5-13.93,4.66-20.64,7.51c-8.73,3.7-14.59,10.48-17.7,19.34c-2.23,6.37-3.77,12.98-5.59,19.48
	c-0.34,1.23-0.58,2.49-1.42,3.68c-1.04-4.36-1.97-8.76-3.14-13.09c-2.94-10.89-6.71-21.53-17.33-27.3
	c-5.98-3.25-12.67-5.2-19.07-7.64c-1.75-0.67-3.62-1.01-6.17-1.69c1.38-0.49,2.12-0.78,2.87-1.01c2.76-0.82,5.52-1.69,8.31-2.41
	c16.49-4.23,26.77-14.56,30.76-31.13c1.24-5.16,2.54-10.3,4.05-16.42c0.97,4.12,1.59,7.42,2.53,10.62c1.5,5.1,2.96,10.24,4.91,15.18
	c3.92,9.93,11.51,16.14,21.37,19.65C545.27,597.23,550.78,598.82,556.13,600.53z"/>
<path d="M486.89,297.68c-6.92,2.5-13.92,4.66-20.64,7.51c-8.73,3.7-14.59,10.48-17.7,19.34c-2.23,6.37-3.77,12.98-5.59,19.48
	c-0.34,1.23-0.58,2.49-1.42,3.68c-1.04-4.36-1.97-8.76-3.14-13.09c-2.94-10.89-6.71-21.53-17.33-27.3
	c-5.98-3.25-12.67-5.2-19.07-7.64c-1.75-0.67-3.62-1.01-6.17-1.69c1.38-0.49,2.12-0.78,2.87-1.01c2.76-0.82,5.52-1.69,8.31-2.41
	c16.49-4.23,26.77-14.56,30.76-31.13c1.24-5.16,2.54-10.3,4.05-16.42c0.97,4.12,1.59,7.42,2.53,10.62c1.5,5.1,2.96,10.24,4.91,15.18
	c3.92,9.93,11.51,16.14,21.37,19.65C476.03,294.38,481.54,295.97,486.89,297.68z"/>
<path d="M264.87,267.87c-5.31,1.88-10.68,3.54-15.82,5.72c-6.69,2.83-11.18,8.03-13.56,14.82c-1.71,4.88-2.89,9.94-4.28,14.93
	c-0.26,0.94-0.44,1.91-1.09,2.82c-0.8-3.34-1.51-6.71-2.4-10.03c-2.25-8.35-5.14-16.49-13.28-20.91c-4.58-2.49-9.71-3.98-14.61-5.85
	c-1.34-0.51-2.77-0.77-4.73-1.3c1.06-0.37,1.62-0.6,2.2-0.77c2.12-0.63,4.23-1.29,6.36-1.84c12.63-3.24,20.51-11.16,23.57-23.85
	c0.95-3.95,1.95-7.89,3.11-12.58c0.74,3.16,1.21,5.68,1.94,8.14c1.15,3.91,2.27,7.85,3.76,11.63c3,7.61,8.82,12.36,16.37,15.06
	C256.55,265.33,260.77,266.56,264.87,267.87z"/>
<path d="M791.17,57.52c-4.94,1.77-9.95,3.32-14.75,5.36c-6.24,2.64-10.43,7.49-12.65,13.82c-1.59,4.55-2.69,9.27-4,13.92
	c-0.25,0.88-0.41,1.78-1.02,2.63c-0.74-3.12-1.41-6.26-2.24-9.35c-2.1-7.78-4.79-15.39-12.38-19.51c-4.27-2.32-9.05-3.71-13.63-5.46
	c-1.25-0.48-2.59-0.72-4.41-1.21c0.99-0.35,1.51-0.56,2.05-0.72c1.97-0.59,3.94-1.21,5.94-1.72c11.78-3.02,19.13-10.4,21.98-22.25
	c0.89-3.69,1.82-7.36,2.9-11.73c0.69,2.95,1.13,5.3,1.81,7.59c1.07,3.64,2.12,7.32,3.51,10.85c2.8,7.1,8.22,11.53,15.27,14.04
	C783.41,55.16,787.35,56.3,791.17,57.52z"/>
<path d="M203.58,218.35c-22.26-3.57-44.52-7.14-67.41-10.82c5.65,22.34,11.19,44.25,16.74,66.15c-0.15,0.07-0.31,0.14-0.46,0.21
	c-11.09-19.65-22.18-39.3-33.57-59.47c-14.08,18.53-27.84,36.65-41.61,54.77c-0.1-0.06-0.21-0.11-0.31-0.17
	c8.51-21.06,17.01-42.13,25.75-63.76c-23.09,0.55-45.69,1.09-68.29,1.62c-0.04-0.17-0.07-0.33-0.11-0.5
	c21.64-6.45,43.28-12.89,65.5-19.51C85.03,169.2,70.55,151.9,56.08,134.6c0.12-0.12,0.24-0.24,0.36-0.37
	c18.48,12.88,36.95,25.74,55.92,38.95c4.63-22.72,9.13-44.82,13.63-66.93c0.17,0,0.34,0,0.51-0.01c1.47,22.53,2.94,45.07,4.44,68.16
	c20.36-10.4,40.33-20.6,60.3-30.8c0.12,0.16,0.25,0.32,0.37,0.48c-16.55,15.07-33.11,30.14-50.12,45.62
	c21.05,9.53,41.63,18.85,62.22,28.17C203.67,218.03,203.62,218.19,203.58,218.35z"/>
<path d="M758.5,201.94c-19.35-3.69-38.71-7.39-58.61-11.19c4.36,19.66,8.64,38.95,12.92,58.23c-0.14,0.06-0.27,0.11-0.41,0.17
	c-9.18-17.45-18.37-34.91-27.79-52.82c-12.78,15.83-25.27,31.3-37.76,46.78c-0.09-0.05-0.18-0.1-0.27-0.15
	c7.98-18.18,15.95-36.37,24.14-55.04c-20.18-0.12-39.95-0.23-59.71-0.34c-0.03-0.15-0.05-0.29-0.08-0.44
	c19.07-5.07,38.15-10.15,57.73-15.36c-12.46-15.82-24.66-31.31-36.86-46.8c0.11-0.1,0.22-0.21,0.33-0.31
	c15.8,11.69,31.61,23.41,47.84,35.44c4.63-19.73,9.13-38.93,13.64-58.12c0.15,0,0.29,0,0.44,0.01c0.7,19.73,1.4,39.45,2.12,59.66
	c18.06-8.56,35.77-16.96,53.48-25.36c0.1,0.14,0.21,0.29,0.31,0.43c-14.85,12.74-29.7,25.48-44.96,38.57
	c18.15,8.87,35.89,17.54,53.63,26.22C758.59,201.66,758.54,201.8,758.5,201.94z"/>
<path d="M365.55,234.29c6.92,9.29,13.68,18.38,20.45,27.47c-0.06,0.06-0.12,0.12-0.18,0.18c-8.89-6.97-17.79-13.95-26.94-21.12
	c-2.95,11.17-5.84,22.13-8.73,33.08c-0.08-0.01-0.17-0.01-0.25-0.02c-0.09-11.31-0.18-22.63-0.28-34.24
	c-10.68,4.71-21.12,9.31-31.55,13.91c-0.03-0.05-0.06-0.1-0.1-0.15c8.85-7.17,17.7-14.34,26.79-21.71
	c-10.26-5.37-20.3-10.62-30.35-15.88c0.02-0.08,0.05-0.16,0.07-0.24c11.06,2.43,22.12,4.86,33.47,7.36
	c-2.19-11.34-4.34-22.45-6.48-33.55c0.08-0.02,0.17-0.05,0.25-0.07c4.99,10.13,9.96,20.26,15.07,30.66
	c7.55-8.84,14.9-17.44,22.24-26.04c0.07,0.04,0.15,0.08,0.22,0.12c-4.83,10.24-9.66,20.48-14.61,30.97
	c11.46,0.39,22.69,0.76,33.93,1.14c0.02,0.1,0.03,0.2,0.05,0.3C387.7,229.05,376.78,231.64,365.55,234.29z"/>
<path d="M666.73,329.61c6.92,9.29,13.68,18.38,20.45,27.47c-0.06,0.06-0.12,0.12-0.18,0.18c-8.89-6.97-17.79-13.95-26.94-21.12
	c-2.95,11.17-5.84,22.13-8.73,33.08c-0.08-0.01-0.17-0.01-0.25-0.02c-0.09-11.31-0.18-22.63-0.28-34.24
	c-10.68,4.71-21.12,9.31-31.55,13.91c-0.03-0.05-0.06-0.1-0.1-0.15c8.85-7.17,17.7-14.34,26.79-21.71
	c-10.26-5.37-20.3-10.62-30.35-15.88c0.02-0.08,0.05-0.16,0.07-0.24c11.06,2.43,22.12,4.86,33.47,7.36
	c-2.19-11.34-4.34-22.45-6.48-33.55c0.08-0.02,0.17-0.05,0.25-0.07c4.99,10.13,9.96,20.26,15.07,30.66
	c7.55-8.84,14.9-17.44,22.24-26.04c0.07,0.04,0.15,0.08,0.22,0.12c-4.83,10.24-9.66,20.48-14.61,30.97
	c11.46,0.39,22.69,0.76,33.93,1.14c0.02,0.1,0.03,0.2,0.05,0.3C688.88,324.37,677.96,326.96,666.73,329.61z"/>
<path d="M584.93,541.08c6.92,9.29,13.68,18.38,20.45,27.47c-0.06,0.06-0.12,0.12-0.18,0.18c-8.89-6.97-17.79-13.95-26.94-21.12
	c-2.95,11.17-5.84,22.13-8.73,33.08c-0.08-0.01-0.17-0.01-0.25-0.02c-0.09-11.31-0.18-22.63-0.28-34.24
	c-10.68,4.71-21.12,9.31-31.55,13.91c-0.03-0.05-0.06-0.1-0.1-0.15c8.85-7.17,17.7-14.34,26.79-21.71
	c-10.26-5.37-20.3-10.62-30.35-15.88c0.02-0.08,0.05-0.16,0.07-0.24c11.06,2.43,22.12,4.86,33.47,7.36
	c-2.19-11.34-4.34-22.45-6.48-33.55c0.08-0.02,0.17-0.05,0.25-0.07c4.99,10.13,9.96,20.26,15.07,30.66
	c7.55-8.84,14.9-17.44,22.24-26.04c0.07,0.04,0.15,0.08,0.22,0.12c-4.83,10.24-9.66,20.48-14.61,30.97
	c11.46,0.39,22.69,0.76,33.93,1.14c0.02,0.1,0.03,0.2,0.05,0.3C607.08,535.84,596.16,538.43,584.93,541.08z"/>
<path d="M295.39,450.71c6.92,9.29,13.68,18.38,20.45,27.47c-0.06,0.06-0.12,0.12-0.18,0.18c-8.89-6.97-17.79-13.95-26.94-21.12
	c-2.95,11.17-5.84,22.13-8.73,33.08c-0.08-0.01-0.17-0.01-0.25-0.02c-0.09-11.31-0.18-22.63-0.28-34.24
	c-10.68,4.71-21.12,9.31-31.55,13.91c-0.03-0.05-0.06-0.1-0.1-0.15c8.85-7.17,17.7-14.34,26.79-21.71
	c-10.26-5.37-20.3-10.62-30.35-15.88c0.02-0.08,0.05-0.16,0.07-0.24c11.06,2.43,22.12,4.86,33.47,7.36
	c-2.19-11.34-4.34-22.45-6.48-33.55c0.08-0.02,0.17-0.05,0.25-0.07c4.98,10.13,9.96,20.26,15.07,30.66
	c7.55-8.84,14.9-17.44,22.24-26.04c0.07,0.04,0.15,0.08,0.22,0.12c-4.83,10.24-9.66,20.48-14.61,30.97
	c11.46,0.39,22.69,0.76,33.93,1.14c0.02,0.1,0.03,0.2,0.05,0.3C317.54,445.47,306.62,448.06,295.39,450.71z"/>
<path d="M473.89,739.74c-0.67-1.85-1-4.4-1-7.68c0-2.32,0.35-4.45,1.06-6.38s1.71-3.22,3.01-3.87c1.3-0.64,3.05-0.97,5.26-0.97
	c9.46,0,14.19,3.66,14.19,10.97c0,2.15-0.26,4.34-0.77,6.58c-0.51,2.23-1.26,3.96-2.25,5.16c-0.99,1.2-2.23,1.81-3.73,1.81
	c-3.15-0.08-6.4-0.58-9.75-1.48C476.57,742.97,474.56,741.59,473.89,739.74z M798.03,773.21c0,1.29-0.79,4.06-2.36,8.32
	c-1.58,4.26-4.54,9.46-8.87,15.61c-4.33,6.15-8.87,9.22-13.59,9.22c-4.26-0.08-7.94-0.9-11.06-2.45c-3.11-1.55-5.3-4.08-6.56-7.61
	c-1.58-4.13-2.46-9.42-2.66-15.87c-0.2-6.45-0.3-11.26-0.3-14.45c0-1.63-0.24-3.22-0.71-4.77c-3.31,3.44-6.44,9.87-9.4,19.28
	c-2.96,9.42-4.91,15.63-5.85,18.64c-3,9.11-5.71,13.84-8.16,14.19c-1.11,0.17-2.21,0.25-3.31,0.25c-6.23,0-11.27-1.46-15.13-4.38
	c-1.58-1.23-2.85-3.69-3.84-7.37c-1.22,2.39-2.43,4.55-3.61,6.47c-7.33,11.78-13.83,17.67-19.51,17.67c-3.63,0-8.24-1.33-13.83-4
	c-9.06-4.21-13.59-13.63-13.59-28.25c0-3.01,0.16-6.32,0.47-9.93c0.63-6.54,2.68-18.36,6.15-35.47l-4.5-0.51
	c-3.63,10.49-8.35,18.66-14.19,24.51c-5.6,5.5-12.02,9.03-19.27,10.58c-0.55,5.42-1.73,10.81-3.55,16.19s-4.61,9.7-8.4,12.96
	c-3.78,3.27-8.39,4.9-13.83,4.9c-7.09-0.17-12.75-1.72-16.97-4.64c-3.53-2.45-5.56-5.65-6.14-9.61c-8.46,7.56-17.2,11.42-26.2,11.54
	c-8.12-0.09-15-1.7-20.63-4.84c-5.48-3.05-9.2-7.14-11.18-12.23c-1.12,2.69-2.24,5.27-3.37,7.71c-2.56,5.55-5.79,10.04-9.69,13.48
	s-7.75,5.16-11.53,5.16c-3.31,0-6.3-0.43-8.98-1.29c-5.83-1.89-10.52-4.52-14.07-7.87c-1.89-1.89-3.15-6.92-3.78-15.09
	c-0.09-1.11-0.15-2.22-0.21-3.33c-1.02,2.28-2.02,4.52-2.98,6.68c-5.36,12.12-11.55,18.19-18.56,18.19c-6.54,0-12-1.42-16.38-4.25
	c-4.38-2.84-7.39-6.28-9.04-10.32c-1.66-4.04-2.48-9.07-2.48-15.09c0-5.85,0.35-11.91,1.06-18.18s1.46-11.44,2.25-15.48
	s2.25-10.31,4.37-18.83c-2.37-0.34-4.65-0.56-6.86-0.64c-2.05,10.57-4.91,18.98-8.57,25.21c-3.67,6.24-9.6,12.45-17.79,18.64
	c-3.39,7.74-7.25,12.71-11.59,14.9s-8.95,3.42-13.83,3.68c-6.78,0-12.77-1.29-17.97-3.87c-2.29,17.02-3.55,32.59-3.78,46.69
	c0,1.38-0.35,2.62-1.06,3.74c-0.71,1.11-2.56,1.67-5.56,1.67c-11.19,0-17.34-3.23-18.45-9.67c-0.55-2.76-0.83-9.42-0.83-19.99
	c0-3.44,0.06-10.6,0.18-21.47c0.01-0.89,0.03-1.81,0.05-2.73c-2.5,5.06-4.98,9.09-7.44,12.08c-2.84,3.44-6.03,5.16-9.58,5.16
	c-6.78,0-11.9-2.71-15.37-8.12c-2.21-3.36-3.43-11.52-3.67-24.51c-6.38,12.38-12.61,18.57-18.68,18.57
	c-6.29,0-11.12-1.12-14.54-3.33c-0.97,1.81-2.05,3.78-3.25,5.91c-3.35,5.93-7.11,11.09-11.29,15.48c-4.18,4.39-9.46,6.58-15.84,6.58
	c-8.43-0.17-15.75-2.11-21.93-5.81c-6.19-3.69-10.64-9.39-13.36-17.09c-2.72-7.69-4.08-14.77-4.08-21.22
	c0-9.2,0.81-17.03,2.42-23.48c1.61-6.45,4.02-12.55,7.21-18.31s7.08-10.32,11.65-13.67c4.57-3.36,8-5.03,10.29-5.03
	c1.73,0,6.9,1.42,15.49,4.25c4.88,1.63,7.33,6.23,7.33,13.8c0,3.18-0.49,6.02-1.48,8.51c-0.99,2.49-2.5,3.74-4.55,3.74
	c-1.26,0-2.52-0.19-3.79-0.58c-1.26-0.39-1.89-0.97-1.89-1.74c0-0.95,0.06-1.78,0.17-2.52c0.12-0.73,0.18-1.57,0.18-2.52
	c0-2.84-0.67-5.68-2.01-8.51c-5.12,6.02-8.95,12.88-11.47,20.57s-3.79,15.28-3.79,22.76c0,8,0.59,14.64,1.78,19.93
	c1.18,5.29,3.74,10.52,7.68,15.67c9.43-0.25,18.89-10.26,28.39-30.03c0.09-7.02,1.69-14.17,4.83-21.44
	c3.23-7.48,7.49-13.14,12.77-16.96c5.28-3.83,9.93-5.74,13.95-5.74c4.89,0,10.37,0.99,16.44,2.97c2.44,0.86,3.67,2.62,3.67,5.29
	c1.89,0.52,3.37,1.05,4.43,1.61s1.87,2.02,2.42,4.39c0.55,2.37,0.83,6.47,0.83,12.32c-0.08,5.93-0.33,12.96-0.77,21.09
	c-0.43,8.12-0.65,13.61-0.65,16.44c1.66-0.77,4.1-3.69,7.33-8.77c3.23-5.07,6.07-10.1,8.51-15.09c1.24-2.63,2.25-4.72,3.05-6.27
	c0.36-4,0.78-8.15,1.27-12.49c1.69-15,2.9-23.88,3.61-26.64c1.02-3.78,3.03-5.67,6.03-5.67c4.57,0,8.32,1.1,11.23,3.29
	c2.92,2.19,4.38,4.54,4.38,7.03c0,3.96-0.67,12.94-2.01,26.96c8.91-17.97,16.95-26.96,24.12-26.96c8.75,0,15.13,3.14,19.15,9.42
	c2.44,4.04,3.94,7.42,4.49,10.13s0.87,6.34,0.95,10.9c3.63-2.58,6.76-6.49,9.4-11.74c2.64-5.24,4.35-11.43,5.14-18.57
	c-20.5-0.78-30.74-6.49-30.74-17.16c0-3.09,1.55-6.17,4.67-9.22c3.11-3.05,7.08-4.58,11.88-4.58c6.46,0,11.82,1.98,16.08,5.93
	c4.25,3.96,6.86,9.63,7.8,17.02c8.2,1.46,14.11,2.84,17.73,4.13c4.18,1.38,6.78,4.9,7.8,10.58c0.47,2.32,0.71,5.38,0.71,9.16
	c0,1.38-0.1,3.96-0.29,7.74c-0.2,3.78-0.51,7.91-0.95,12.38c-0.43,4.47-0.69,9.16-0.77,14.06c0,6.54,0.47,11.78,1.42,15.73
	c6.46-8.34,12.02-16.01,16.67-23.02c4.65-7.01,7.55-11.61,8.69-13.8c0.17-0.33,0.35-0.63,0.53-0.91c0.49-2.58,1.04-5.22,1.66-7.93
	c0.71-3.1,2.4-4.64,5.08-4.64c2.52,0,6.42,0.82,11.71,2.45c3.23,0.95,4.85,3.19,4.85,6.71c0,4.04-0.36,11.22-1.07,21.54
	c-0.24,3.27-0.35,6.54-0.35,9.8c0,11.78,0.55,19.35,1.66,22.7c7.47-3.88,14.98-15.84,22.53-35.83c-0.1-1.89-0.16-3.86-0.18-5.96
	c0-5.16,1.28-10.88,3.84-17.16c2.56-6.27,6.21-11.16,10.94-14.64c4.73-3.48,10.01-5.26,15.84-5.35c3.63,0,9.58,1.55,17.85,4.64
	c2.84,1.12,4.25,3.57,4.25,7.35c0,1.55-0.39,3.01-1.18,4.39c-0.63,1.03-1.58,1.55-2.84,1.55c-4.18,0-6.46-1.59-6.86-4.77
	c-0.08-1.46-0.55-2.71-1.42-3.74c-2.37,0-4.75,1.48-7.15,4.45c-2.41,2.97-4.32,6.21-5.74,9.74c-1.66,4.04-2.48,10.06-2.48,18.06
	c0,4.21,0.31,8.32,0.95,12.32c0.63,4,2.25,7.63,4.85,10.9c7.17-0.68,13.79-3.52,19.86-8.51c5.92-4.86,12.67-11.26,20.25-19.15
	c-4.66-3.92-7-8.71-7-14.38c0-4.99,0.87-9.2,2.6-12.64s4.29-6.17,7.69-8.19c3.39-2.02,7.25-3.03,11.59-3.03
	c8.51,0.09,14.78,3.4,18.8,9.93c3.63,6.02,5.44,13.33,5.44,21.93l-0.24,5.03c6.07-1.98,11.13-5.01,15.19-9.09s7.12-9.82,9.17-17.22
	c-8.28-1.89-14.27-4.82-17.97-8.77c-3.31-3.35-4.96-6.92-4.96-10.7c0-5.67,1.97-10.27,5.91-13.8c3.08-2.84,6.15-4.25,9.22-4.25
	c3.47,0,7.25,1.03,11.35,3.09c5.51,2.76,8.27,9.85,8.27,21.28c0,2.06-0.08,4.26-0.24,6.58l13.24,3.22
	c4.88,1.12,7.57,5.37,8.04,12.77c0.39,3.61,0.59,7.31,0.59,11.09c0,3.79-0.2,7.65-0.59,11.61c-1.26,11.69-1.89,18.57-1.89,20.64
	c0,4.3,0.47,8.21,1.42,11.73c4.02-0.6,7.66-3.12,10.93-7.55s6.72-10.47,10.35-18.12c0.63-1.34,1.22-2.55,1.77-3.65
	c-0.07-2.42-0.11-4.98-0.11-7.7c0-5.33,0.24-12.51,0.71-21.54c0.47-9.03,1.26-14.83,2.37-17.41c0.63-1.37,1.22-2.28,1.77-2.71
	c0.55-0.43,1.42-0.64,2.6-0.64c1.42,0,3.82,0.37,7.21,1.1s5.93,1.68,7.63,2.84c1.69,1.16,2.54,2.38,2.54,3.68
	c0,1.2-0.14,4.43-0.41,9.67c-0.28,5.25-0.49,13.85-0.65,25.8c7.72-13.42,12.84-21.24,15.37-23.48c2.84-2.41,5.87-3.61,9.1-3.61
	c8.35,0,13.16,3.27,14.42,9.8c1.18,5.59,1.89,13.5,2.13,23.73c0.16,6.02,0.71,10.75,1.65,14.19c6.54-4.04,11.94-11.57,16.2-22.57
	c0.79-1.98,2.05-2.97,3.78-2.97c1.34,0,2.97,0.3,4.91,0.9C797.07,770.98,798.03,771.92,798.03,773.21z M287.62,747.93
	c-5.68,0.78-10.46,3.91-14.37,9.42c-3.9,5.5-5.85,12.56-5.85,21.15C278.28,768.78,285.02,758.6,287.62,747.93z M370.26,750.9
	c0-1.55-0.16-3.01-0.47-4.39c-5.04,4.3-8.89,8.6-11.53,12.9c-2.64,4.3-4.59,8.41-5.85,12.32c-1.26,3.92-2.45,9.1-3.55,15.54
	c10.64-3.95,17.1-10.19,19.39-18.7C369.59,763.58,370.26,757.69,370.26,750.9z M408.1,729.1c-1.97-11.95-5.16-17.93-9.58-17.93
	c-2.76,0-4.87,1.03-6.33,3.09s-2.19,4.21-2.19,6.45c0,2.49,1.16,4.45,3.49,5.87S400.69,728.84,408.1,729.1z M610.63,783.02
	c-3.47-0.17-6.58-0.73-9.34-1.68c-1.66,3.53-2.6,6.97-2.84,10.32c-0.08,1.46-0.12,3.05-0.12,4.77c0,2.24,0.08,4.64,0.24,7.23
	C605.27,800.81,609.29,793.93,610.63,783.02z M613.11,765.09c0-8-1.12-14.17-3.37-18.51s-4.43-6.51-6.56-6.51
	c-3.16,0-5.7,1.76-7.63,5.28c-1.93,3.53-2.89,7.18-2.89,10.97c0,5.5,1.14,9.41,3.43,11.73c4.02,4.04,9.46,6.06,16.31,6.06
	C612.88,771.28,613.11,768.27,613.11,765.09z M652.02,729.62c0-6.96-1.89-11.95-5.68-14.96c-4.1,1.98-6.46,6.19-7.09,12.64v1.42
	c0,2.32,0.53,4.34,1.6,6.06c1.06,1.72,4.35,2.92,9.87,3.61C651.58,735.47,652.02,732.54,652.02,729.62z"/>
</svg>
