<?xml version="1.0" encoding="utf-8"?>
<!-- Generator: Adobe Illustrator 26.3.1, SVG Export Plug-In . SVG Version: 6.00 Build 0)  -->
<svg version="1.1" id="Layer_1" xmlns="http://www.w3.org/2000/svg" xmlns:xlink="http://www.w3.org/1999/xlink" x="0px" y="0px"
	 viewBox="0 0 864 695.91" style="enable-background:new 0 0 864 695.91;" xml:space="preserve">
<path d="M326.25,467l287.08,65.85l-1.82,7.95l-287.09-65.79L326.25,467z M94.19,453.1l5.49,6.06l150.41-136.42l-5.51-6.08
	L94.19,453.1z M500.16,283.02l-1.15-7.98l-163.06,16.21l0.8,8.17L500.16,283.02z M124.76,479.8l1.27,8.28l106.63-18.32l-1.36-7.96
	L124.76,479.8z M607.24,117.98l2.22,8.04l84.96-30.22l-2.73-7.71L607.24,117.98z M600.57,301.22l46.9,39.85l5.48-6.54l-47.3-39.37
	L600.57,301.22z M582.63,169.33l-7.74-1.53l-10.6,51.7l8.39,1.04L582.63,169.33z M756.46,107.47l-6.97,3.88l21.16,38.16l7.08-3.94
	L756.46,107.47z M662.77,515.5l-0.54,8.86l6.94-0.02l8.03-120.83l-7.46,0.22L662.77,515.5z"/>
<path d="M571.69,278.49c12.46,19.64,24.64,38.85,36.82,58.05c-0.13,0.11-0.25,0.22-0.38,0.33c-16.76-15.29-33.53-30.58-50.77-46.31
	c-7.57,21.92-15,43.42-22.43,64.92c-0.17-0.03-0.33-0.05-0.5-0.08c1.51-22.66,3.02-45.32,4.57-68.58
	c-22.08,7.83-43.66,15.48-65.25,23.13c-0.06-0.1-0.12-0.21-0.17-0.31c18.79-13.03,37.57-26.07,56.87-39.46
	c-19.73-12.28-39.06-24.3-58.38-36.33c0.06-0.16,0.12-0.32,0.18-0.48c21.77,6.52,43.55,13.04,65.91,19.73
	c-2.69-23.03-5.33-45.58-7.96-68.13c0.17-0.04,0.34-0.07,0.51-0.11c8.45,21.03,16.9,42.05,25.57,63.64
	c16.43-16.57,32.43-32.69,48.42-48.81c0.14,0.09,0.29,0.18,0.43,0.27c-11.2,19.78-22.4,39.55-33.88,59.82
	c22.88,2.48,45.32,4.92,67.75,7.36c0.02,0.2,0.03,0.41,0.05,0.61C616.8,271.3,594.55,274.85,571.69,278.49z"/>
<path d="M333.18,309.77c-11.25-1.03-22.5-2.06-34.06-3.12c3.62,11.09,7.17,21.92,10.71,32.76c-0.08,0.04-0.15,0.08-0.23,0.11
	c-6.25-9.5-12.51-19.01-18.94-28.78c-6.39,9.71-12.66,19.24-18.93,28.77c-0.08-0.03-0.16-0.07-0.23-0.1
	c3.54-10.82,7.08-21.65,10.71-32.76c-11.7,1.07-23.13,2.12-34.57,3.17c-0.02-0.06-0.03-0.12-0.05-0.17
	c10.74-4.01,21.48-8.02,32.51-12.13c-8.07-8.41-15.97-16.64-23.87-24.87c0.05-0.07,0.1-0.14,0.15-0.21
	c9.77,5.86,19.55,11.72,29.58,17.74c1.54-11.52,3.05-22.81,4.56-34.09c0.09,0,0.17,0.01,0.26,0.01c1.53,11.25,3.03,22.51,4.57,34.07
	c10.04-6.02,19.8-11.87,29.57-17.72c0.06,0.06,0.12,0.12,0.17,0.19c-7.89,8.22-15.78,16.45-23.87,24.87
	c10.81,4.04,21.41,8,32.01,11.96C333.21,309.57,333.19,309.67,333.18,309.77z"/>
<path d="M623.18,140.9c-11.24-1.18-22.47-2.37-34.01-3.58c3.47,11.13,6.87,22.02,10.26,32.91c-0.08,0.04-0.15,0.07-0.23,0.11
	c-6.12-9.59-12.24-19.18-18.54-29.04c-6.52,9.63-12.92,19.07-19.32,28.51c-0.08-0.03-0.15-0.07-0.23-0.1
	c3.69-10.78,7.37-21.55,11.15-32.61c-11.71,0.91-23.16,1.8-34.61,2.69c-0.01-0.06-0.03-0.12-0.04-0.17
	c10.8-3.86,21.59-7.72,32.68-11.69c-7.95-8.52-15.74-16.86-23.53-25.2c0.05-0.07,0.1-0.14,0.15-0.21
	c9.69,5.99,19.38,11.99,29.34,18.14c1.7-11.5,3.36-22.76,5.03-34.03c0.09,0,0.17,0.01,0.26,0.01c1.35,11.29,2.7,22.57,4.08,34.15
	c10.12-5.88,19.96-11.6,29.8-17.32c0.06,0.06,0.11,0.13,0.17,0.19c-8,8.11-16,16.23-24.2,24.55c10.75,4.19,21.3,8.29,31.85,12.39
	C623.22,140.7,623.2,140.8,623.18,140.9z"/>
<path d="M709.98,370.79c-11.3,0.12-22.59,0.24-34.2,0.37c4.73,10.66,9.36,21.08,13.99,31.5c-0.07,0.05-0.14,0.09-0.21,0.14
	c-7.19-8.82-14.38-17.64-21.77-26.7c-5.37,10.32-10.63,20.43-15.9,30.55c-0.08-0.03-0.16-0.05-0.24-0.08
	c2.42-11.13,4.83-22.26,7.31-33.68c-11.53,2.26-22.79,4.46-34.06,6.67c-0.02-0.06-0.04-0.11-0.06-0.17
	c10.28-5.08,20.55-10.16,31.11-15.38c-8.88-7.54-17.58-14.93-26.28-22.31c0.04-0.07,0.08-0.15,0.13-0.22
	c10.32,4.84,20.64,9.67,31.24,14.64c0.36-11.62,0.71-23,1.07-34.38c0.09-0.01,0.17-0.01,0.26-0.02c2.62,11.03,5.26,22.08,7.98,33.42
	c9.37-7.01,18.49-13.83,27.61-20.65c0.06,0.06,0.13,0.11,0.19,0.17c-7.01,8.98-14.02,17.97-21.21,27.18
	c11.16,2.92,22.11,5.78,33.06,8.64C709.99,370.58,709.99,370.69,709.98,370.79z"/>
<path d="M694.12,562.8c18.28,14.38,36.16,28.44,54.04,42.49c-0.08,0.15-0.16,0.29-0.25,0.44c-20.9-8.84-41.79-17.69-63.28-26.78
	c0.15,23.19,0.3,45.94,0.45,68.68c-0.17,0.03-0.33,0.06-0.5,0.09c-6.12-21.87-12.23-43.75-18.51-66.19
	c-18.22,14.73-36.03,29.12-53.84,43.52c-0.09-0.08-0.18-0.16-0.27-0.24c13.38-18.54,26.76-37.08,40.5-56.13
	c-22.7-5.02-44.92-9.93-67.14-14.84c0-0.17,0.01-0.34,0.01-0.51c22.7-1.1,45.4-2.19,68.72-3.32c-10.2-20.82-20.19-41.21-30.17-61.6
	c0.15-0.09,0.3-0.18,0.44-0.27c14.97,17.03,29.92,34.04,45.29,51.51c9.99-21.09,19.7-41.61,29.42-62.14
	c0.17,0.04,0.33,0.08,0.5,0.11c-3.98,22.38-7.97,44.75-12.05,67.68c22.4-5.27,44.37-10.44,66.34-15.6c0.08,0.19,0.17,0.38,0.25,0.56
	C734.27,541.01,714.46,551.76,694.12,562.8z"/>
<path d="M831.52,200.06c-11.18-2.12-22.35-4.25-33.85-6.43c2.53,11.35,5.01,22.48,7.49,33.61c-0.08,0.03-0.16,0.07-0.23,0.1
	c-5.31-10.07-10.62-20.15-16.08-30.48c-7.37,9.14-14.58,18.09-21.78,27.03c-0.05-0.03-0.1-0.06-0.16-0.09
	c4.6-10.5,9.19-21.01,13.91-31.79c-11.65-0.06-23.06-0.11-34.47-0.17c-0.02-0.08-0.03-0.17-0.05-0.25
	c11.01-2.94,22.02-5.88,33.33-8.9c-7.2-9.13-14.25-18.06-21.31-27c0.06-0.06,0.13-0.12,0.19-0.18c9.12,6.76,18.26,13.51,27.64,20.45
	c2.66-11.39,5.25-22.48,7.84-33.57c0.09,0,0.17,0,0.26,0c0.42,11.39,0.83,22.78,1.26,34.45c10.42-4.95,20.64-9.81,30.86-14.67
	c0.06,0.08,0.12,0.17,0.18,0.25c-8.57,7.36-17.14,14.73-25.94,22.29c10.48,5.11,20.73,10.11,30.98,15.11
	C831.57,199.9,831.54,199.98,831.52,200.06z"/>
<path d="M314.54,450.86c-6.12,2.2-12.31,4.11-18.25,6.63c-7.72,3.27-12.91,9.26-15.65,17.1c-1.97,5.63-3.33,11.47-4.94,17.23
	c-0.3,1.09-0.51,2.21-1.26,3.26c-0.92-3.86-1.74-7.74-2.77-11.57c-2.6-9.63-5.93-19.04-15.32-24.14c-5.29-2.87-11.2-4.59-16.87-6.75
	c-1.55-0.59-3.2-0.89-5.46-1.5c1.22-0.43,1.87-0.69,2.54-0.89c2.44-0.72,4.88-1.49,7.34-2.13c14.58-3.74,23.67-12.87,27.2-27.53
	c1.1-4.56,2.25-9.11,3.58-14.52c0.86,3.64,1.4,6.56,2.24,9.39c1.33,4.51,2.62,9.05,4.34,13.42c3.46,8.78,10.17,14.27,18.9,17.38
	C304.93,447.94,309.81,449.35,314.54,450.86z"/>
<path d="M772.43,63.9c-6.97,2.5-14.02,4.68-20.78,7.54c-8.78,3.72-14.69,10.54-17.81,19.47c-2.24,6.41-3.79,13.06-5.63,19.61
	c-0.35,1.24-0.58,2.51-1.43,3.71c-1.05-4.39-1.98-8.82-3.16-13.17c-2.96-10.96-6.75-21.67-17.44-27.48
	c-6.02-3.27-12.75-5.23-19.2-7.69c-1.76-0.67-3.65-1.01-6.21-1.7c1.39-0.49,2.13-0.79,2.89-1.01c2.78-0.82,5.55-1.7,8.36-2.42
	c16.59-4.26,26.95-14.65,30.96-31.34c1.25-5.19,2.56-10.37,4.08-16.53c0.97,4.15,1.6,7.47,2.55,10.69
	c1.51,5.13,2.98,10.31,4.94,15.28c3.94,10,11.58,16.24,21.51,19.78C761.49,60.58,767.04,62.18,772.43,63.9z"/>
<path d="M103.87,486.24c-6.97,2.5-14.02,4.68-20.78,7.54c-8.78,3.72-14.69,10.54-17.81,19.47c-2.24,6.41-3.79,13.06-5.63,19.61
	c-0.35,1.24-0.58,2.51-1.43,3.71c-1.05-4.39-1.98-8.82-3.16-13.17c-2.96-10.96-6.75-21.67-17.44-27.48
	c-6.02-3.27-12.75-5.23-19.2-7.69c-1.76-0.67-3.65-1.01-6.21-1.7c1.39-0.49,2.13-0.79,2.89-1.01c2.78-0.82,5.55-1.7,8.36-2.42
	c16.59-4.26,26.95-14.65,30.96-31.34c1.25-5.19,2.56-10.37,4.08-16.53c0.97,4.15,1.6,7.47,2.55,10.69
	c1.51,5.13,2.98,10.31,4.94,15.28c3.94,10,11.58,16.24,21.51,19.78C92.93,482.92,98.48,484.52,103.87,486.24z"/>
<path d="M324.88,662.05c0,0.76-0.63,1.28-1.89,1.54c-1.26,0.27-4.36,0.86-9.31,1.77c-4.95,0.91-11.73,2.74-20.34,5.48
	c-1.3,1.67-2.74,2.51-4.34,2.51c-1.98,0-5.83-1.48-11.54-4.45c-2.21-1.22-3.56-3.12-4.06-5.72c-0.49-2.59-0.89-4.76-1.2-6.51
	c-0.3-1.75-0.46-7.62-0.46-17.6c0.15-9.6,1.49-22.82,4-39.65c1.9-11.05,3.54-19.04,4.91-24c0.61-2.36,1.83-3.54,3.66-3.54
	c2.13,0,5.03,0.95,8.69,2.86c2.29,1.14,3.66,2.97,4.11,5.48c0.3,1.68,0.46,10.06,0.46,25.14c0,15.09-0.76,33.79-2.29,56.11
	c4.57-0.84,8.17-1.47,10.8-1.89c2.63-0.42,4.89-0.82,6.8-1.2c1.6-0.3,2.93-0.46,4-0.46s2.67,0.27,4.8,0.8
	C323.81,659.27,324.88,660.38,324.88,662.05z M462.81,615.88c0,1.22-2.1,2.95-6.29,5.2s-11.35,4.06-21.48,5.43
	c-2.06,7.39-4.5,13.03-7.32,16.91c-2.82,3.88-6.42,6.82-10.8,8.8c-4.38,1.98-8.86,2.97-13.43,2.97c-7.24,0-13.03-0.67-17.37-2
	s-7.68-3.62-10-6.86c-1.14-1.59-2-3.41-2.58-5.45c-2.91,2.99-5.82,5.58-8.74,7.74c-5.6,4.15-11.37,6.23-17.31,6.23
	c-21.26,0-31.88-8.04-31.88-24.11c0-5.1,0.69-10.49,2.06-16.17c1.37-5.67,4.06-10.24,8.06-13.71c4-3.47,8.97-5.2,14.91-5.2
	c3.2,0,7.12,0.61,11.77,1.83c8.68,2.44,13.03,6.44,13.03,12c0,2.74-0.84,5.37-2.51,7.89c-4.27,6.63-12,10.36-23.2,11.2
	c0,7.31,0.69,12.34,2.06,15.08s2.74,4.11,4.11,4.11c1.75,0,4.7-1.08,8.85-3.26c4.15-2.17,8.38-5.41,12.69-9.71
	c2.07-2.07,3.95-4.02,5.64-5.84c1.07-5.78,4.12-10.6,9.16-14.45c-1.98-3.28-2.97-6.97-2.97-11.09c0-2.36,0.65-5.18,1.95-8.46
	c1.29-3.28,3.52-6.21,6.69-8.8c3.16-2.59,7.48-3.89,12.97-3.89c5.33,0,10.19,0.69,14.57,2.06s8.36,4.29,11.94,8.74
	c3.58,4.46,5.84,8.67,6.8,12.63c0.95,3.96,1.5,7.66,1.66,11.09c4.72-0.99,8.59-2.25,11.6-3.77s4.86-2.29,5.54-2.29
	c2.51,0,4.78,0.48,6.8,1.43C461.8,613.12,462.81,614.36,462.81,615.88z M340.07,621.82c5.56-1.14,9.22-2.91,10.97-5.31
	s2.63-4.55,2.63-6.46c-0.08-1.98-1.03-3.85-2.86-5.6C345.1,608.34,341.52,614.13,340.07,621.82z M414.24,625.25l-2.86,0.11
	c-4.95,0-9.6-1.14-13.94-3.43c-0.91,4.5-1.37,8.27-1.37,11.31c0,1.14,0.13,2.84,0.4,5.09s1.58,4.06,3.94,5.43
	C407.42,641.71,412.03,635.54,414.24,625.25z M416.3,611.65c0-2.97-0.48-6.32-1.43-10.06s-3.26-6.93-6.91-9.6
	c-2.44,0.46-4.3,1.64-5.6,3.54c-1.67,2.44-2.51,5.37-2.51,8.8c0,1.98,0.65,4.3,1.94,6.97c1.3,2.67,3.07,4.44,5.32,5.32
	s5.16,1.35,8.74,1.43C416.14,615.85,416.3,613.71,416.3,611.65z"/>
</svg>
