<?xml version="1.0" encoding="utf-8"?>
<!-- Generator: Adobe Illustrator 26.3.1, SVG Export Plug-In . SVG Version: 6.00 Build 0)  -->
<svg version="1.1" id="Layer_1" xmlns="http://www.w3.org/2000/svg" xmlns:xlink="http://www.w3.org/1999/xlink" x="0px" y="0px"
	 viewBox="0 0 552.81 864" style="enable-background:new 0 0 552.81 864;" xml:space="preserve">
<path d="M435.02,402.05l-50.71,186.33l-8.76-2.38l50.43-186.41L435.02,402.05z M410.18,288.22L284.91,146.2l-7.22,6.49L403.5,294.15
	L410.18,288.22z M83.33,239.13l7.05,6.21l89.34-96.53l-6.79-6.25L83.33,239.13z"/>
<path d="M63.23,269.11c7.84,10.54,15.51,20.84,23.17,31.14c-0.07,0.07-0.13,0.14-0.2,0.2c-10.08-7.9-20.16-15.81-30.53-23.94
	c-3.34,12.66-6.62,25.08-9.9,37.49c-0.09-0.01-0.19-0.02-0.28-0.02c-0.1-12.82-0.21-25.65-0.31-38.81
	c-12.1,5.34-23.93,10.55-35.76,15.77c-0.04-0.06-0.07-0.11-0.11-0.17c10.03-8.13,20.06-16.26,30.36-24.61
	c-11.63-6.08-23.01-12.04-34.4-18c0.03-0.09,0.06-0.18,0.08-0.28c12.53,2.75,25.07,5.51,37.94,8.34
	c-2.48-12.85-4.92-25.44-7.35-38.03c0.09-0.03,0.19-0.05,0.28-0.08c5.65,11.49,11.29,22.97,17.08,34.76
	c8.56-10.02,16.88-19.77,25.21-29.52c0.08,0.05,0.17,0.09,0.25,0.14C73.29,235.1,67.81,246.7,62.2,258.6
	c12.99,0.44,25.72,0.86,38.46,1.29c0.02,0.11,0.04,0.23,0.05,0.34C88.33,263.16,75.95,266.1,63.23,269.11z"/>
<path d="M326.94,129.55c-25.54-0.75-51.08-1.49-77.34-2.26c9.63,24.28,19.08,48.08,28.52,71.89c-0.16,0.1-0.32,0.2-0.49,0.3
	c-15.35-20.46-30.7-40.91-46.46-61.91c-13.1,22.89-25.91,45.27-38.72,67.66c-0.13-0.05-0.25-0.09-0.38-0.14
	c6.47-24.92,12.94-49.85,19.58-75.44c-25.87,4.01-51.19,7.93-76.51,11.85c-0.06-0.18-0.13-0.36-0.19-0.54
	c23.37-10.42,46.75-20.84,70.75-31.55c-19.21-17.69-38.01-35.01-56.82-52.32c0.12-0.15,0.24-0.31,0.36-0.46
	c22.64,11.73,45.28,23.48,68.54,35.54c1.87-26.21,3.68-51.72,5.5-77.22c0.19-0.03,0.38-0.05,0.57-0.08
	c4.96,25.11,9.92,50.22,15,75.95c21.36-14.68,42.3-29.07,63.25-43.47c0.16,0.16,0.33,0.33,0.49,0.49
	c-16.39,19.37-32.79,38.73-49.63,58.63c25.06,7.62,49.56,15.07,74.06,22.52C326.99,129.18,326.97,129.36,326.94,129.55z"/>
<path d="M526.17,379.31c-25.1-4.79-50.19-9.58-76.01-14.51c5.66,25.5,11.2,50.5,16.75,75.5c-0.18,0.07-0.35,0.15-0.53,0.22
	c-11.91-22.63-23.82-45.27-36.04-68.49c-16.57,20.52-32.77,40.59-48.97,60.65c-0.12-0.07-0.23-0.13-0.35-0.2
	c10.34-23.58,20.69-47.16,31.31-71.37c-26.17-0.15-51.8-0.3-77.42-0.45c-0.04-0.19-0.07-0.38-0.11-0.57
	c24.73-6.58,49.47-13.16,74.86-19.92c-16.16-20.51-31.98-40.6-47.8-60.68c0.14-0.13,0.28-0.27,0.43-0.4
	c20.5,15.2,41,30.39,62.05,45.99c6-25.58,11.84-50.48,17.68-75.37c0.19,0,0.38,0.01,0.57,0.01c0.91,25.58,1.82,51.16,2.75,77.37
	c23.42-11.1,46.38-21.99,69.35-32.88c0.14,0.19,0.27,0.37,0.41,0.56c-19.26,16.52-38.52,33.04-58.3,50.01
	c23.53,11.5,46.54,22.75,69.54,33.99C526.28,378.95,526.23,379.13,526.17,379.31z"/>
<path d="M401.91,628.36c-7.84,2.82-15.78,5.28-23.39,8.5c-9.89,4.19-16.54,11.87-20.06,21.92c-2.53,7.22-4.27,14.71-6.34,22.08
	c-0.39,1.4-0.65,2.83-1.61,4.18c-1.18-4.95-2.23-9.93-3.56-14.83c-3.34-12.35-7.6-24.4-19.64-30.94
	c-6.78-3.68-14.36-5.89-21.62-8.66c-1.98-0.76-4.1-1.14-6.99-1.92c1.57-0.55,2.4-0.89,3.26-1.14c3.13-0.93,6.25-1.92,9.41-2.73
	c18.69-4.8,30.34-16.5,34.87-35.29c1.41-5.85,2.88-11.68,4.59-18.61c1.1,4.67,1.8,8.41,2.87,12.04c1.7,5.78,3.36,11.61,5.56,17.2
	c4.44,11.26,13.04,18.29,24.22,22.27C389.6,624.61,395.85,626.42,401.91,628.36z"/>
<path d="M194.81,824.51c0,0.77-0.81,1.29-2.44,1.56s-5.65,0.87-12.06,1.79s-15.19,2.78-26.34,5.56c-1.68,1.7-3.55,2.55-5.63,2.55
	c-2.57,0-7.55-1.51-14.95-4.52c-2.86-1.23-4.61-3.16-5.25-5.79c-0.64-2.62-1.16-4.83-1.56-6.6c-0.39-1.77-0.59-7.72-0.59-17.83
	c0.2-9.72,1.93-23.11,5.18-40.18c2.47-11.19,4.59-19.3,6.37-24.31c0.79-2.39,2.37-3.59,4.74-3.59c2.76,0,6.51,0.97,11.25,2.9
	c2.96,1.16,4.74,3.01,5.33,5.56c0.4,1.7,0.59,10.19,0.59,25.47c0,15.28-0.99,34.23-2.96,56.85c5.92-0.85,10.58-1.49,13.99-1.91
	c3.4-0.42,6.34-0.82,8.8-1.21c2.07-0.31,3.8-0.47,5.18-0.47c1.38,0,3.45,0.27,6.21,0.81C193.43,821.69,194.81,822.82,194.81,824.51z
	 M212.93,759.96c4.19,0.81,8.26,1.26,12.21,1.33c1.87,0,3.43-0.54,4.66-1.62c1.23-1.08,2.17-2.62,2.81-4.63s0.96-3.98,0.96-5.91
	c0-6.56-5.92-9.84-17.76-9.84c-2.76,0-4.95,0.29-6.58,0.87s-2.89,1.74-3.77,3.47c-0.89,1.74-1.33,3.65-1.33,5.73
	c0,2.94,0.42,5.23,1.26,6.89C206.22,757.92,208.74,759.15,212.93,759.96z M534.6,783.41c0,1.39-0.89,3.7-2.66,6.95
	c-1.78,3.24-4.46,7.64-8.07,13.2s-7.18,9.88-10.73,12.97c-3.55,3.09-7.55,4.63-11.99,4.63c-8.49,0-14.9-2.43-19.24-7.29
	c-2.76-3.01-4.29-10.34-4.59-22c-7.99,11.11-15.78,16.67-23.38,16.67c-6.39,0-11.6-0.66-15.62-1.97c-1.48,2.51-3.44,5.9-5.91,10.19
	c-3.89,6.79-8.53,12.72-13.91,17.78c-5.38,5.05-10.19,7.62-14.43,7.7c-6.31,0-12.68-1.12-19.09-3.36s-10.41-4.9-11.99-7.99
	c-1.58-3.09-2.42-7.68-2.52-13.78c0-8.88,2.81-23.31,8.44-43.31l-6.51,0.12c-5.42,8.64-10.33,15.03-14.72,19.16
	c-4.39,4.13-9.74,8.4-16.06,12.79c-5.33,10.5-9.15,16.73-11.47,18.7c-2.32,1.97-4.91,2.95-7.77,2.95c-6.32,0-14.11-1.81-23.38-5.45
	c-1.09,3.01-2.25,5.35-3.48,7.01c-1.24,1.66-3.28,2.49-6.14,2.49c-1.18,0-2.74-0.21-4.66-0.64s-4.07-0.83-6.44-1.22
	c-8.19-1.23-13.02-4.79-14.5-10.65c-1.09-4.53-1.98-8.97-2.69-13.32c-1.78,3.16-3.57,6.17-5.37,8.97
	c-3.21,4.98-7.25,9.01-12.13,12.1c-4.88,3.09-9.69,4.63-14.43,4.63c-4.14,0-7.9-0.39-11.25-1.16c-7.31-1.7-13.17-4.05-17.61-7.06
	c-2.37-1.7-3.95-6.21-4.74-13.55c-0.3-2.55-0.45-5.09-0.45-7.64c0-8.88,1.82-18.99,5.47-30.34c0.89-2.78,3.01-4.17,6.37-4.17
	c3.16,0,8.04,0.73,14.65,2.2c4.05,0.85,6.07,2.86,6.07,6.02c0,3.63-0.44,10.07-1.33,19.34c-0.29,2.93-0.44,5.87-0.44,8.8
	c0,10.58,0.69,17.37,2.07,20.38c10.16-3.78,20.37-16.1,30.64-36.94c0.17-0.36,0.34-0.68,0.52-0.98c-0.05-1.46-0.07-2.91-0.07-4.34
	c0-13.82,1.43-26.18,4.29-37.11c2.86-10.92,4.64-17.37,5.33-19.34c0.69-1.97,2.41-2.95,5.18-2.95c7.1,0.08,12.51,0.66,16.2,1.74
	c3.7,1.08,5.55,2.36,5.55,3.82c0,2.24-0.45,6.79-1.33,13.66c-2.27,16.67-3.4,31.61-3.4,44.81l0.15,11.7
	c7.89-11.42,14.01-18.43,18.35-21.02c4.34-2.58,7.99-3.88,10.95-3.88c5.82,0,10.36,0.64,13.61,1.91c3.25,1.27,5.57,2.95,6.96,5.04
	c1.38,2.08,2.22,5.17,2.52,9.27c6.41-4.94,11.74-10.46,15.98-16.56c-3.55-0.46-6.86-1.1-9.91-1.91c-3.06-0.81-6.19-2.31-9.4-4.52
	c-3.21-2.2-4.81-4.76-4.81-7.7c0-2.47,0.89-4.82,2.67-7.06c1.77-2.24,4.19-4.07,7.25-5.5s6.17-2.15,9.33-2.15
	c6.31,0,11.37,0.78,15.17,2.32c3.8,1.54,5.92,3.59,6.36,6.13c0.45,2.55,0.67,4.63,0.67,6.25l-0.3,6.13c7,0.85,12.48,1.79,16.43,2.84
	c3.94,1.04,6.98,2.72,9.1,5.04c2.12,2.31,3.18,5.21,3.18,8.68c-0.1,4.86-0.69,10.79-1.77,17.77c-1.09,6.99-1.63,13.53-1.63,19.63
	c0,4.79,0.64,7.18,1.93,7.18c1.08,0,2.37-0.5,3.84-1.51c1.48-1,6.36-6.95,14.65-17.83c2.34-3.5,4.5-6.47,6.47-8.92
	c-0.36-1.18-0.56-2.44-0.56-3.82c0-6.48,2.02-13.08,6.07-19.8c4.04-6.72,9.37-11.79,15.99-15.23c6.61-3.43,12.43-5.15,17.46-5.15
	c6.11,0,12.97,0.89,20.57,2.66c3.06,0.78,4.59,2.36,4.59,4.75c2.37,0.47,4.22,0.95,5.55,1.45s2.34,1.82,3.03,3.94
	s1.04,5.81,1.04,11.06c-0.1,5.33-0.42,11.64-0.96,18.93c-0.54,7.29-0.81,12.22-0.81,14.76c2.07-0.69,5.13-3.32,9.17-7.87
	s7.59-9.07,10.66-13.55c2.07-3.16,3.65-5.46,4.74-6.89c1.09-1.43,2.02-2.14,2.81-2.14c0.59,0,1.85,0.14,3.77,0.4
	C533.64,781.77,534.6,782.4,534.6,783.41z M317.34,786.88c-4.93,3.16-8.49,6.64-10.66,10.42c-2.17,3.78-3.9,9.92-5.18,18.41
	c6.11-4.79,10.16-9.32,12.13-13.61C315.61,797.82,316.85,792.75,317.34,786.88z M365.59,757.24c0-2.39-0.45-4.82-1.33-7.29
	c-5.13,2.31-7.69,5.56-7.69,9.72c0,2.39,0.84,4.01,2.52,4.86c0.98,0.62,2.56,0.97,4.74,1.04C365,762.88,365.59,760.09,365.59,757.24
	z M484.43,763.61c-7.1,0.69-13.1,3.51-17.98,8.45s-7.33,11.27-7.33,18.99C472.74,782.33,481.17,773.18,484.43,763.61z"/>
</svg>
