<?xml version="1.0" encoding="utf-8"?>
<!-- Generator: Adobe Illustrator 26.3.1, SVG Export Plug-In . SVG Version: 6.00 Build 0)  -->
<svg version="1.1" id="Layer_1" xmlns="http://www.w3.org/2000/svg" xmlns:xlink="http://www.w3.org/1999/xlink" x="0px" y="0px"
	 viewBox="0 0 789.58 864" style="enable-background:new 0 0 789.58 864;" xml:space="preserve">
<path d="M170.01,323.99l7.11,2.12l-20.47,69.29l-7.18-2.59L170.01,323.99z M130.21,454.62l-19,63.88l7.27,2.23l19.03-63.94
	L130.21,454.62z M195.17,251.16l5.73,4.8l42.04-49.94l-5.93-4.85L195.17,251.16z M327.25,467.61l1.09,7.37l57.97-8.53l-1.11-7.47
	L327.25,467.61z M727.43,490.01l-39.09,10.66l1.97,7.18l39.09-10.64L727.43,490.01z M504.37,495.7l6.3,38.39l7.24-1.19l-6.07-38.43
	L504.37,495.7z M189.33,551.91l6.22,4.2l21.94-32.25l-6.19-4.17L189.33,551.91z M545.66,438.27l3.46,6.69l31.5-17.99l-3.7-6.55
	L545.66,438.27z M437.12,466.5l30.04,2.35l0.42-7.25l-29.86-2.61L437.12,466.5z M217.22,65.13l-6.16-6.09l-19,18.88l6.32,6.52
	L217.22,65.13z M133.3,559.68l21.94,8.27l2.36-7.22l-21.99-7.57L133.3,559.68z M224.57,153.14l15.09,16.87l5.4-4.78l-15.03-17.24
	L224.57,153.14z"/>
<path d="M354.86,738.36c-0.63-1.71-0.93-4.09-0.93-7.13c0-2.16,0.33-4.14,0.99-5.93c0.66-1.8,1.59-3,2.8-3.59
	c1.21-0.6,2.84-0.9,4.89-0.9c8.79,0,13.18,3.4,13.18,10.18c0,2-0.24,4.03-0.71,6.11c-0.48,2.08-1.17,3.68-2.09,4.79
	c-0.92,1.12-2.07,1.68-3.46,1.68c-2.93-0.08-5.95-0.54-9.06-1.38C357.35,741.35,355.48,740.08,354.86,738.36z M634.23,772.69
	c0,1.04-2.4,2.2-7.2,3.48c-4.8,1.28-9.61,2.96-14.44,5.03c-4.83,2.08-9.92,5.11-15.27,9.11c4.25,5.99,7.47,10.73,9.67,14.2
	c2.19,3.47,3.64,6.63,4.34,9.46c0.69,2.83,1.04,5.33,1.04,7.49c0,5.19-1.94,8.99-5.82,11.38c-3.88,2.4-8.97,3.59-15.27,3.59
	c-4.91,0-9.12-0.4-12.63-1.2c-3.15-0.72-6.86-2.52-11.15-5.39c-4.28-2.87-6.43-6.47-6.43-10.78c0.15-10.14,5.42-18.89,15.82-26.24
	c-4.43-5.53-7.9-10.31-10.44-14.38c-5.01,6.89-10.04,12.4-15.09,16.48c-5.38,4.35-10.93,6.53-16.64,6.53
	c-13.15,0-22.06-3.5-26.75-10.48c-9.66,10.91-19.71,16.44-30.15,16.59c-7.54-0.08-13.93-1.58-19.17-4.49
	c-5.23-2.91-8.75-6.83-10.54-11.74c-1-2.74-1.73-6.2-2.19-10.33c-0.17,0.07-0.33,0.13-0.5,0.2c-4.83,2.08-9.92,5.11-15.27,9.11
	c4.25,5.99,7.47,10.73,9.67,14.2c2.19,3.47,3.64,6.63,4.34,9.46c0.69,2.83,1.04,5.33,1.04,7.49c0,5.19-1.94,8.99-5.82,11.38
	c-3.88,2.4-8.97,3.59-15.27,3.59c-4.91,0-9.12-0.4-12.63-1.2c-3.15-0.72-6.86-2.52-11.15-5.39c-4.28-2.87-6.43-6.47-6.43-10.78
	c0.15-10.14,5.42-18.89,15.82-26.24c-4.03-5.03-7.26-9.44-9.73-13.26c-0.24,0.67-0.49,1.38-0.76,2.12
	c-2.31,6.31-4.65,12.04-7.03,17.19s-5.38,9.33-9,12.52c-3.62,3.2-7.2,4.79-10.71,4.79c-3.07,0-5.86-0.4-8.34-1.2
	c-5.42-1.75-9.77-4.19-13.07-7.31c-1.76-1.76-2.93-6.43-3.51-14.02c-0.22-2.63-0.33-5.27-0.33-7.91c0-3.7,0.23-7.62,0.67-11.74
	c-5.47,0.51-8.67,0.82-9.57,0.96c-2.71,4.48-6.37,8.37-10.99,11.68c-4.61,3.32-9.37,4.97-14.28,4.97c-2.2,0-4.43-0.2-6.7-0.6
	c0.51,3.44,1.1,8.27,1.76,14.5s0.99,9.94,0.99,11.14c0,3.04-0.86,4.73-2.58,5.09c-1.72,0.36-3.02,0.54-3.9,0.54
	c-1.83,0-4.54-0.72-8.13-2.16s-5.71-3.08-6.37-4.91c-0.81-2.16-1.98-10.74-3.52-25.76c-0.8-7.67-1.21-15.37-1.21-23.12
	c0-7.35,0.56-16.64,1.7-27.86s2.07-18.03,2.8-20.43c0.44-1.52,1.1-2.28,1.97-2.28c6.59,0,10.29,2.72,11.09,8.15
	c0.51,3.52,1.1,9.71,1.76,18.57c3.73-9.9,7.47-16.62,11.2-20.13c3.74-3.52,7.47-5.31,11.21-5.39c5.71,0,10.43,2.18,14.17,6.53
	c3.74,4.35,5.64,9.57,5.71,15.64c0,11.18-1.32,20.45-3.95,27.8l7.8-0.3c0.63-3.93,1.43-8.02,2.41-12.28
	c0.66-2.87,2.23-4.31,4.72-4.31c2.34,0,5.97,0.76,10.87,2.28c3,0.88,4.5,2.96,4.5,6.23c0,3.75-0.33,10.42-0.99,20.01
	c-0.22,3.04-0.33,6.07-0.33,9.11c0,10.94,0.51,17.97,1.54,21.09c7.54-3.92,15.12-16.66,22.73-38.22c0.12-0.38,0.25-0.71,0.39-1.02
	c-1.13-3.04-1.7-5.9-1.7-8.57c0-6.39,1.08-11.56,3.24-15.52c2.16-3.95,4.61-6.75,7.36-8.39s5.44-2.5,8.07-2.58
	c5.93,0,13.03,1.56,21.31,4.67c1.46,0.56,2.91,1.66,4.34,3.29c1.43,1.64,2.14,3.54,2.14,5.69c0,2.72-1.21,4.07-3.62,4.07
	c-2.93,0-5.09-1.36-6.48-4.07s-3.23-4.07-5.49-4.07c-1.75,0-3.57,1.7-5.44,5.09s-2.84,8.05-2.91,13.96c0,2.64,0.95,5.71,2.85,9.23
	c1.9,3.52,4.06,7.07,6.48,10.66c8.19-5.01,15.01-8.55,20.47-10.66c-0.02-0.79-0.04-1.58-0.05-2.4c0-4.79,1.19-10.1,3.57-15.94
	c2.38-5.83,5.77-10.36,10.16-13.6s9.3-4.89,14.72-4.97c3.37,0,8.9,1.44,16.58,4.31c2.64,1.04,3.95,3.32,3.95,6.83
	c0,1.44-0.37,2.8-1.1,4.07c-0.58,0.96-1.46,1.44-2.63,1.44c-3.88,0-6.01-1.48-6.37-4.43c-0.07-1.36-0.51-2.52-1.32-3.48
	c-2.2,0-4.41,1.38-6.64,4.13c-2.24,2.76-4.01,5.77-5.33,9.04c-1.54,3.76-2.31,9.35-2.31,16.77c0,3.92,0.29,7.73,0.88,11.45
	c0.58,3.71,2.09,7.09,4.5,10.12c6.66-0.64,12.81-3.27,18.45-7.91c3.56-2.93,7.45-6.45,11.66-10.57c-0.01-0.35-0.02-0.7-0.02-1.05
	c0-5.35,0.66-11,1.97-16.96c1.32-5.95,3.9-10.74,7.74-14.38c3.84-3.63,8.62-5.45,14.34-5.45c3.07,0,6.84,0.64,11.31,1.92
	c8.35,2.56,12.52,6.75,12.52,12.58c0,2.88-0.81,5.63-2.42,8.27c-4.1,6.95-11.53,10.86-22.3,11.74c0,7.67,0.66,12.94,1.97,15.82
	c1.32,2.88,2.64,4.31,3.96,4.31c1.68,0,4.52-1.14,8.51-3.42c3.99-2.28,8.05-5.67,12.19-10.18c3.32-3.63,6.13-6.89,8.44-9.79
	c-1.42-3.46-2.13-6.69-2.13-9.68c0-6.39,1.08-11.56,3.24-15.52c2.16-3.95,4.61-6.75,7.36-8.39s5.44-2.5,8.07-2.58
	c5.93,0,13.03,1.56,21.31,4.67c1.46,0.56,2.91,1.66,4.34,3.29c1.43,1.64,2.14,3.54,2.14,5.69c0,2.72-1.21,4.07-3.62,4.07
	c-2.93,0-5.09-1.36-6.48-4.07c-1.39-2.71-3.23-4.07-5.49-4.07c-1.75,0-3.57,1.7-5.44,5.09s-2.84,8.05-2.91,13.96
	c0,2.64,0.95,5.71,2.85,9.23c1.9,3.52,4.06,7.07,6.48,10.66c8.49-5.19,15.52-8.83,21.09-10.9c5.86-2.16,9.99-3.24,12.41-3.24
	c1.46,0,3.28,0.42,5.44,1.26C633.14,770.95,634.23,771.81,634.23,772.69z M527.58,766.82c5.35-1.2,8.86-3.06,10.55-5.57
	c1.68-2.52,2.53-4.77,2.53-6.77c-0.07-2.08-0.99-4.03-2.75-5.87C532.41,752.68,528.97,758.75,527.58,766.82z M328.67,743.33
	c0-5.43-0.73-11.54-2.19-18.33c-7.03,6.39-12.16,13.42-15.38,21.09c-3.08,7.35-4.65,18.25-4.72,32.71c1.83-3.27,4.08-5.83,6.76-7.67
	c2.67-1.84,5.98-3.15,9.94-3.95C326.8,759.27,328.67,751.32,328.67,743.33z M420.38,815.22c0-3.11-1.36-7.27-4.06-12.46
	c-4.76,4.87-7.14,10.78-7.14,17.73c0,1.44,0.33,2.78,0.99,4.01c0.66,1.24,1.76,1.9,3.29,1.98c2.2,0,3.88-0.84,5.05-2.52
	C419.68,822.29,420.31,819.37,420.38,815.22z M587.54,815.22c0-3.11-1.36-7.27-4.06-12.46c-4.76,4.87-7.14,10.78-7.14,17.73
	c0,1.44,0.33,2.78,0.99,4.01c0.66,1.24,1.76,1.9,3.29,1.98c2.2,0,3.88-0.84,5.05-2.52C586.85,822.29,587.47,819.37,587.54,815.22z"
	/>
<path d="M253.6,311.15c-20.57-3.93-41.14-7.85-62.29-11.89c4.64,20.9,9.18,41.39,13.73,61.88c-0.14,0.06-0.29,0.12-0.43,0.18
	c-9.76-18.55-19.52-37.1-29.54-56.14c-13.58,16.82-26.86,33.27-40.14,49.71c-0.1-0.05-0.19-0.11-0.29-0.16
	c8.48-19.33,16.95-38.65,25.66-58.5c-21.45-0.12-42.45-0.24-63.45-0.36c-0.03-0.15-0.06-0.31-0.09-0.46
	c20.27-5.39,40.54-10.79,61.36-16.32c-13.24-16.81-26.21-33.27-39.17-49.73c0.12-0.11,0.23-0.22,0.35-0.33
	c16.8,12.43,33.6,24.88,50.85,37.67c4.92-20.97,9.71-41.37,14.49-61.77c0.16,0,0.31,0,0.47,0.01c0.75,20.96,1.49,41.93,2.25,63.41
	c19.19-9.1,38.01-18.02,56.84-26.95c0.11,0.15,0.22,0.31,0.33,0.46c-15.78,13.54-31.57,27.08-47.79,40.99
	c19.29,9.43,38.14,18.64,57,27.86C253.69,310.86,253.65,311.01,253.6,311.15z"/>
<path d="M565.28,463.51c-16.81-3.21-33.62-6.42-50.91-9.72c3.79,17.08,7.5,33.83,11.22,50.58c-0.12,0.05-0.24,0.1-0.35,0.15
	c-7.98-15.16-15.96-30.32-24.14-45.88c-11.1,13.75-21.95,27.19-32.8,40.63c-0.08-0.04-0.16-0.09-0.23-0.13
	c6.93-15.8,13.86-31.59,20.97-47.81c-17.53-0.1-34.7-0.2-51.86-0.3c-0.02-0.13-0.05-0.25-0.07-0.38
	c16.57-4.41,33.14-8.82,50.15-13.34c-10.82-13.74-21.42-27.19-32.02-40.65c0.1-0.09,0.19-0.18,0.29-0.27
	c13.71,10.15,27.44,20.33,41.54,30.78c4.02-17.14,7.93-33.81,11.85-50.49c0.13,0,0.26,0,0.38,0.01c0.61,17.13,1.22,34.27,1.84,51.83
	c15.69-7.44,31.07-14.73,46.45-22.02c0.09,0.13,0.18,0.25,0.27,0.38c-12.9,11.07-25.8,22.13-39.06,33.5
	c15.76,7.71,31.18,15.24,46.59,22.77C565.35,463.27,565.32,463.39,565.28,463.51z"/>
<path d="M155.24,586.19c-16.81-3.21-33.62-6.42-50.91-9.72c3.79,17.08,7.5,33.83,11.22,50.58c-0.12,0.05-0.24,0.1-0.35,0.15
	c-7.98-15.16-15.96-30.32-24.14-45.88c-11.1,13.75-21.95,27.19-32.8,40.63c-0.08-0.04-0.16-0.09-0.23-0.13
	c6.93-15.8,13.86-31.59,20.97-47.81c-17.53-0.1-34.7-0.2-51.86-0.3c-0.02-0.13-0.05-0.25-0.07-0.38
	c16.57-4.41,33.14-8.82,50.15-13.34C66.4,546.25,55.8,532.8,45.2,519.34c0.1-0.09,0.19-0.18,0.29-0.27
	c13.71,10.15,27.44,20.33,41.54,30.78c4.02-17.14,7.93-33.81,11.85-50.49c0.13,0,0.26,0,0.38,0.01c0.61,17.13,1.22,34.27,1.84,51.83
	c15.69-7.44,31.07-14.73,46.45-22.02c0.09,0.13,0.18,0.25,0.27,0.38c-12.9,11.07-25.8,22.13-39.06,33.5
	c15.76,7.71,31.18,15.24,46.59,22.77C155.31,585.95,155.28,586.07,155.24,586.19z"/>
<path d="M709.66,486.95c-6.44,2.32-12.95,4.33-19.19,6.97c-8.11,3.44-13.56,9.73-16.44,17.97c-2.07,5.92-3.5,12.05-5.19,18.1
	c-0.32,1.14-0.53,2.32-1.32,3.42c-0.96-4.05-1.83-8.14-2.91-12.16c-2.73-10.12-6.23-20-16.1-25.36c-5.55-3.02-11.77-4.83-17.72-7.1
	c-1.62-0.62-3.36-0.93-5.73-1.57c1.28-0.45,1.97-0.73,2.67-0.94c2.57-0.76,5.12-1.57,7.72-2.24c15.32-3.93,24.87-13.53,28.58-28.92
	c1.15-4.79,2.36-9.57,3.77-15.25c0.9,3.83,1.47,6.89,2.35,9.86c1.4,4.74,2.75,9.51,4.56,14.1c3.64,9.23,10.69,14.99,19.85,18.26
	C699.57,483.88,704.7,485.36,709.66,486.95z"/>
<path d="M166.67,414.99c-6.45,2.32-12.95,4.33-19.19,6.97c-8.11,3.44-13.56,9.73-16.44,17.97c-2.07,5.92-3.5,12.05-5.19,18.1
	c-0.32,1.14-0.53,2.32-1.32,3.42c-0.96-4.05-1.83-8.14-2.91-12.16c-2.73-10.12-6.23-20-16.1-25.36c-5.55-3.02-11.77-4.83-17.72-7.1
	c-1.62-0.62-3.36-0.93-5.73-1.57c1.28-0.45,1.97-0.73,2.67-0.94c2.57-0.76,5.12-1.57,7.72-2.24c15.32-3.93,24.87-13.53,28.58-28.92
	c1.15-4.79,2.36-9.57,3.77-15.25c0.9,3.83,1.47,6.89,2.35,9.86c1.4,4.74,2.75,9.51,4.56,14.1c3.64,9.23,10.69,14.99,19.85,18.26
	C156.58,411.92,161.71,413.4,166.67,414.99z"/>
<path d="M442.33,437.99c-6.45,2.32-12.96,4.33-19.19,6.97c-8.11,3.44-13.56,9.73-16.44,17.97c-2.07,5.92-3.5,12.05-5.19,18.1
	c-0.32,1.14-0.53,2.32-1.32,3.42c-0.96-4.05-1.83-8.14-2.91-12.16c-2.73-10.12-6.23-20-16.1-25.36c-5.55-3.02-11.77-4.83-17.72-7.1
	c-1.62-0.62-3.36-0.93-5.73-1.57c1.28-0.45,1.97-0.73,2.67-0.94c2.57-0.76,5.12-1.57,7.72-2.24c15.32-3.93,24.87-13.53,28.58-28.92
	c1.15-4.79,2.36-9.57,3.77-15.25c0.9,3.83,1.47,6.89,2.35,9.86c1.4,4.74,2.75,9.51,4.56,14.1c3.64,9.23,10.69,14.99,19.85,18.26
	C432.24,434.92,437.37,436.4,442.33,437.99z"/>
<path d="M249.79,489.03c-4.58,1.63-9.21,3.06-13.65,4.95c-5.77,2.45-9.65,6.93-11.7,12.79c-1.47,4.21-2.49,8.58-3.7,12.89
	c-0.23,0.81-0.38,1.65-0.94,2.44c-0.69-2.89-1.3-5.79-2.07-8.66c-1.95-7.2-4.44-14.24-11.46-18.05c-3.95-2.15-8.38-3.44-12.62-5.05
	c-1.16-0.44-2.4-0.67-4.08-1.12c0.91-0.32,1.4-0.52,1.9-0.67c1.83-0.54,3.65-1.12,5.49-1.59c10.9-2.8,17.71-9.63,20.35-20.59
	c0.82-3.41,1.68-6.82,2.68-10.86c0.64,2.73,1.05,4.91,1.67,7.02c0.99,3.37,1.96,6.77,3.25,10.04c2.59,6.57,7.61,10.67,14.13,13
	C242.61,486.84,246.26,487.9,249.79,489.03z"/>
<path d="M228.23,128.59c-3.77,1.35-7.59,2.53-11.25,4.08c-4.76,2.02-7.96,5.71-9.65,10.54c-1.21,3.47-2.05,7.07-3.05,10.62
	c-0.19,0.67-0.31,1.36-0.78,2.01c-0.57-2.38-1.07-4.77-1.71-7.13c-1.6-5.94-3.66-11.74-9.45-14.88c-3.26-1.77-6.91-2.83-10.4-4.16
	c-0.95-0.36-1.97-0.55-3.36-0.92c0.75-0.27,1.15-0.43,1.57-0.55c1.51-0.45,3.01-0.92,4.53-1.31c8.99-2.31,14.59-7.94,16.77-16.97
	c0.68-2.81,1.39-5.62,2.21-8.95c0.53,2.25,0.86,4.04,1.38,5.79c0.82,2.78,1.61,5.58,2.68,8.27c2.14,5.41,6.27,8.79,11.65,10.71
	C222.31,126.79,225.32,127.66,228.23,128.59z"/>
<path d="M259.63,41.66c-3.77,1.35-7.59,2.53-11.25,4.08c-4.76,2.02-7.96,5.71-9.65,10.54c-1.21,3.47-2.05,7.07-3.05,10.62
	c-0.19,0.67-0.31,1.36-0.78,2.01c-0.57-2.38-1.07-4.77-1.71-7.13c-1.6-5.94-3.66-11.74-9.45-14.88c-3.26-1.77-6.91-2.83-10.4-4.16
	c-0.95-0.36-1.97-0.55-3.36-0.92c0.75-0.27,1.15-0.43,1.57-0.55c1.51-0.45,3.01-0.92,4.53-1.31c8.99-2.31,14.59-7.94,16.77-16.97
	c0.68-2.81,1.39-5.62,2.21-8.95c0.53,2.25,0.86,4.04,1.38,5.79c0.82,2.78,1.61,5.58,2.68,8.27c2.14,5.41,6.27,8.79,11.65,10.71
	C253.71,39.86,256.72,40.73,259.63,41.66z"/>
<path d="M616.01,412.38c-3.77,1.35-7.59,2.53-11.25,4.08c-4.76,2.02-7.96,5.71-9.65,10.54c-1.21,3.47-2.05,7.07-3.05,10.62
	c-0.19,0.67-0.31,1.36-0.78,2.01c-0.57-2.38-1.07-4.77-1.71-7.13c-1.6-5.94-3.66-11.74-9.45-14.88c-3.26-1.77-6.91-2.83-10.4-4.16
	c-0.95-0.36-1.97-0.55-3.36-0.92c0.75-0.27,1.15-0.43,1.57-0.55c1.51-0.45,3.01-0.92,4.53-1.31c8.99-2.31,14.59-7.94,16.77-16.97
	c0.68-2.81,1.39-5.62,2.21-8.95c0.53,2.25,0.86,4.04,1.38,5.79c0.82,2.78,1.61,5.58,2.68,8.27c2.14,5.41,6.27,8.79,11.65,10.71
	C610.09,410.58,613.1,411.45,616.01,412.38z"/>
<path d="M341.78,491.25c-12.5-2.39-25-4.77-37.86-7.23c2.82,12.7,5.58,25.15,8.34,37.61c-0.09,0.04-0.17,0.07-0.26,0.11
	c-5.93-11.27-11.86-22.55-17.95-34.12c-8.25,10.22-16.32,20.22-24.39,30.21c-0.06-0.03-0.12-0.07-0.17-0.1
	c5.15-11.74,10.3-23.49,15.59-35.55c-13.04-0.07-25.8-0.15-38.56-0.22c-0.02-0.09-0.04-0.19-0.05-0.28
	c12.32-3.28,24.64-6.55,37.29-9.92c-8.05-10.22-15.93-20.22-23.81-30.22c0.07-0.07,0.14-0.13,0.21-0.2
	c10.19,7.57,20.4,15.14,30.89,22.91c2.99-12.74,5.9-25.14,8.81-37.54c0.1,0,0.19,0,0.29,0c0.45,12.74,0.91,25.48,1.37,38.53
	c11.66-5.53,23.1-10.95,34.54-16.38c0.07,0.09,0.14,0.19,0.2,0.28c-9.59,8.23-19.19,16.46-29.04,24.91
	c11.72,5.73,23.18,11.33,34.64,16.93C341.83,491.07,341.8,491.16,341.78,491.25z"/>
<path d="M331.04,201.77c-12.5-2.39-25-4.77-37.86-7.23c2.82,12.7,5.58,25.15,8.34,37.61c-0.09,0.04-0.17,0.07-0.26,0.11
	c-5.93-11.27-11.86-22.55-17.95-34.12c-8.25,10.22-16.32,20.22-24.39,30.21c-0.06-0.03-0.12-0.07-0.17-0.1
	c5.15-11.74,10.3-23.49,15.59-35.55c-13.04-0.07-25.8-0.15-38.56-0.22c-0.02-0.09-0.04-0.19-0.05-0.28
	c12.32-3.28,24.64-6.55,37.29-9.92c-8.05-10.22-15.93-20.22-23.81-30.22c0.07-0.07,0.14-0.13,0.21-0.2
	c10.2,7.57,20.4,15.14,30.89,22.91c2.99-12.74,5.9-25.14,8.81-37.54c0.1,0,0.19,0,0.29,0c0.45,12.74,0.91,25.48,1.37,38.53
	c11.66-5.53,23.1-10.95,34.54-16.38c0.07,0.09,0.14,0.19,0.2,0.28c-9.59,8.23-19.19,16.46-29.04,24.91
	c11.72,5.73,23.18,11.33,34.64,16.93C331.09,201.59,331.06,201.68,331.04,201.77z"/>
<path d="M573.67,580.29c-12.5-2.39-25-4.77-37.86-7.23c2.82,12.7,5.58,25.15,8.34,37.61c-0.09,0.04-0.17,0.07-0.26,0.11
	c-5.93-11.27-11.86-22.55-17.95-34.12c-8.25,10.22-16.32,20.22-24.39,30.21c-0.06-0.03-0.12-0.07-0.17-0.1
	c5.15-11.74,10.3-23.49,15.59-35.55c-13.04-0.07-25.8-0.15-38.56-0.22c-0.02-0.09-0.04-0.19-0.05-0.28
	c12.32-3.28,24.64-6.55,37.29-9.92c-8.05-10.22-15.93-20.22-23.81-30.22c0.07-0.07,0.14-0.13,0.21-0.2
	c10.2,7.58,20.41,15.14,30.89,22.91c2.99-12.74,5.9-25.14,8.81-37.54c0.1,0,0.19,0,0.29,0c0.45,12.74,0.91,25.48,1.37,38.53
	c11.66-5.53,23.1-10.95,34.54-16.38c0.07,0.09,0.14,0.19,0.2,0.28c-9.59,8.23-19.19,16.46-29.04,24.91
	c11.72,5.73,23.18,11.33,34.64,16.93C573.72,580.11,573.69,580.2,573.67,580.29z"/>
<path d="M191.47,89.18c-3.77,1.35-7.59,2.53-11.25,4.08c-4.76,2.02-7.96,5.71-9.65,10.54c-1.21,3.47-2.05,7.07-3.05,10.62
	c-0.19,0.67-0.31,1.36-0.78,2.01c-0.57-2.38-1.07-4.77-1.71-7.13c-1.6-5.94-3.66-11.74-9.45-14.88c-3.26-1.77-6.91-2.83-10.4-4.16
	c-0.95-0.36-1.97-0.55-3.36-0.92c0.75-0.27,1.15-0.43,1.57-0.55c1.51-0.45,3.01-0.92,4.53-1.31c8.99-2.31,14.59-7.94,16.77-16.97
	c0.68-2.81,1.39-5.62,2.21-8.95c0.53,2.25,0.86,4.04,1.38,5.79c0.82,2.78,1.61,5.58,2.68,8.27c2.14,5.41,6.27,8.79,11.65,10.71
	C185.55,87.38,188.56,88.25,191.47,89.18z"/>
<path d="M776.91,476.98c-3.77,1.35-7.59,2.53-11.25,4.08c-4.76,2.02-7.96,5.71-9.65,10.54c-1.21,3.47-2.05,7.07-3.05,10.62
	c-0.19,0.67-0.31,1.36-0.78,2.01c-0.57-2.38-1.07-4.77-1.71-7.13c-1.6-5.94-3.66-11.74-9.45-14.88c-3.26-1.77-6.91-2.83-10.4-4.16
	c-0.95-0.36-1.97-0.55-3.36-0.92c0.75-0.27,1.15-0.43,1.57-0.55c1.51-0.45,3.01-0.92,4.53-1.31c8.99-2.31,14.59-7.94,16.77-16.97
	c0.68-2.81,1.39-5.62,2.21-8.95c0.53,2.25,0.86,4.04,1.38,5.79c0.82,2.78,1.61,5.58,2.68,8.27c2.14,5.41,6.27,8.79,11.65,10.71
	C770.99,475.18,774,476.05,776.91,476.98z"/>
<path d="M637.56,464.92c-3.77,1.34-7.59,2.52-11.25,4.08c-4.76,2.02-7.96,5.71-9.65,10.54c-1.21,3.47-2.05,7.07-3.05,10.62
	c-0.19,0.67-0.31,1.36-0.78,2.01c-0.57-2.38-1.07-4.77-1.71-7.13c-1.6-5.94-3.66-11.74-9.45-14.88c-3.26-1.77-6.91-2.83-10.4-4.16
	c-0.95-0.36-1.97-0.55-3.36-0.92c0.75-0.27,1.15-0.43,1.57-0.55c1.51-0.45,3.01-0.92,4.53-1.31c8.99-2.31,14.59-7.94,16.77-16.97
	c0.68-2.81,1.39-5.62,2.21-8.95c0.53,2.25,0.86,4.04,1.38,5.79c0.82,2.78,1.61,5.58,2.68,8.27c2.14,5.41,6.27,8.79,11.65,10.71
	C631.64,463.12,634.65,463.99,637.56,464.92z"/>
<path d="M612.74,601.06c-3.77,1.35-7.59,2.53-11.25,4.08c-4.76,2.02-7.96,5.71-9.65,10.54c-1.21,3.47-2.05,7.07-3.05,10.62
	c-0.19,0.67-0.31,1.36-0.78,2.01c-0.57-2.38-1.07-4.77-1.71-7.13c-1.6-5.94-3.66-11.74-9.45-14.88c-3.26-1.77-6.91-2.83-10.4-4.16
	c-0.95-0.36-1.97-0.55-3.36-0.92c0.75-0.27,1.15-0.43,1.57-0.55c1.51-0.45,3.01-0.92,4.53-1.31c8.99-2.31,14.59-7.94,16.77-16.97
	c0.68-2.81,1.39-5.62,2.21-8.95c0.53,2.25,0.86,4.04,1.38,5.79c0.82,2.78,1.61,5.58,2.68,8.27c2.14,5.41,6.27,8.79,11.65,10.71
	C606.82,599.26,609.83,600.13,612.74,601.06z"/>
<path d="M203.41,581.74c-3.77,1.35-7.59,2.53-11.25,4.08c-4.76,2.02-7.96,5.71-9.65,10.54c-1.21,3.47-2.05,7.07-3.05,10.62
	c-0.19,0.67-0.31,1.36-0.78,2.01c-0.57-2.38-1.07-4.77-1.71-7.13c-1.6-5.94-3.66-11.74-9.45-14.88c-3.26-1.77-6.91-2.83-10.4-4.16
	c-0.95-0.36-1.97-0.55-3.36-0.92c0.75-0.27,1.15-0.43,1.57-0.55c1.51-0.45,3.01-0.92,4.53-1.31c8.99-2.31,14.59-7.94,16.77-16.97
	c0.68-2.81,1.39-5.62,2.21-8.95c0.53,2.25,0.86,4.04,1.38,5.79c0.82,2.78,1.61,5.58,2.68,8.27c2.14,5.41,6.27,8.79,11.65,10.71
	C197.49,579.94,200.5,580.81,203.41,581.74z"/>
</svg>
