<?xml version="1.0" encoding="utf-8"?>
<!-- Generator: Adobe Illustrator 26.3.1, SVG Export Plug-In . SVG Version: 6.00 Build 0)  -->
<svg version="1.1" id="Layer_1" xmlns="http://www.w3.org/2000/svg" xmlns:xlink="http://www.w3.org/1999/xlink" x="0px" y="0px"
	 viewBox="0 0 799.43 864" style="enable-background:new 0 0 799.43 864;" xml:space="preserve">
<path d="M499.37,279.23l3.84,7.67L369.4,353.92l-3.8-7.6l1.74-0.88L499.37,279.23z M98.03,149.92l46.28,112.53l8.15-3.39
	l-46.74-112.33L98.03,149.92z M644.34,144.7l-5.47-4.95l-1.31,1.27c-30.01,29.09-53.31,54.67-73.31,80.51l-1.1,1.42l5.23,4.74
	L644.34,144.7z M221.96,336.8l71.92,22.23l2.49-8.09l-71.96-22.1L221.96,336.8z M584.99,467.12l8.74,1.73l12.85-67.9l-7.96-1.57
	L584.99,467.12z M77.31,389.5l7.09,5.16l34.07-51.03l-6.82-4.58L77.31,389.5z M604.9,344.9l-30.21-48.04l-7.2,4.53l30.25,48.01
	L604.9,344.9z M143.81,86.54l-4.2-7.23l-31.25,18.14l4.45,7.09L143.81,86.54z M579.32,553.03l16.75,31.39l7.82-3.6l-17.44-31.67
	L579.32,553.03z M85.15,460.34l19.29,22.89l6.23-5.26l-19.29-22.88L85.15,460.34z"/>
<path d="M101.97,445.63c-11.28-3.27-22.56-6.54-34.15-9.9c1.51,12.03,2.99,23.79,4.47,35.55c-0.08,0.02-0.17,0.05-0.25,0.07
	c-4.51-10.93-9.02-21.87-13.66-33.11c-8.44,8.66-16.72,17.14-24.99,25.63c-0.07-0.05-0.15-0.1-0.22-0.15
	c5.74-10.35,11.49-20.7,17.38-31.33c-12.15-1.21-24.03-2.4-35.91-3.58c0-0.06-0.01-0.12-0.01-0.19c11.75-1.97,23.51-3.95,35.58-5.98
	c-6.58-10.17-13.02-20.13-19.46-30.09c0.06-0.06,0.13-0.12,0.19-0.18c8.82,7.91,17.64,15.82,26.7,23.94
	c3.85-11.46,7.61-22.68,11.38-33.9c0.09,0.02,0.18,0.04,0.26,0.06c-0.69,11.81-1.37,23.6-2.07,35.7
	c11.43-4.16,22.55-8.21,33.67-12.26c0.05,0.07,0.09,0.15,0.14,0.22c-9.67,6.84-19.35,13.68-29.26,20.68
	c10.24,6.25,20.28,12.38,30.32,18.52C102.04,445.43,102,445.53,101.97,445.63z"/>
<path d="M187.8,63.96c6.1,10.48,12.06,20.73,18.02,30.97c-0.07,0.06-0.14,0.11-0.2,0.17c-8.43-8.3-16.85-16.6-25.52-25.14
	c-4.38,11.27-8.68,22.32-12.98,33.36c-0.09-0.02-0.17-0.03-0.26-0.05c1.24-11.77,2.48-23.55,3.75-35.63
	c-11.66,3.64-23.05,7.19-34.45,10.74c-0.03-0.06-0.06-0.11-0.08-0.17c10.05-6.41,20.09-12.83,30.41-19.41
	c-10.03-6.79-19.86-13.44-29.68-20.09c0.03-0.08,0.07-0.16,0.1-0.24c11.21,3.83,22.42,7.66,33.93,11.59
	c-0.94-12.05-1.86-23.85-2.78-35.65c0.09-0.02,0.18-0.03,0.27-0.05c3.98,11.14,7.96,22.26,12.05,33.67
	c8.89-8.3,17.54-16.38,26.19-24.46c0.07,0.05,0.15,0.1,0.22,0.15c-6.23,10.08-12.46,20.15-18.84,30.48
	c11.87,1.75,23.51,3.47,35.14,5.19c0,0.11,0.01,0.21,0.01,0.32C211.44,61.11,199.78,62.52,187.8,63.96z"/>
<path d="M225.01,322.34c-17.53-4.29-35.07-8.57-53.1-12.98c3.07,18.19,6.08,36.03,9.09,53.87c-0.13,0.05-0.25,0.09-0.38,0.14
	c-7.58-16.4-15.17-32.8-22.95-49.62c-12.43,13.88-24.58,27.45-36.74,41.02c-0.08-0.05-0.16-0.1-0.24-0.15
	c8.15-16.26,16.3-32.52,24.66-49.22c-18.46-1.05-36.53-2.08-54.61-3.11c-0.02-0.13-0.04-0.27-0.05-0.4
	c17.69-3.75,35.37-7.5,53.54-11.35c-10.66-15.05-21.09-29.8-31.53-44.54c0.1-0.09,0.21-0.18,0.31-0.27
	c13.91,11.44,27.83,22.9,42.11,34.67c5.16-17.83,10.18-35.18,15.2-52.54c0.13,0.01,0.27,0.02,0.4,0.03
	c-0.28,18.08-0.56,36.16-0.85,54.68c16.92-6.99,33.52-13.84,50.11-20.69c0.09,0.14,0.18,0.27,0.27,0.41
	c-14.18,10.96-28.37,21.92-42.94,33.18c16.19,8.96,32.01,17.73,47.84,26.49C225.1,322.09,225.06,322.21,225.01,322.34z"/>
<path d="M623.85,297.06c-22.91-5.6-45.82-11.2-69.39-16.96c4.01,23.78,7.94,47.09,11.88,70.4c-0.17,0.06-0.33,0.12-0.5,0.18
	c-9.91-21.43-19.82-42.86-30-64.85c-16.24,18.14-32.13,35.87-48.01,53.61c-0.1-0.07-0.21-0.13-0.31-0.2
	c10.65-21.25,21.3-42.5,32.23-64.33c-24.12-1.37-47.74-2.72-71.36-4.06c-0.02-0.18-0.05-0.35-0.07-0.53
	c23.11-4.9,46.23-9.8,69.96-14.83c-13.93-19.67-27.57-38.94-41.2-58.2c0.14-0.12,0.27-0.23,0.41-0.35
	c18.19,14.95,36.37,29.93,55.03,45.3c6.74-23.3,13.3-45.98,19.86-68.65c0.18,0.01,0.35,0.02,0.53,0.04
	c-0.37,23.63-0.74,47.25-1.12,71.46c22.11-9.13,43.8-18.09,65.49-27.04c0.12,0.18,0.23,0.36,0.35,0.54
	c-18.54,14.32-37.07,28.64-56.11,43.36c21.15,11.71,41.83,23.17,62.51,34.62C623.97,296.73,623.91,296.9,623.85,297.06z"/>
<path d="M114.23,120.94c-7.24,2.59-14.57,4.85-21.6,7.83c-9.13,3.87-15.27,10.96-18.52,20.24c-2.33,6.66-3.94,13.58-5.85,20.39
	c-0.36,1.29-0.6,2.61-1.49,3.86c-1.09-4.57-2.06-9.16-3.28-13.69c-3.08-11.4-7.02-22.53-18.13-28.56
	c-6.26-3.4-13.26-5.44-19.96-7.99c-1.83-0.7-3.79-1.05-6.46-1.77c1.45-0.51,2.22-0.82,3.01-1.05c2.89-0.86,5.77-1.77,8.69-2.52
	c17.25-4.43,28.01-15.23,32.19-32.58c1.3-5.4,2.66-10.78,4.24-17.18c1.01,4.31,1.66,7.76,2.65,11.11c1.57,5.34,3.1,10.71,5.14,15.88
	c4.1,10.39,12.04,16.88,22.36,20.56C102.87,117.48,108.64,119.15,114.23,120.94z"/>
<path d="M164.02,514.17c-4.23,1.52-8.53,2.85-12.66,4.6c-5.36,2.27-8.96,6.43-10.87,11.88c-1.37,3.91-2.31,7.97-3.43,11.96
	c-0.21,0.76-0.35,1.53-0.87,2.26c-0.64-2.68-1.21-5.38-1.93-8.04c-1.81-6.69-4.12-13.22-10.64-16.76
	c-3.67-1.99-7.78-3.19-11.71-4.69c-1.07-0.41-2.22-0.62-3.79-1.04c0.85-0.3,1.3-0.48,1.76-0.62c1.7-0.5,3.39-1.04,5.1-1.48
	c10.12-2.6,16.44-8.94,18.89-19.11c0.76-3.17,1.56-6.33,2.49-10.08c0.59,2.53,0.97,4.55,1.55,6.52c0.92,3.13,1.82,6.29,3.01,9.32
	c2.41,6.1,7.06,9.91,13.12,12.07C157.35,512.14,160.74,513.12,164.02,514.17z"/>
<path d="M672.65,380.27c-7.25,2.58-14.58,4.85-21.6,7.83c-9.13,3.87-15.27,10.96-18.52,20.24c-2.33,6.66-3.94,13.58-5.85,20.39
	c-0.36,1.29-0.6,2.61-1.49,3.86c-1.09-4.57-2.06-9.16-3.28-13.69c-3.08-11.4-7.02-22.53-18.13-28.56
	c-6.26-3.4-13.26-5.44-19.96-7.99c-1.83-0.7-3.79-1.05-6.46-1.77c1.45-0.51,2.22-0.82,3.01-1.05c2.89-0.86,5.77-1.77,8.69-2.52
	c17.25-4.43,28.01-15.23,32.19-32.58c1.3-5.4,2.66-10.78,4.24-17.18c1.01,4.31,1.66,7.76,2.65,11.11c1.57,5.34,3.1,10.71,5.14,15.88
	c4.1,10.39,12.04,16.88,22.36,20.56C661.29,376.81,667.06,378.48,672.65,380.27z"/>
<path d="M707.06,120.94c-7.24,2.59-14.57,4.85-21.6,7.83c-9.13,3.87-15.27,10.96-18.52,20.24c-2.33,6.66-3.94,13.58-5.85,20.39
	c-0.36,1.29-0.6,2.61-1.49,3.86c-1.09-4.57-2.06-9.16-3.28-13.69c-3.08-11.4-7.02-22.53-18.13-28.56
	c-6.26-3.4-13.26-5.44-19.96-7.99c-1.83-0.7-3.79-1.05-6.46-1.77c1.45-0.51,2.22-0.82,3.01-1.05c2.89-0.86,5.77-1.77,8.69-2.52
	c17.25-4.43,28.01-15.23,32.19-32.58c1.3-5.4,2.66-10.78,4.24-17.18c1.01,4.31,1.66,7.76,2.65,11.11c1.57,5.34,3.1,10.71,5.14,15.88
	c4.1,10.39,12.04,16.88,22.36,20.56C695.7,117.48,701.47,119.15,707.06,120.94z"/>
<path d="M592.76,534.36c-11.62-2.21-23.24-4.41-35.19-6.68c2.63,11.8,5.21,23.37,7.78,34.94c-0.08,0.03-0.16,0.07-0.24,0.1
	c-5.52-10.47-11.04-20.94-16.71-31.69c-7.66,9.51-15.15,18.8-22.64,28.1c-0.05-0.03-0.11-0.06-0.16-0.09
	c4.78-10.92,9.56-21.84,14.46-33.05c-12.12-0.06-23.98-0.12-35.84-0.17c-0.02-0.09-0.03-0.17-0.05-0.26
	c11.45-3.06,22.89-6.11,34.65-9.25c-7.49-9.49-14.82-18.78-22.15-28.07c0.07-0.06,0.13-0.12,0.2-0.19
	c9.48,7.01,18.97,14.04,28.72,21.25c2.77-11.84,5.46-23.37,8.15-34.89c0.09,0,0.18,0,0.27,0c0.43,11.84,0.86,23.68,1.31,35.81
	c10.83-5.15,21.46-10.2,32.09-15.25c0.06,0.09,0.13,0.17,0.19,0.26c-8.91,7.65-17.82,15.31-26.97,23.17
	c10.9,5.31,21.55,10.51,32.21,15.71C592.81,534.19,592.79,534.28,592.76,534.36z"/>
<path d="M381.29,330.14c-7.25,2.59-14.58,4.85-21.6,7.83c-9.13,3.87-15.27,10.96-18.52,20.24c-2.33,6.66-3.94,13.58-5.85,20.39
	c-0.36,1.29-0.6,2.61-1.49,3.86c-1.09-4.57-2.06-9.16-3.28-13.69c-3.08-11.4-7.02-22.53-18.13-28.56
	c-6.26-3.4-13.26-5.44-19.96-7.99c-1.83-0.7-3.79-1.05-6.46-1.77c1.45-0.51,2.22-0.82,3.01-1.05c2.89-0.86,5.77-1.77,8.69-2.52
	c17.25-4.43,28.01-15.23,32.19-32.58c1.3-5.4,2.66-10.78,4.24-17.18c1.01,4.31,1.66,7.76,2.65,11.11c1.57,5.34,3.1,10.71,5.14,15.88
	c4.1,10.39,12.04,16.88,22.36,20.56C369.93,326.68,375.7,328.35,381.29,330.14z"/>
<path d="M667.09,605.26c-5.56,1.99-11.19,3.73-16.58,6.02c-7.01,2.97-11.72,8.41-14.22,15.54c-1.79,5.11-3.03,10.42-4.49,15.65
	c-0.28,0.99-0.46,2-1.14,2.96c-0.83-3.51-1.58-7.04-2.52-10.51c-2.36-8.75-5.39-17.29-13.92-21.93c-4.8-2.61-10.18-4.17-15.32-6.14
	c-1.4-0.54-2.91-0.81-4.96-1.36c1.11-0.39,1.7-0.63,2.31-0.81c2.22-0.66,4.43-1.36,6.67-1.93c13.24-3.4,21.5-11.7,24.71-25.01
	c1-4.14,2.04-8.28,3.26-13.19c0.78,3.31,1.27,5.96,2.03,8.53c1.21,4.1,2.38,8.23,3.94,12.19c3.15,7.98,9.24,12.96,17.17,15.79
	C658.37,602.61,662.8,603.89,667.09,605.26z"/>
<path d="M264.55,745.44c-0.7-1.93-1.05-4.61-1.05-8.03c0-2.43,0.37-4.66,1.11-6.68c0.74-2.03,1.79-3.37,3.15-4.05
	c1.36-0.67,3.2-1.01,5.51-1.01c9.9,0,14.85,3.82,14.85,11.47c0,2.25-0.27,4.54-0.8,6.88c-0.54,2.34-1.32,4.14-2.35,5.4
	s-2.33,1.89-3.9,1.89c-3.3-0.09-6.7-0.61-10.21-1.55C267.35,748.81,265.25,747.38,264.55,745.44z M571.11,749.76
	c3.51,0.94,6.91,1.47,10.21,1.55c1.57,0,2.87-0.63,3.9-1.89s1.81-3.06,2.35-5.4c0.53-2.34,0.8-4.63,0.8-6.88
	c0-7.65-4.95-11.47-14.85-11.47c-2.31,0-4.14,0.34-5.51,1.01c-1.36,0.67-2.41,2.02-3.15,4.05c-0.74,2.02-1.11,4.25-1.11,6.68
	c0,3.42,0.35,6.1,1.05,8.03C565.5,747.38,567.6,748.81,571.11,749.76z M783.47,784.1c0,1.17-2.7,2.48-8.1,3.92
	c-5.4,1.44-10.82,3.33-16.27,5.67c-5.44,2.34-11.17,5.76-17.2,10.26c4.78,6.75,8.41,12.08,10.89,16c2.47,3.91,4.1,7.47,4.89,10.66
	c0.78,3.19,1.17,6.01,1.17,8.44c0,5.85-2.19,10.12-6.55,12.82c-4.37,2.7-10.1,4.05-17.2,4.05c-5.53,0-10.27-0.45-14.22-1.35
	c-3.55-0.81-7.73-2.83-12.56-6.07s-7.24-7.29-7.24-12.15c0.16-11.43,6.1-21.28,17.82-29.56c-4.03-5.03-7.35-9.5-9.99-13.46
	c-0.27,0.83-0.54,1.69-0.84,2.6c-3.18,9.76-5.86,16.42-8.04,19.97c-2.19,3.56-4.84,6.68-7.98,9.38c-3.13,2.7-6.97,4.05-11.51,4.05
	c-4.2,0-8.18-1.19-11.94-3.58c-3.76-2.38-7.11-8.03-10.08-16.94c-2.8,8.01-5.96,14.01-9.46,18.02c-3.51,4-8.39,6.05-14.66,6.14
	c-4.54,0-9.34-0.79-14.41-2.36c-5.07-1.57-8.31-5.91-9.71-13.02c-0.45-2.26-0.77-5.41-0.98-9.44c-0.8,1.88-1.61,3.7-2.42,5.46
	c-2.68,5.8-6.06,10.51-10.14,14.1c-4.08,3.6-8.1,5.4-12.07,5.4c-3.46,0-6.6-0.45-9.4-1.35c-6.1-1.98-11.01-4.72-14.72-8.23
	c-0.75-0.75-1.41-1.98-1.97-3.67c-1.66,2.77-3.4,5.31-5.21,7.58c-3.22,4.05-6.76,6.07-10.64,6.07c-4.37,0-8.97-0.86-13.79-2.56
	c-4.83-1.71-8.91-5.26-12.25-10.66c-3.34-5.4-5.01-14.62-5.01-27.66c0-6.84,0.99-19.39,2.97-37.65l-3.84-0.67
	c-2.06,12.59-5.38,24.11-9.96,34.55c-4.57,10.44-9.38,18.42-14.41,23.96c-5.03,5.53-9.52,8.35-13.49,8.44
	c-7.09,0-12.45-2.83-16.08-8.5c-2.31-3.51-3.59-12.06-3.84-25.64c-6.68,12.96-13.2,19.43-19.54,19.43c-4.87,0-8.9-0.65-12.13-1.92
	c-2.19,6.51-5.39,13.18-9.64,20.01c-5.11,8.37-9.86,12.59-14.22,12.69c-7.43,0-13.67-1.08-18.75-3.24
	c-5.07-2.16-9.03-6.46-11.87-12.89s-4.64-17.48-5.38-33.13c-3.71,21.42-7.4,35.5-11.07,42.24c-3.67,6.75-7.19,10.12-10.58,10.12
	c-2.64,0-5.32-0.29-8.04-0.88s-6.6-2.41-11.63-5.47c-3.71-2.25-6.52-5.76-8.41-10.53c-1.53-3.7-2.55-8.55-3.07-14.55
	c-0.69,1.59-1.38,3.13-2.07,4.63c-2.68,5.8-6.06,10.51-10.14,14.1c-4.08,3.6-8.1,5.4-12.07,5.4c-3.46,0-6.6-0.45-9.4-1.35
	c-6.1-1.98-11.01-4.72-14.72-8.23c-1.98-1.98-3.3-7.24-3.96-15.79c-0.25-2.97-0.37-5.94-0.37-8.9c0-4.78,0.34-9.89,0.99-15.29
	c-3.45,2.52-7.69,5.54-12.74,9.08c0.91,6.21,1.36,12.06,1.36,17.54c0,4.32-0.48,9.6-1.42,15.86c-0.95,6.25-4.17,11.41-9.65,15.45
	c-5.49,4.05-11.49,6.07-18,6.07c-3.96,0-8.17-0.88-12.62-2.63s-7.38-4.34-8.78-7.76c-1.41-3.42-2.1-6.16-2.1-8.23
	c0-3.06,1.03-6.43,3.09-10.12s5.03-7.26,8.91-10.73c3.87-3.46,9.89-8.44,18.06-14.91c0.25-4.23,0.41-9.22,0.5-14.98
	c-9.57,13.76-18.55,20.65-26.97,20.65c-7.18-0.18-12.78-1.76-16.83-4.73c-0.31-0.22-0.58-0.49-0.86-0.74
	c-0.97,2.19-2.06,4.58-3.28,7.22c-3.01,6.48-6,11.52-8.97,15.12s-6.31,5.4-10.02,5.4c-7.1,0-12.45-2.83-16.08-8.5
	c-2.31-3.51-3.59-12.05-3.84-25.64c-6.68,12.96-13.2,19.43-19.54,19.43c-14.43,0-21.65-5.58-21.65-16.73c0-0.07,0.01-0.15,0.01-0.22
	c-4.76,1.25-8.86,2.97-12.25,5.22c6.35,10.8,9.57,19.7,9.65,26.72c0,4.5-1.73,8.52-5.19,12.08c-3.47,3.55-7.92,5.33-13.36,5.33
	c-4.12-0.09-8.64-0.4-13.55-0.94s-8.99-2.56-12.25-6.07s-4.89-7.78-4.89-12.82c0.08-3.69,1.21-7.85,3.4-12.48
	c2.18-4.63,6.25-8.17,12.19-10.6c-1.24-2.88-3.55-6.86-6.93-11.94s-6.1-10.26-8.16-15.52s-3.1-9.83-3.1-13.7
	c0.17-10.61,2.78-19.16,7.86-25.64c5.07-6.48,11.32-9.72,18.75-9.72c4.7,0,9.32,0.93,13.86,2.77c4.53,1.84,8.04,4.3,10.52,7.35
	c2.48,3.06,3.71,6.84,3.71,11.34c0,7.29-0.76,11.11-2.29,11.47s-2.95,0.54-4.27,0.54c-3.3,0-4.95-0.99-4.95-2.97v-7.96
	c0-3.42-0.76-6.39-2.29-8.9c-1.53-2.52-3.48-3.78-5.88-3.78c-2.72,0-5.03,2.12-6.93,6.35s-2.84,10.26-2.84,18.08
	c0,6.84,1.01,12.58,3.03,17.21c2.02,4.64,5.26,10.23,9.71,16.8c5.88-2.67,11.53-4.35,16.96-5.03c0.72-5.27,2.23-10.61,4.57-16.02
	c3.38-7.83,7.83-13.74,13.36-17.75c5.53-4,10.39-6.01,14.6-6.01c5.11,0,10.85,1.04,17.2,3.1c2.56,0.9,3.84,2.75,3.84,5.53
	c1.98,0.54,3.52,1.1,4.64,1.69c1.11,0.59,1.96,2.12,2.54,4.59c0.58,2.48,0.86,6.77,0.86,12.89c-0.08,6.21-0.35,13.57-0.8,22.07
	s-0.68,14.24-0.68,17.21c1.73-0.81,4.29-3.87,7.67-9.17c3.38-5.31,6.35-10.57,8.91-15.79c0.44-0.93,0.85-1.79,1.23-2.6
	c-0.14-1.27-0.24-2.59-0.24-4.02c0.08-5.75,1.85-11.83,5.32-18.22c3.46-6.39,8.04-11.43,13.73-15.12c5.36-3.6,10.72-5.4,16.08-5.4
	c5.11,0,9.77,0.81,13.98,2.43c6.43,2.52,9.65,4.68,9.65,6.48c0,2.43-1.94,3.64-5.82,3.64c-2.72,0-6.12,0.92-10.21,2.77
	c-4.08,1.84-7.57,5.38-10.45,10.6c-2.89,5.22-4.58,10.84-5.07,16.87c9.15-5.67,16.62-13.76,22.39-24.29
	c0.58-0.99,1.49-1.49,2.72-1.49c0.99,0,2.47,0.29,4.45,0.88s3.67,1.24,5.07,1.96c2.8,1.44,5.28,9.09,7.42,22.94
	c4.95-2.88,9.01-5.35,12.19-7.42c1.29-0.84,2.43-1.51,3.41-2.01c0.56-3.07,1.22-6.22,1.97-9.47c0.74-3.24,2.51-4.86,5.32-4.86
	c2.64,0,6.72,0.86,12.25,2.57c3.38,0.99,5.07,3.33,5.07,7.02c0,4.23-0.37,11.74-1.12,22.53c-0.25,3.42-0.37,6.84-0.37,10.26
	c0,12.33,0.58,20.24,1.73,23.75c8.41-4.37,16.86-18.49,25.36-42.36c0.09-1.78,0.19-3.62,0.31-5.55c0.53-8.9,2.16-19.93,4.89-33.06
	c-1.73-0.18-4.11-0.4-7.11-0.67c-3.01-0.27-4.52-1.26-4.52-2.97c0-2.16,4.25-3.96,12.74-5.4c1.73-8.1,2.91-12.91,3.53-14.44
	s2-2.29,4.14-2.29c2.23,0,5.47,0.47,9.71,1.42c4.25,0.94,7.19,2.59,8.85,4.93c0.66,0.9,0.99,1.84,0.99,2.83
	c0,0.63-0.17,1.75-0.5,3.37c8.33-1.44,16.33-2.61,24-3.51c0.66-4.32,1.77-11.16,3.34-20.51c0.58-3.24,2.18-4.86,4.83-4.86
	c1.4,0,4.22,0.59,8.47,1.76s7.03,2.09,8.35,2.76s2.04,1.73,2.17,3.17c0.12,1.44,0.19,2.79,0.19,4.05c0,2.61-0.17,6.21-0.5,10.8
	c2.8,0.09,6.99,0.61,12.56,1.55s8.35,2.36,8.35,4.25c0,1.17-1.03,2.11-3.09,2.83c-2.06,0.72-8.21,1.62-18.43,2.7
	c-2.64,25.73-3.96,46.02-3.96,60.87c0,8.55,0.41,16.13,1.24,22.74c0.82,6.61,2.1,9.92,3.84,9.92c5.69,0,11.83-8.82,18.43-26.45
	c0.66-1.78,1.28-3.44,1.85-5c-1.06-2.2-1.61-4.8-1.61-7.82c0-7.56,1.69-15.25,5.07-23.08s7.83-13.74,13.36-17.75
	c5.53-4,10.39-6.01,14.6-6.01c5.11,0,10.85,1.04,17.2,3.1c2.56,0.9,3.84,2.75,3.84,5.53c1.98,0.54,3.53,1.1,4.64,1.69
	s1.96,2.11,2.54,4.59c0.58,2.48,0.86,6.77,0.86,12.89c-0.08,6.21-0.35,13.56-0.8,22.07c-0.45,8.5-0.68,14.24-0.68,17.21
	c1.73-0.81,3.59-2.45,5.57-4.93c1.98-2.47,4.62-6.81,7.92-13.02c3.3-6.21,6.23-12.44,8.79-18.69s4.33-12.62,5.32-19.1
	c-8.82-0.99-15.34-3.33-19.54-7.02c-4.21-3.69-6.31-7.6-6.31-11.74c0-5.67,1.65-10.33,4.95-13.97c3.29-3.64,6.8-5.46,10.52-5.46
	c3.55,0,7.11,0.65,10.7,1.96c3.59,1.3,6.31,4.32,8.16,9.04c1.86,4.72,2.83,11.09,2.91,19.1l14.1,1.76
	c5.19,0.63,8.41,4.77,9.65,12.42c1.4,7.47,2.1,15.34,2.1,23.62l-0.12,16.6c0.08,6.48,1.03,12.19,2.84,17.14
	c4.12-1.08,7.67-4.12,10.64-9.11c1.91-3.2,3.77-6.82,5.59-10.84c0.1-10.1,1.61-21.52,4.56-34.31c0.74-3.24,2.51-4.86,5.32-4.86
	c2.64,0,6.72,0.86,12.25,2.57c3.38,0.99,5.07,3.33,5.07,7.02c0,4.23-0.37,11.74-1.12,22.53c-0.25,3.42-0.37,6.84-0.37,10.26
	c0,12.33,0.58,20.24,1.73,23.75c8.49-4.41,17.03-18.76,25.61-43.05c0.28-0.84,0.58-1.53,0.9-2.09c0.53-3.98,1.23-8.02,2.13-12.14
	c2.19-10.03,3.67-15.84,4.46-17.41c0.78-1.57,1.58-2.59,2.41-3.04c0.82-0.45,1.81-0.67,2.97-0.67c2.97,0,8.08,1.17,15.34,3.51
	c1.24,0.36,1.85,1.58,1.85,3.65c0,1.62-0.66,6.59-1.98,14.91c-1.32,8.32-1.98,16.76-1.98,25.3c0,7.2,0.66,13.45,1.98,18.76
	c6.35-6.57,11.52-14.87,15.53-24.9c4-10.03,6.54-16.98,7.61-20.85c0.74-2.61,1.98-3.92,3.71-3.92c1.81,0,4,0.38,6.56,1.15
	s3.88,2.21,3.96,4.32c0.08,2.12,0.2,5.74,0.37,10.87c0.16,5.13,0.85,12.6,2.04,22.4c1.2,9.81,2.91,14.71,5.13,14.71
	c3.22,0,6.56-3.51,10.02-10.53c3.33-6.74,6.58-15.11,9.75-25.08c-1.29-3.46-1.95-6.71-1.95-9.74c0-7.2,1.22-13.02,3.65-17.48
	c2.43-4.45,5.19-7.6,8.29-9.44s6.12-2.81,9.09-2.9c6.68,0,14.68,1.75,24,5.26c1.65,0.63,3.28,1.87,4.89,3.71
	c1.61,1.85,2.41,3.98,2.41,6.41c0,3.06-1.36,4.59-4.08,4.59c-3.3,0-5.73-1.53-7.3-4.59s-3.63-4.59-6.19-4.59
	c-1.98,0-4.02,1.91-6.12,5.74c-2.1,3.82-3.2,9.06-3.28,15.72c0,2.97,1.07,6.43,3.21,10.39s4.58,7.96,7.3,12.01
	c9.57-5.85,17.48-9.94,23.75-12.28c6.6-2.43,11.26-3.64,13.98-3.64c1.65,0,3.69,0.47,6.12,1.42S783.47,783.11,783.47,784.1z
	 M66.3,817.84c0-4.32-1.28-8.55-3.84-12.69c-3.55,3.87-5.32,8.1-5.32,12.69c0,6.03,1.32,9.54,3.96,10.53
	C64.49,826.66,66.22,823.15,66.3,817.84z M142.63,754.01c-5.94,0.81-10.95,4.09-15.03,9.85c-4.08,5.76-6.12,13.14-6.12,22.13
	C132.86,775.83,139.91,765.17,142.63,754.01z M220.7,808.67c-6.6,4.32-10.48,8.95-11.63,13.9c-0.58,2.34-0.86,4.5-0.86,6.48
	c0,2.07,0.33,3.96,0.99,5.67c4.12-2.16,7.05-5.24,8.78-9.25C219.71,821.47,220.61,815.87,220.7,808.67z M364.45,738.89
	c-8.66,0.9-16.62,1.8-23.88,2.7c-3.79,26.27-5.69,46.2-5.69,59.79c0,2.07,0.18,6.93,0.56,14.57c0.37,7.65,1.21,11.47,2.54,11.47
	c1.32,0,3.13-2.34,5.44-7.02c6.76-13.95,12.41-33.25,16.95-57.9C361.19,757.47,362.55,749.6,364.45,738.89z M458.96,754.14
	c-5.94,0.81-10.95,4.09-15.03,9.85c-4.08,5.76-6.12,13.14-6.12,22.13C449.19,775.96,456.24,765.3,458.96,754.14z M502.26,738.89
	c0-2.43-0.51-5.42-1.55-8.98c-1.03-3.55-3.03-6.28-6-8.17c-4.04,2.52-6.06,7.2-6.06,14.04c0,2.79,0.7,5.17,2.1,7.15
	c1.4,1.98,5.03,2.97,10.89,2.97C502.06,743.66,502.26,741.32,502.26,738.89z M730.89,832.02c0-3.51-1.53-8.18-4.58-14.03
	c-5.36,5.49-8.04,12.15-8.04,19.97c0,1.62,0.37,3.13,1.11,4.52s1.98,2.14,3.71,2.23c2.48,0,4.37-0.94,5.69-2.83
	C730.1,839.98,730.8,836.69,730.89,832.02z"/>
</svg>
