<?xml version="1.0" encoding="utf-8"?>
<!-- Generator: Adobe Illustrator 26.3.1, SVG Export Plug-In . SVG Version: 6.00 Build 0)  -->
<svg version="1.1" id="Layer_1" xmlns="http://www.w3.org/2000/svg" xmlns:xlink="http://www.w3.org/1999/xlink" x="0px" y="0px"
	 viewBox="0 0 858.05 829.48" style="enable-background:new 0 0 858.05 829.48;" xml:space="preserve">
<path d="M369.3,297.28l7.46,3.39l-40.95,89.86l-7.44-3.2L369.3,297.28z M649.06,110.59l-65.71,53.57l4.94,6.1l65.94-53.28
	L649.06,110.59z M595.15,72.61l-25.85,78.03l7.64,2.53l25.8-78.04L595.15,72.61z M595.39,179.47l-0.67,7.86l75.13,6.52l0.1-8.07
	L595.39,179.47z M122.06,640.13l61.34,18.98l2.4-7.75l-61.35-18.93L122.06,640.13z M332.79,522.58l-7.74-44.54l-8.12,0.86l8.3,45.05
	L332.79,522.58z M313.77,611.77l7.18,2.9l16.42-40.14l-7.34-3.51L313.77,611.77z M419.09,251.96l4.43,6.66l31.58-17.11l-3.74-6.94
	L419.09,251.96z M52.39,513.61l6.33,4.54l17.51-24.06l-6.38-4.59L52.39,513.61z M49.21,558.96l14.71,21.99l6.44-4.31l-14.7-22
	L49.21,558.96z"/>
<path d="M713.95,702.4c-0.67-1.83-0.99-4.36-0.99-7.59c0-2.3,0.35-4.41,1.05-6.32c0.7-1.92,1.7-3.19,2.98-3.83
	c1.29-0.64,3.02-0.96,5.21-0.96c9.36,0,14.04,3.62,14.04,10.85c0,2.13-0.26,4.3-0.76,6.51c-0.51,2.22-1.25,3.92-2.22,5.11
	c-0.98,1.19-2.21,1.79-3.69,1.79c-3.12-0.08-6.34-0.58-9.65-1.47C716.61,705.59,714.61,704.24,713.95,702.4z M844.12,726.08
	c0,1.36-2.15,3.3-6.44,5.81s-11.62,4.53-22,6.07c-2.1,8.25-4.6,14.55-7.49,18.89s-6.57,7.62-11.05,9.83
	c-4.49,2.21-9.07,3.32-13.75,3.32c-7.41,0-13.34-0.74-17.79-2.23c-3.95-1.32-7.08-3.49-9.4-6.49c-0.82,1.93-1.65,3.8-2.48,5.6
	c-2.54,5.49-5.73,9.94-9.59,13.34c-3.86,3.4-7.66,5.11-11.41,5.11c-3.27,0-6.24-0.43-8.89-1.28c-5.77-1.87-10.41-4.47-13.92-7.78
	c-1.87-1.87-3.12-6.85-3.74-14.94c-0.23-2.81-0.35-5.62-0.35-8.42c0-0.69,0.02-1.41,0.04-2.12c-1.11,1.09-2.22,2.08-3.31,2.95
	c-3.27,2.6-6.86,4.68-10.76,6.25c-3.9,1.58-7.76,2.36-11.58,2.36c-3.67-0.08-7.68-0.72-12.05-1.92l-3.86,0.13
	c-4.91,0-9.67-0.77-14.27-2.3c-1.79,7.15-2.69,16.17-2.69,27.06l0.23,13.15c0,6.13-1.95,9.19-5.85,9.19
	c-3.28,0-6.83-0.45-10.65-1.34c-3.83-0.89-6.13-2.53-6.9-4.91c-1.54-4.88-2.38-15.94-2.54-33.16c-0.4,0.7-0.8,1.37-1.2,2.01
	c-7.25,11.66-13.69,17.49-19.31,17.49c-3.59,0-8.15-1.32-13.69-3.96c-8.97-4.17-13.45-13.49-13.45-27.95c0-2.98,0.15-6.26,0.46-9.83
	c0.63-6.47,2.65-18.17,6.09-35.1l-4.45-0.51c-3.59,10.38-8.27,18.47-14.04,24.25c-5.54,5.45-11.9,8.94-19.07,10.47
	c-0.54,5.36-1.71,10.7-3.51,16.02s-4.56,9.6-8.31,12.83c-3.74,3.23-8.31,4.85-13.69,4.85c-7.02-0.17-12.62-1.7-16.79-4.59
	c-3.49-2.42-5.5-5.6-6.07-9.51c-8.38,7.48-17.02,11.3-25.93,11.42c-8.04-0.08-14.84-1.68-20.42-4.79
	c-5.58-3.1-9.32-7.28-11.23-12.51c-1.42-3.88-2.33-9.07-2.74-15.56c-5.88,1.18-10.81,3.06-14.75,5.67
	c6.01,10.21,9.05,18.64,9.13,25.27c0,4.25-1.64,8.06-4.91,11.42c-3.28,3.36-7.49,5.04-12.64,5.04c-3.9-0.09-8.17-0.38-12.81-0.89
	c-4.64-0.51-8.5-2.42-11.58-5.75c-3.08-3.32-4.62-7.36-4.62-12.12c0.08-3.49,1.15-7.42,3.22-11.81c2.06-4.38,5.91-7.72,11.53-10.02
	c-1.17-2.72-3.36-6.49-6.56-11.3s-5.77-9.7-7.72-14.68s-2.93-9.3-2.93-12.96c0.16-10.04,2.63-18.12,7.43-24.25s10.7-9.19,17.73-9.19
	c4.44,0,8.81,0.88,13.1,2.62s7.6,4.06,9.94,6.96s3.51,6.47,3.51,10.72c0,6.89-0.72,10.51-2.16,10.85c-1.44,0.34-2.79,0.51-4.03,0.51
	c-3.12,0-4.68-0.94-4.68-2.81v-7.53c0-3.23-0.72-6.04-2.16-8.42s-3.3-3.58-5.56-3.58c-2.57,0-4.76,2-6.55,6
	c-1.79,4-2.69,9.7-2.69,17.1c0,6.47,0.95,11.89,2.87,16.28c1.91,4.38,4.97,9.68,9.18,15.89c6.46-2.93,12.63-4.6,18.51-5
	c-0.01-0.42-0.02-0.82-0.03-1.25c0-5.1,1.27-10.76,3.8-16.98c2.54-6.21,6.14-11.04,10.82-14.49s9.9-5.21,15.68-5.3
	c3.59,0,9.48,1.53,17.67,4.6c2.81,1.11,4.21,3.53,4.21,7.28c0,1.53-0.39,2.98-1.17,4.34c-0.62,1.02-1.56,1.53-2.81,1.53
	c-4.13,0-6.4-1.57-6.79-4.72c-0.08-1.45-0.55-2.68-1.4-3.7c-2.34,0-4.7,1.47-7.08,4.41c-2.38,2.94-4.27,6.15-5.68,9.63
	c-1.64,4-2.46,9.96-2.46,17.87c0,4.17,0.31,8.23,0.94,12.19c0.62,3.95,2.22,7.55,4.8,10.78c7.1-0.68,13.65-3.49,19.66-8.42
	c5.86-4.81,12.54-11.14,20.03-18.95c-4.61-3.88-6.93-8.62-6.93-14.23c0-4.93,0.86-9.11,2.57-12.51c1.71-3.4,4.25-6.11,7.61-8.11
	c3.35-2,7.17-3,11.46-3c8.42,0.09,14.63,3.36,18.6,9.83c3.59,5.96,5.38,13.19,5.38,21.7l-0.23,4.98c6.01-1.96,11.02-4.96,15.03-9
	c4.02-4.04,7.04-9.72,9.07-17.04c-8.19-1.87-14.12-4.77-17.79-8.68c-3.27-3.32-4.91-6.85-4.91-10.59c0-5.62,1.95-10.17,5.85-13.66
	c3.04-2.81,6.08-4.21,9.13-4.21c3.43,0,7.17,1.02,11.23,3.07c5.46,2.72,8.19,9.74,8.19,21.06c0,2.04-0.08,4.21-0.23,6.51l13.11,3.19
	c4.83,1.11,7.49,5.32,7.96,12.64c0.39,3.58,0.58,7.24,0.58,10.98c0,3.75-0.19,7.57-0.58,11.49c-1.25,11.57-1.87,18.38-1.87,20.42
	c0,4.26,0.47,8.13,1.4,11.62c3.98-0.59,7.58-3.08,10.82-7.47c3.24-4.38,6.65-10.36,10.24-17.93c0.79-1.68,1.52-3.16,2.17-4.46
	c0.39-6.86,0.99-13.5,1.8-19.91c1.56-12.25,2.73-20.34,3.51-24.25c0.47-2.38,1.71-3.58,3.74-3.58c4.37,0,9.75,1.58,16.15,4.73
	c1.71,0.94,2.58,1.91,2.58,2.94c0,0.85-0.7,8.85-2.11,24c8.19-16.17,16.07-24.25,23.64-24.25c1.25,0,4.03,0.64,8.36,1.91
	c4.33,1.28,7.9,3.43,10.71,6.45s4.21,7.42,4.21,13.21c0,8.25-2.77,16.29-8.31,24.12c4.44-1.19,8.83-3.74,13.16-7.66
	c3.33-3.01,6.04-5.86,8.14-8.57c0.65-3.97,1.46-8.08,2.44-12.37c0.7-3.06,2.38-4.6,5.03-4.6c2.5,0,6.36,0.81,11.58,2.43
	c3.19,0.94,4.8,3.15,4.8,6.64c0,4-0.35,11.1-1.06,21.31c-0.23,3.24-0.35,6.47-0.35,9.7c0,11.66,0.54,19.14,1.64,22.46
	c6.65-3.46,13.33-13.38,20.05-29.74c-0.02-0.5-0.04-1.01-0.04-1.53c0-8.94,3.28-16.13,9.83-21.57c-2.03-3.66-3.04-7.79-3.04-12.38
	c0-2.64,0.66-5.78,1.99-9.44s3.61-6.93,6.85-9.83c3.23-2.89,7.66-4.34,13.28-4.34c5.46,0,10.43,0.76,14.92,2.29
	c4.48,1.53,8.56,4.79,12.23,9.76c3.67,4.98,5.99,9.68,6.96,14.1c0.97,4.43,1.54,8.55,1.7,12.38c4.83-1.1,8.79-2.51,11.88-4.21
	c3.08-1.7,4.97-2.55,5.67-2.55c2.58,0,4.89,0.53,6.96,1.6C843.08,723,844.12,724.38,844.12,726.08z M403.49,770.88
	c0-4.08-1.21-8.08-3.63-12c-3.35,3.66-5.03,7.66-5.03,12c0,5.7,1.25,9.02,3.75,9.96C401.78,779.22,403.41,775.9,403.49,770.88z
	 M529.39,745.22c-3.43-0.17-6.51-0.72-9.24-1.66c-1.64,3.49-2.58,6.89-2.81,10.21c-0.08,1.45-0.12,3.02-0.12,4.72
	c0,2.21,0.08,4.6,0.23,7.15C524.08,762.84,528.06,756.03,529.39,745.22z M531.84,727.49c0-7.91-1.11-14.02-3.34-18.31
	c-2.22-4.3-4.39-6.45-6.49-6.45c-3.12,0-5.64,1.74-7.55,5.23s-2.86,7.11-2.86,10.85c0,5.45,1.13,9.32,3.39,11.62
	c3.98,4,9.36,6,16.14,6C531.61,733.61,531.84,730.63,531.84,727.49z M570.34,692.39c0-6.89-1.87-11.83-5.62-14.81
	c-4.06,1.96-6.4,6.13-7.02,12.51v1.4c0,2.29,0.53,4.3,1.58,6s4.31,2.9,9.77,3.57C569.91,698.17,570.34,695.28,570.34,692.39z
	 M673.18,713.57c-5.23,3.23-9.36,7.43-12.4,12.57c-3.04,5.15-5.73,12.36-8.08,21.63c0.7,0.68,1.64,1.02,2.81,1.02
	c1.33,0,3.86-1.85,7.6-5.55c3.75-3.7,6.36-8.02,7.84-12.96c1.48-4.93,2.22-9.19,2.22-12.76v-3.95H673.18z M794.39,736.55l-2.92,0.13
	c-5.07,0-9.83-1.27-14.27-3.83c-0.94,5.02-1.4,9.24-1.4,12.64c0,1.28,0.14,3.17,0.41,5.68c0.27,2.51,1.62,4.53,4.04,6.07
	C787.41,754.93,792.13,748.03,794.39,736.55z M796.5,721.36c0-3.32-0.49-7.06-1.46-11.23c-0.98-4.17-3.34-7.74-7.08-10.72
	c-2.5,0.51-4.41,1.83-5.73,3.95c-1.72,2.73-2.58,6-2.58,9.83c0,2.21,0.66,4.81,1.99,7.78c1.33,2.98,3.14,4.96,5.44,5.94
	s5.28,1.51,8.95,1.6C796.34,726.04,796.5,723.66,796.5,721.36z"/>
<path d="M64.29,534.89c-4,1.44-8.07,2.7-11.97,4.35c-5.07,2.15-8.47,6.08-10.28,11.23c-1.29,3.7-2.19,7.53-3.25,11.31
	c-0.2,0.71-0.33,1.45-0.83,2.14c-0.6-2.53-1.14-5.09-1.82-7.6c-1.71-6.32-3.9-12.5-10.06-15.85c-3.47-1.89-7.36-3.02-11.08-4.44
	c-1.02-0.39-2.1-0.58-3.58-0.98c0.8-0.28,1.23-0.45,1.67-0.58c1.6-0.48,3.2-0.98,4.82-1.4c9.57-2.46,15.54-8.45,17.86-18.08
	c0.72-3,1.48-5.98,2.35-9.53c0.56,2.39,0.92,4.31,1.47,6.17c0.87,2.96,1.72,5.95,2.85,8.81c2.27,5.77,6.68,9.37,12.41,11.41
	C57.98,532.97,61.19,533.89,64.29,534.89z"/>
<path d="M369.78,553.22c-4,1.44-8.07,2.69-11.97,4.35c-5.07,2.15-8.47,6.08-10.28,11.23c-1.29,3.7-2.19,7.53-3.25,11.31
	c-0.2,0.71-0.33,1.45-0.83,2.14c-0.6-2.53-1.14-5.09-1.82-7.6c-1.71-6.32-3.9-12.5-10.06-15.85c-3.47-1.89-7.36-3.02-11.08-4.44
	c-1.02-0.39-2.1-0.58-3.58-0.98c0.8-0.28,1.23-0.45,1.67-0.58c1.6-0.48,3.2-0.98,4.82-1.4c9.57-2.46,15.54-8.45,17.86-18.08
	c0.72-3,1.48-5.98,2.35-9.53c0.56,2.39,0.92,4.31,1.47,6.17c0.87,2.96,1.72,5.95,2.85,8.81c2.27,5.77,6.68,9.37,12.41,11.41
	C363.47,551.3,366.68,552.22,369.78,553.22z"/>
<path d="M325.31,645.98c-4.01,1.44-8.08,2.69-11.97,4.35c-5.07,2.15-8.47,6.08-10.28,11.23c-1.29,3.7-2.19,7.53-3.25,11.31
	c-0.2,0.71-0.33,1.45-0.83,2.14c-0.6-2.53-1.14-5.09-1.82-7.6c-1.71-6.32-3.9-12.5-10.06-15.85c-3.47-1.89-7.36-3.02-11.08-4.44
	c-1.02-0.39-2.1-0.58-3.58-0.98c0.8-0.28,1.23-0.45,1.67-0.58c1.6-0.48,3.2-0.98,4.82-1.4c9.57-2.46,15.54-8.45,17.86-18.08
	c0.72-3,1.48-5.98,2.35-9.53c0.56,2.39,0.92,4.31,1.47,6.17c0.87,2.96,1.72,5.95,2.85,8.81c2.27,5.77,6.68,9.37,12.41,11.41
	C319,644.06,322.21,644.98,325.31,645.98z"/>
<path d="M418.98,262.5c-4,1.44-8.07,2.69-11.97,4.35c-5.07,2.15-8.47,6.08-10.28,11.23c-1.29,3.7-2.19,7.53-3.25,11.31
	c-0.2,0.71-0.33,1.45-0.83,2.14c-0.6-2.53-1.14-5.09-1.82-7.6c-1.71-6.32-3.9-12.5-10.06-15.85c-3.47-1.89-7.36-3.02-11.08-4.44
	c-1.02-0.39-2.1-0.58-3.58-0.98c0.8-0.28,1.23-0.45,1.67-0.58c1.6-0.48,3.2-0.98,4.82-1.4c9.57-2.46,15.54-8.45,17.86-18.08
	c0.72-3,1.48-5.98,2.35-9.53c0.56,2.39,0.92,4.31,1.47,6.17c0.87,2.96,1.72,5.95,2.85,8.81c2.27,5.77,6.68,9.37,12.41,11.41
	C412.67,260.58,415.88,261.5,418.98,262.5z"/>
<path d="M585.93,174.3c-4.01,1.45-8.07,2.7-11.97,4.35c-5.07,2.15-8.47,6.08-10.28,11.23c-1.29,3.7-2.19,7.53-3.25,11.31
	c-0.2,0.71-0.33,1.45-0.83,2.14c-0.6-2.53-1.14-5.09-1.82-7.6c-1.71-6.32-3.9-12.5-10.06-15.85c-3.47-1.89-7.36-3.02-11.08-4.44
	c-1.02-0.39-2.1-0.58-3.58-0.98c0.8-0.28,1.23-0.45,1.67-0.58c1.6-0.48,3.2-0.98,4.82-1.4c9.57-2.46,15.54-8.45,17.86-18.08
	c0.72-3,1.48-5.98,2.35-9.53c0.56,2.39,0.92,4.31,1.47,6.17c0.87,2.96,1.72,5.95,2.85,8.81c2.27,5.77,6.68,9.37,12.41,11.41
	C579.62,172.38,582.83,173.3,585.93,174.3z"/>
<path d="M569.69,210.78c-22.33,0.28-44.65,0.57-67.57,0.86c9.39,21.03,18.57,41.59,27.75,62.15c-0.1,0.06-0.2,0.13-0.29,0.19
	c-14.24-17.4-28.47-34.8-43.09-52.66c-10.5,20.3-20.78,40.17-31.06,60.04c-0.16-0.05-0.32-0.09-0.48-0.14
	c4.69-21.85,9.39-43.69,14.21-66.13c-22.36,4.43-44.26,8.76-66.16,13.1c-0.05-0.16-0.1-0.33-0.14-0.49
	c19.93-9.95,39.87-19.86,60.36-30.04c-17.52-14.82-34.56-29.24-51.6-43.65c0.08-0.15,0.16-0.29,0.23-0.44
	c20.25,9.44,40.51,18.88,61.26,28.55c0.65-22.62,1.3-44.8,1.94-66.98c0.2-0.03,0.4-0.06,0.6-0.09
	c5.21,21.53,10.42,43.06,15.77,65.19c18.28-13.74,36.15-27.17,54.03-40.6c0.12,0.12,0.24,0.23,0.35,0.35
	c-13.68,17.62-27.36,35.24-41.44,53.36c22.07,5.72,43.72,11.32,65.37,16.93C569.72,210.45,569.7,210.61,569.69,210.78z"/>
<path d="M699.37,91.43c-4,1.44-8.07,2.7-11.97,4.35c-5.07,2.15-8.47,6.08-10.28,11.23c-1.29,3.7-2.19,7.53-3.25,11.31
	c-0.2,0.71-0.33,1.45-0.83,2.14c-0.6-2.53-1.14-5.09-1.82-7.6c-1.71-6.32-3.9-12.5-10.06-15.85c-3.47-1.89-7.36-3.02-11.08-4.44
	c-1.02-0.39-2.1-0.58-3.58-0.98c0.8-0.28,1.23-0.45,1.67-0.58c1.6-0.48,3.2-0.98,4.82-1.4c9.57-2.46,15.54-8.45,17.86-18.08
	c0.72-3,1.48-5.98,2.35-9.53c0.56,2.39,0.92,4.31,1.47,6.17c0.87,2.96,1.72,5.95,2.85,8.81c2.27,5.77,6.68,9.37,12.41,11.41
	C693.06,89.51,696.27,90.43,699.37,91.43z"/>
<path d="M725.81,178.54c-4,1.44-8.07,2.7-11.97,4.35c-5.07,2.15-8.47,6.08-10.28,11.23c-1.29,3.7-2.19,7.53-3.25,11.31
	c-0.2,0.71-0.33,1.45-0.83,2.14c-0.6-2.53-1.14-5.09-1.82-7.6c-1.71-6.32-3.9-12.5-10.06-15.85c-3.47-1.89-7.36-3.02-11.08-4.44
	c-1.02-0.39-2.1-0.58-3.58-0.98c0.8-0.28,1.23-0.45,1.67-0.58c1.6-0.48,3.2-0.98,4.82-1.4c9.57-2.46,15.54-8.45,17.86-18.08
	c0.72-3,1.48-5.98,2.35-9.53c0.56,2.39,0.92,4.31,1.47,6.17c0.87,2.96,1.72,5.95,2.85,8.81c2.27,5.77,6.68,9.37,12.41,11.41
	C719.5,176.62,722.71,177.54,725.81,178.54z"/>
<path d="M645.21,45.66c-4,1.44-8.07,2.69-11.97,4.35c-5.07,2.15-8.47,6.08-10.28,11.23c-1.29,3.7-2.19,7.53-3.25,11.31
	c-0.2,0.71-0.33,1.45-0.83,2.14c-0.6-2.53-1.14-5.09-1.82-7.6c-1.71-6.32-3.9-12.5-10.06-15.85c-3.47-1.89-7.36-3.02-11.08-4.44
	c-1.02-0.39-2.1-0.58-3.58-0.98c0.8-0.28,1.23-0.45,1.67-0.58c1.6-0.48,3.2-0.98,4.82-1.4c9.57-2.46,15.54-8.45,17.86-18.08
	c0.72-3,1.48-5.98,2.35-9.53c0.56,2.39,0.92,4.31,1.47,6.17c0.87,2.96,1.72,5.95,2.85,8.81c2.27,5.77,6.68,9.37,12.41,11.41
	C638.9,43.74,642.11,44.66,645.21,45.66z"/>
<path d="M153.82,486.62c-13.32-2.54-26.63-5.08-40.33-7.7c3,13.53,5.94,26.8,8.89,40.06c-0.09,0.04-0.19,0.08-0.28,0.12
	c-6.32-12.01-12.64-24.02-19.12-36.34C94.19,493.65,85.59,504.3,77,514.94c-0.06-0.04-0.12-0.07-0.19-0.11
	c5.49-12.51,10.98-25.02,16.61-37.87c-13.89-0.08-27.48-0.16-41.08-0.24c-0.02-0.1-0.04-0.2-0.06-0.3
	c13.12-3.49,26.25-6.98,39.72-10.57c-8.57-10.88-16.97-21.54-25.36-32.2c0.08-0.07,0.15-0.14,0.23-0.21
	c10.89,8.06,21.77,16.12,32.93,24.4c3.19-13.57,6.28-26.78,9.38-39.99c0.1,0,0.2,0,0.3,0c0.48,13.57,0.97,27.14,1.46,41.05
	c12.42-5.89,24.61-11.67,36.79-17.44c0.07,0.1,0.14,0.2,0.22,0.3c-10.22,8.77-20.44,17.53-30.94,26.53
	c12.49,6.1,24.69,12.07,36.9,18.04C153.88,486.43,153.85,486.52,153.82,486.62z"/>
<path d="M136.19,612.6c-6.86,2.46-13.79,4.6-20.43,7.42c-8.64,3.66-14.44,10.37-17.51,19.14c-2.21,6.3-3.73,12.84-5.53,19.28
	c-0.34,1.22-0.57,2.47-1.41,3.65c-1.03-4.32-1.95-8.67-3.1-12.95c-2.91-10.78-6.64-21.3-17.15-27.01
	c-5.92-3.21-12.54-5.14-18.87-7.56c-1.73-0.66-3.58-1-6.11-1.68c1.37-0.48,2.1-0.77,2.84-1c2.73-0.81,5.46-1.67,8.22-2.38
	c16.31-4.19,26.49-14.41,30.44-30.81c1.23-5.11,2.52-10.2,4.01-16.25c0.96,4.08,1.57,7.34,2.5,10.51
	c1.49,5.05,2.93,10.13,4.86,15.02c3.88,9.83,11.39,15.97,21.15,19.45C125.44,609.34,130.9,610.91,136.19,612.6z"/>
<path d="M350.21,421.37c-6.86,2.45-13.79,4.59-20.43,7.41c-8.64,3.66-14.44,10.37-17.51,19.14c-2.21,6.3-3.73,12.84-5.53,19.28
	c-0.34,1.22-0.57,2.47-1.41,3.65c-1.03-4.32-1.95-8.67-3.1-12.95c-2.91-10.78-6.64-21.3-17.15-27.01
	c-5.92-3.21-12.54-5.14-18.87-7.56c-1.73-0.66-3.58-1-6.11-1.68c1.37-0.48,2.1-0.77,2.84-1c2.73-0.81,5.46-1.67,8.22-2.38
	c16.31-4.19,26.49-14.41,30.44-30.81c1.23-5.11,2.52-10.2,4.01-16.25c0.96,4.08,1.57,7.34,2.5,10.51
	c1.49,5.05,2.93,10.13,4.86,15.02c3.88,9.83,11.39,15.97,21.15,19.45C339.46,418.1,344.92,419.67,350.21,421.37z"/>
<path d="M276.53,679.91c-13.27-2.79-26.53-5.58-40.18-8.45c2.75,13.58,5.44,26.9,8.13,40.22c-0.09,0.04-0.19,0.07-0.28,0.11
	c-6.09-12.13-12.18-24.25-18.44-36.69c-8.99,10.72-17.79,21.21-26.58,31.69c-0.06-0.04-0.12-0.07-0.18-0.11
	c5.72-12.41,11.44-24.81,17.32-37.55c-13.88-0.34-27.48-0.67-41.07-1.01c-0.02-0.1-0.03-0.2-0.05-0.3
	c13.19-3.24,26.37-6.49,39.91-9.82c-8.37-11.04-16.56-21.85-24.75-32.67c0.08-0.07,0.15-0.14,0.23-0.21
	c10.74,8.25,21.46,16.51,32.47,25c3.44-13.51,6.79-26.66,10.13-39.81c0.1,0,0.2,0.01,0.3,0.01c0.23,13.58,0.46,27.16,0.69,41.07
	c12.53-5.66,24.82-11.2,37.11-16.75c0.07,0.1,0.14,0.2,0.21,0.3c-10.38,8.57-20.76,17.14-31.43,25.95
	c12.37,6.34,24.46,12.53,36.55,18.73C276.59,679.72,276.56,679.81,276.53,679.91z"/>
</svg>
