<?xml version="1.0" encoding="utf-8"?>
<!-- Generator: Adobe Illustrator 26.3.1, SVG Export Plug-In . SVG Version: 6.00 Build 0)  -->
<svg version="1.1" id="Layer_1" xmlns="http://www.w3.org/2000/svg" xmlns:xlink="http://www.w3.org/1999/xlink" x="0px" y="0px"
	 viewBox="0 0 864 687.69" style="enable-background:new 0 0 864 687.69;" xml:space="preserve">
<path d="M102.27,285.08l248.97,48.68l-1.54,7.92l-249-48.53L102.27,285.08z M318.04,100.41L166.59,63.03l-2,8.13l151.53,37.06
	L318.04,100.41z M399.63,144.31l55.64,57.23l7.17-7.3l-56.95-55.86L399.63,144.31z M641.51,413.82l-51.64-55.05l-5.86,5.5
	l51.54,55.15L641.51,413.82z M633.98,459.89l-28.15,64.48l7.3,3.2l28.45-64.35L633.98,459.89z M680.9,429.09l0.48,7.74l47.56-2.54
	l-0.52-8.44L680.9,429.09z M531.47,293.62l20.31,35.09l6.93-4.02l-20.3-35.09L531.47,293.62z M517.08,371.97l4.61,6.44l28.98-20.6
	l-4.69-6.54L517.08,371.97z M617.48,570.08l25.44,24.68l6.71-6.79l-24.78-25.17L617.48,570.08z M779.46,459.31l-7.28,5.72
	l22.69,30.04l7.28-5.72L779.46,459.31z"/>
<path d="M443.86,136.37c-22.39-2.05-44.78-4.1-67.79-6.21c7.21,22.06,14.26,43.63,21.31,65.2c-0.15,0.08-0.3,0.15-0.45,0.23
	c-12.44-18.92-24.89-37.83-37.69-57.29c-12.72,19.33-25.2,38.29-37.67,57.25c-0.15-0.07-0.31-0.13-0.46-0.2
	c7.04-21.54,14.08-43.09,21.31-65.2c-23.28,2.13-46.04,4.22-68.79,6.3c-0.03-0.12-0.06-0.23-0.09-0.35
	c21.38-7.98,42.76-15.96,64.71-24.15c-16.06-16.74-31.78-33.12-47.51-49.51c0.1-0.14,0.2-0.28,0.29-0.42
	c19.45,11.67,38.9,23.33,58.87,35.31c3.07-22.93,6.08-45.39,9.08-67.85c0.17,0.01,0.35,0.02,0.52,0.02
	c3,22.46,5.99,44.87,9.07,67.88c19.97-11.97,39.41-23.63,58.84-35.28c0.12,0.12,0.23,0.25,0.35,0.37
	c-15.7,16.37-31.41,32.73-47.5,49.5c21.51,8.04,42.61,15.92,63.71,23.8C443.93,135.97,443.9,136.17,443.86,136.37z"/>
<path d="M483.53,368.61c-22.39-2.05-44.78-4.1-67.79-6.21c7.21,22.06,14.26,43.63,21.31,65.2c-0.15,0.08-0.3,0.15-0.45,0.23
	c-12.44-18.92-24.89-37.83-37.69-57.29c-12.72,19.33-25.2,38.29-37.67,57.25c-0.15-0.07-0.31-0.13-0.46-0.2
	c7.04-21.54,14.08-43.09,21.31-65.2c-23.28,2.13-46.04,4.22-68.79,6.3c-0.03-0.12-0.06-0.23-0.09-0.35
	c21.38-7.98,42.76-15.96,64.71-24.15c-16.06-16.74-31.78-33.12-47.51-49.51c0.1-0.14,0.2-0.28,0.29-0.42
	c19.45,11.67,38.9,23.33,58.87,35.31c3.07-22.93,6.08-45.39,9.08-67.85c0.17,0.01,0.35,0.02,0.52,0.02
	c3,22.46,5.99,44.86,9.07,67.88c19.97-11.97,39.41-23.63,58.84-35.28c0.12,0.12,0.23,0.25,0.35,0.37
	c-15.7,16.37-31.41,32.73-47.5,49.5c21.51,8.04,42.61,15.92,63.71,23.8C483.6,368.21,483.57,368.41,483.53,368.61z"/>
<path d="M774.98,437.41c6.95,9.34,13.74,18.46,20.54,27.59c-0.06,0.06-0.12,0.12-0.18,0.18c-8.93-7.01-17.87-14.01-27.06-21.22
	c-2.96,11.22-5.87,22.22-8.77,33.23c-0.08-0.01-0.17-0.01-0.25-0.02c-0.09-11.36-0.18-22.73-0.28-34.39
	c-10.72,4.73-21.21,9.35-31.69,13.97c-0.03-0.05-0.07-0.1-0.1-0.15c8.89-7.2,17.78-14.41,26.9-21.81
	c-10.3-5.39-20.39-10.67-30.48-15.95c0.02-0.08,0.05-0.16,0.07-0.24c11.11,2.44,22.21,4.88,33.62,7.39
	c-2.2-11.39-4.36-22.55-6.51-33.7c0.08-0.02,0.17-0.05,0.25-0.07c5.01,10.18,10.01,20.35,15.14,30.8
	c7.58-8.88,14.96-17.52,22.34-26.16c0.07,0.04,0.15,0.08,0.22,0.12c-4.85,10.29-9.7,20.57-14.68,31.11
	c11.51,0.39,22.79,0.77,34.08,1.15c0.02,0.1,0.03,0.2,0.05,0.3C797.22,432.14,786.25,434.74,774.98,437.41z"/>
<path d="M146.96,59.55c6.95,9.34,13.74,18.46,20.54,27.59c-0.06,0.06-0.12,0.12-0.18,0.18c-8.93-7.01-17.87-14.01-27.06-21.22
	c-2.96,11.22-5.87,22.22-8.77,33.23c-0.08-0.01-0.17-0.01-0.25-0.02c-0.09-11.36-0.18-22.73-0.28-34.39
	c-10.72,4.73-21.21,9.35-31.69,13.97c-0.03-0.05-0.07-0.1-0.1-0.15c8.89-7.2,17.78-14.41,26.9-21.81
	c-10.3-5.39-20.39-10.67-30.48-15.95c0.02-0.08,0.05-0.16,0.07-0.24c11.11,2.44,22.21,4.88,33.62,7.39
	c-2.2-11.39-4.36-22.55-6.51-33.7c0.08-0.02,0.17-0.05,0.25-0.07c5,10.18,10,20.35,15.14,30.8c7.58-8.88,14.96-17.52,22.34-26.16
	c0.07,0.04,0.15,0.08,0.22,0.12c-4.85,10.29-9.7,20.57-14.68,31.11c11.51,0.39,22.8,0.77,34.08,1.15c0.02,0.1,0.03,0.2,0.05,0.3
	C169.2,54.28,158.23,56.88,146.96,59.55z"/>
<path d="M492.71,224.92c6.95,9.34,13.74,18.46,20.54,27.59c-0.06,0.06-0.12,0.12-0.18,0.18c-8.93-7.01-17.87-14.01-27.06-21.22
	c-2.96,11.22-5.87,22.22-8.77,33.23c-0.08-0.01-0.17-0.01-0.25-0.02c-0.09-11.36-0.18-22.73-0.28-34.39
	c-10.72,4.73-21.21,9.35-31.69,13.97c-0.03-0.05-0.07-0.1-0.1-0.15c8.89-7.2,17.78-14.41,26.9-21.81
	c-10.3-5.39-20.39-10.67-30.48-15.95c0.02-0.08,0.05-0.16,0.07-0.24c11.11,2.44,22.21,4.88,33.62,7.39
	c-2.2-11.39-4.36-22.55-6.51-33.7c0.08-0.02,0.17-0.05,0.25-0.07c5.01,10.17,10.01,20.35,15.14,30.8
	c7.58-8.88,14.96-17.52,22.34-26.16c0.07,0.04,0.15,0.08,0.22,0.12c-4.85,10.29-9.7,20.57-14.68,31.11
	c11.51,0.39,22.8,0.77,34.08,1.15c0.02,0.1,0.03,0.2,0.05,0.3C514.95,219.65,503.98,222.25,492.71,224.92z"/>
<path d="M721.21,616.34c-6.94,2.5-13.97,4.67-20.72,7.53c-8.77,3.72-14.66,10.52-17.78,19.43c-2.24,6.4-3.79,13.03-5.62,19.57
	c-0.35,1.24-0.58,2.51-1.43,3.7c-1.04-4.38-1.98-8.8-3.15-13.15c-2.96-10.94-6.74-21.62-17.4-27.42
	c-6.01-3.26-12.73-5.22-19.16-7.67c-1.76-0.67-3.64-1.01-6.2-1.7c1.39-0.49,2.13-0.79,2.89-1.01c2.78-0.82,5.54-1.7,8.34-2.42
	c16.56-4.25,26.89-14.62,30.9-31.27c1.25-5.18,2.55-10.35,4.07-16.49c0.97,4.14,1.59,7.45,2.54,10.67
	c1.51,5.12,2.97,10.29,4.93,15.24c3.94,9.98,11.56,16.21,21.46,19.74C710.3,613.02,715.84,614.63,721.21,616.34z"/>
<path d="M102.89,273.84c-6.94,2.5-13.98,4.67-20.72,7.53c-8.77,3.72-14.66,10.52-17.78,19.43c-2.24,6.4-3.79,13.03-5.62,19.57
	c-0.35,1.24-0.58,2.51-1.43,3.7c-1.04-4.38-1.98-8.8-3.15-13.15c-2.96-10.94-6.74-21.62-17.4-27.42
	c-6.01-3.26-12.73-5.22-19.16-7.67c-1.76-0.67-3.64-1.01-6.2-1.7c1.39-0.49,2.13-0.79,2.89-1.01c2.78-0.82,5.54-1.7,8.34-2.42
	c16.56-4.25,26.89-14.62,30.9-31.27c1.25-5.18,2.55-10.35,4.07-16.49c0.97,4.14,1.59,7.45,2.54,10.67
	c1.51,5.12,2.97,10.29,4.93,15.24c3.94,9.98,11.56,16.21,21.46,19.74C91.98,270.52,97.52,272.13,102.89,273.84z"/>
<path d="M603.4,341.06c-4.07,1.48-8.2,2.76-12.15,4.43c-5.14,2.18-8.6,6.17-10.43,11.4c-1.31,3.75-2.22,7.65-3.3,11.48
	c-0.2,0.73-0.34,1.47-0.84,2.17c-0.61-2.57-1.16-5.16-1.85-7.71c-1.73-6.42-3.95-12.69-10.21-16.09c-3.52-1.91-7.47-3.06-11.24-4.5
	c-1.03-0.39-2.13-0.59-3.64-1c0.81-0.29,1.25-0.46,1.69-0.59c1.63-0.48,3.25-1,4.9-1.42c9.72-2.49,15.78-8.58,18.13-18.35
	c0.73-3.04,1.5-6.07,2.39-9.68c0.57,2.43,0.93,4.37,1.49,6.26c0.89,3.01,1.74,6.04,2.89,8.94c2.31,5.85,6.78,9.51,12.59,11.58
	C597,339.11,600.25,340.06,603.4,341.06z"/>
<path d="M546.51,268.81c-4.06,1.48-8.19,2.76-12.15,4.43c-5.14,2.18-8.6,6.17-10.43,11.4c-1.31,3.75-2.22,7.65-3.3,11.48
	c-0.2,0.73-0.34,1.47-0.84,2.17c-0.61-2.57-1.16-5.16-1.85-7.71c-1.73-6.42-3.95-12.69-10.21-16.09c-3.52-1.91-7.47-3.06-11.24-4.5
	c-1.03-0.39-2.13-0.59-3.64-1c0.81-0.29,1.25-0.46,1.69-0.59c1.63-0.48,3.25-1,4.9-1.42c9.72-2.49,15.78-8.58,18.13-18.35
	c0.73-3.04,1.5-6.07,2.39-9.68c0.57,2.43,0.93,4.37,1.49,6.26c0.89,3.01,1.74,6.04,2.89,8.94c2.31,5.85,6.78,9.51,12.59,11.58
	C540.11,266.86,543.36,267.81,546.51,268.81z"/>
<path d="M677.35,435.04c-4.06,1.48-8.19,2.75-12.15,4.43c-5.14,2.18-8.6,6.17-10.43,11.4c-1.31,3.75-2.22,7.65-3.3,11.48
	c-0.2,0.73-0.34,1.47-0.84,2.17c-0.61-2.57-1.16-5.16-1.85-7.71c-1.73-6.42-3.95-12.69-10.21-16.09c-3.52-1.91-7.47-3.06-11.24-4.5
	c-1.03-0.39-2.13-0.59-3.64-1c0.81-0.29,1.25-0.46,1.69-0.59c1.63-0.48,3.25-1,4.9-1.42c9.72-2.49,15.78-8.58,18.13-18.35
	c0.73-3.04,1.5-6.07,2.39-9.68c0.57,2.43,0.93,4.37,1.49,6.26c0.89,3.01,1.74,6.04,2.89,8.94c2.31,5.85,6.78,9.51,12.59,11.58
	C670.95,433.09,674.2,434.04,677.35,435.04z"/>
<path d="M585.65,549.06c6.95,9.34,13.74,18.46,20.54,27.59c-0.06,0.06-0.12,0.12-0.18,0.18c-8.93-7.01-17.87-14.01-27.06-21.22
	c-2.96,11.22-5.87,22.22-8.77,33.23c-0.08-0.01-0.17-0.01-0.25-0.02c-0.09-11.36-0.18-22.73-0.28-34.39
	c-10.72,4.73-21.21,9.35-31.69,13.97c-0.03-0.05-0.07-0.1-0.1-0.15c8.89-7.2,17.78-14.41,26.9-21.81
	c-10.3-5.39-20.39-10.67-30.48-15.95c0.02-0.08,0.05-0.16,0.07-0.24c11.11,2.44,22.21,4.88,33.62,7.39
	c-2.2-11.39-4.36-22.55-6.51-33.7c0.08-0.02,0.17-0.05,0.25-0.07c5.01,10.18,10,20.36,15.14,30.8c7.58-8.88,14.96-17.52,22.34-26.16
	c0.07,0.04,0.15,0.08,0.22,0.12c-4.85,10.29-9.7,20.57-14.68,31.11c11.51,0.39,22.79,0.77,34.08,1.15c0.02,0.1,0.03,0.2,0.05,0.3
	C607.89,543.79,596.92,546.39,585.65,549.06z"/>
<path d="M95.52,486.22c0.79,17.96,1.18,33.88,1.18,47.75c0,20.01-0.2,32.38-0.59,37.11c-0.24,3.15-2.28,4.73-6.15,4.73
	c-8.9-0.08-14.69-3.94-17.37-11.58c-0.95-2.84-1.42-10.44-1.42-22.81c0-12.29,1.5-30.02,4.49-53.18c-7.49-0.47-12.1-1.08-13.83-1.83
	c-1.73-0.75-2.6-1.75-2.6-3.01c0-1.18,1.81-2.28,5.44-3.31c3.62-1.02,7.8-1.77,12.53-2.24c7.17-0.71,13.51-1.06,19.03-1.06
	c4.73,0,9.73,0.32,15.01,0.95c6.22,0.87,9.34,2.41,9.34,4.61c0,1.34-1.05,2.23-3.13,2.66C115.35,485.41,108.04,485.82,95.52,486.22z
	 M504.31,534.32c0,1.03-2.58,2.17-7.74,3.43s-10.34,2.92-15.54,4.96c-5.2,2.05-10.68,5.04-16.43,8.98
	c4.57,5.91,8.04,10.58,10.4,14.01s3.92,6.54,4.67,9.34c0.75,2.8,1.12,5.26,1.12,7.39c0,5.12-2.09,8.86-6.26,11.23
	c-4.18,2.36-9.65,3.54-16.43,3.54c-5.28,0-9.81-0.39-13.59-1.18c-3.39-0.71-7.39-2.48-11.99-5.32c-4.61-2.84-6.92-6.38-6.92-10.64
	c0.16-10,5.83-18.63,17.02-25.88c-3.85-4.4-7.01-8.32-9.54-11.79c-0.26,0.73-0.52,1.48-0.8,2.27c-3.03,8.55-5.6,14.38-7.68,17.49
	c-2.09,3.11-4.63,5.85-7.62,8.21c-3,2.36-6.66,3.54-10.99,3.54c-4.02,0-7.82-1.04-11.4-3.13c-3.59-2.09-6.8-7.03-9.63-14.83
	c-2.68,7.01-5.69,12.27-9.04,15.78s-8.02,5.3-14,5.38c-4.33,0-8.92-0.69-13.77-2.07c-4.4-1.25-7.35-4.5-8.86-9.75
	c-0.52,1.05-1.05,2.1-1.6,3.19c-7.25,14.89-14.46,22.34-21.63,22.34c-7.25,0-12.9-1.03-16.96-3.07c-4.06-2.05-6.93-5.14-8.63-9.28
	c-1.69-4.13-2.54-9.28-2.54-15.42c0-4.57,0.26-9.18,0.77-13.83c0.51-4.65,1.22-9.35,2.13-14.12c0.9-4.77,2.11-11.17,3.6-19.2
	l-10.87-0.24c-1.42,7.56-2.95,14.56-4.61,20.98c-1.65,6.42-3.47,12.53-5.44,18.32s-4.35,10.54-7.15,14.24
	c-2.8,3.71-6.68,5.56-11.64,5.56c-4.02,0-8.51-0.57-13.47-1.71s-8.29-3.54-9.99-7.21c-1.69-3.66-3.25-9.12-4.67-16.37
	c-3.78,7.56-7.31,13.28-10.58,17.14s-6.76,5.79-10.46,5.79c-5.44,0-10.99-1.46-16.67-4.37c-5.36-2.68-8.04-6.81-8.04-12.41
	c0-0.08,0.01-0.15,0.01-0.23c-1.62,2.61-3.24,4.82-4.86,6.61c-2.84,3.15-6.03,4.73-9.57,4.73c-6.78,0-11.9-2.48-15.36-7.45
	c-2.21-3.07-3.43-10.56-3.66-22.45c-6.38,11.34-12.61,17.02-18.67,17.02c-13.79,0-20.68-4.88-20.68-14.65
	c0-6.62,1.61-13.35,4.85-20.21c3.23-6.85,7.49-12.04,12.76-15.54c5.28-3.51,9.93-5.26,13.95-5.26c4.88,0,10.36,0.91,16.43,2.72
	c2.44,0.79,3.67,2.4,3.67,4.84c1.89,0.47,3.37,0.97,4.43,1.48s1.87,1.85,2.42,4.02c0.55,2.17,0.83,5.93,0.83,11.29
	c-0.08,5.44-0.34,11.88-0.77,19.32c-0.43,7.45-0.65,12.47-0.65,15.07c1.65-0.71,4.1-3.39,7.33-8.04c3.23-4.65,6.07-9.26,8.51-13.83
	c1.65-3.23,2.91-5.57,3.78-7.03s1.61-2.19,2.24-2.19c0.01,0,0.04,0,0.05,0c1.69-4.23,2.92-7.19,3.67-8.87
	c1.06-2.37,3.09-3.55,6.09-3.55c4.96,0,9.61,1.22,13.95,3.66c1.81,0.87,2.72,2.13,2.72,3.78c0,0.79-1.38,4.61-4.14,11.46
	c-2.68,6.46-4.02,14.38-4.02,23.75c3.94-3.15,7.03-6.2,9.28-9.16c2.25-2.96,6.32-9.63,12.23-20.03c0.79-1.34,1.38-2.86,1.77-4.55
	s0.89-2.72,1.48-3.07c0.59-0.35,1.2-0.53,1.83-0.53c0.95,0,2.28,0.14,4.02,0.41c1.73,0.28,3.52,0.71,5.38,1.3
	c1.85,0.59,3.13,2.42,3.84,5.49c1.42,5.52,2.99,12.92,4.73,22.22c1.02,5.52,2.2,9.18,3.55,10.99c4.88-4.73,9.14-11.64,12.76-20.74
	s6.03-16.84,7.21-23.22c-5.67-0.39-10.38-1.36-14.12-2.9c-3.74-1.54-6.28-3.29-7.62-5.26s-2.01-3.86-2.01-5.67
	c0.08-3.86,1.54-7.29,4.37-10.28c2.84-2.99,6.46-4.49,10.87-4.49c4.57,0.08,8.45,1.24,11.64,3.49c3.19,2.24,5.24,4.96,6.15,8.15
	c0.9,3.19,1.36,7.19,1.36,11.99l6.97-0.12c2.52,0,4.33,0.08,5.44,0.24c11.42,1.89,17.14,8.67,17.14,20.33
	c0,4.41-0.3,9.97-0.89,16.66c-0.59,6.7-0.89,11.82-0.89,15.36c0,5.99,0.51,10.16,1.54,12.53c5.36-2.91,10.64-8.35,15.84-16.31
	c3.07-4.69,5.62-8.73,7.69-12.13c0-0.59-0.01-1.2-0.01-1.81c0-8.04,1.04-16.45,3.13-25.23c2.09-8.79,3.5-13.87,4.25-15.25
	s1.52-2.26,2.31-2.66c0.79-0.39,1.73-0.59,2.84-0.59c2.84,0,7.72,1.03,14.65,3.07c1.18,0.31,1.77,1.38,1.77,3.19
	c0,1.42-0.63,5.77-1.89,13.06s-1.89,14.67-1.89,22.16c0,6.3,0.63,11.78,1.89,16.43c6.07-5.75,11.01-13.02,14.83-21.8
	c3.82-8.79,6.24-14.87,7.27-18.26c0.71-2.28,1.89-3.43,3.54-3.43c1.73,0,3.82,0.34,6.26,1.01s3.7,1.93,3.78,3.78
	c0.08,1.85,0.2,5.02,0.35,9.51c0.16,4.49,0.81,11.03,1.95,19.62c1.14,8.59,2.78,12.88,4.9,12.88c3.07,0,6.26-3.07,9.57-9.22
	c3.18-5.9,6.28-13.23,9.31-21.96c-1.23-3.03-1.87-5.88-1.87-8.53c0-6.3,1.16-11.41,3.49-15.31c2.32-3.9,4.96-6.66,7.92-8.27
	c2.96-1.61,5.85-2.46,8.69-2.54c6.38,0,14.02,1.54,22.93,4.61c1.58,0.55,3.13,1.64,4.67,3.25s2.3,3.49,2.3,5.61
	c0,2.68-1.3,4.02-3.9,4.02c-3.15,0-5.48-1.34-6.97-4.02c-1.5-2.68-3.47-4.02-5.91-4.02c-1.89,0-3.84,1.68-5.85,5.02
	c-2.01,3.35-3.05,7.94-3.13,13.77c0,2.6,1.02,5.64,3.07,9.1c2.05,3.47,4.37,6.97,6.97,10.52c9.14-5.12,16.7-8.7,22.69-10.75
	c6.3-2.13,10.75-3.19,13.35-3.19c1.57,0,3.52,0.41,5.85,1.24C503.15,532.6,504.31,533.45,504.31,534.32z M153.07,507.96
	c-5.67,0.71-10.46,3.59-14.36,8.63s-5.85,11.5-5.85,19.38C143.73,527.07,150.47,517.73,153.07,507.96z M275.75,502.88
	c0-6.46-2.09-9.69-6.26-9.69c-5.75,0-8.63,3.11-8.63,9.34c0,1.81,1.24,3.47,3.72,4.96c2.48,1.5,6.04,2.29,10.7,2.36
	C275.59,507.65,275.75,505.32,275.75,502.88z M454.09,576.27c0-3.07-1.46-7.17-4.37-12.29c-5.12,4.81-7.68,10.64-7.68,17.49
	c0,1.42,0.35,2.74,1.06,3.96c0.71,1.22,1.89,1.87,3.55,1.95c2.36,0,4.17-0.83,5.44-2.48C453.34,583.25,454.01,580.37,454.09,576.27z
	"/>
<path d="M522.92,389.28c-4.07,1.48-8.2,2.75-12.15,4.43c-5.14,2.18-8.6,6.17-10.43,11.4c-1.31,3.75-2.22,7.65-3.3,11.48
	c-0.2,0.73-0.34,1.47-0.84,2.17c-0.61-2.57-1.16-5.16-1.85-7.71c-1.73-6.42-3.95-12.69-10.21-16.09c-3.52-1.91-7.47-3.06-11.24-4.5
	c-1.03-0.39-2.13-0.59-3.64-1c0.81-0.29,1.25-0.46,1.69-0.59c1.63-0.48,3.25-1,4.9-1.42c9.72-2.49,15.78-8.58,18.13-18.35
	c0.73-3.04,1.5-6.07,2.39-9.68c0.57,2.43,0.93,4.37,1.49,6.26c0.89,3.01,1.74,6.04,2.89,8.94c2.31,5.85,6.78,9.51,12.59,11.58
	C516.52,387.33,519.77,388.28,522.92,389.28z"/>
<path d="M844.1,507.05c-4.06,1.48-8.19,2.75-12.15,4.43c-5.14,2.18-8.6,6.17-10.43,11.4c-1.31,3.75-2.22,7.65-3.3,11.48
	c-0.2,0.73-0.34,1.47-0.84,2.17c-0.61-2.57-1.16-5.16-1.85-7.71c-1.73-6.42-3.95-12.69-10.21-16.09c-3.52-1.91-7.47-3.06-11.24-4.5
	c-1.03-0.39-2.13-0.59-3.64-1c0.81-0.29,1.25-0.46,1.69-0.59c1.63-0.48,3.25-1,4.9-1.42c9.72-2.49,15.78-8.58,18.13-18.35
	c0.73-3.04,1.5-6.07,2.39-9.68c0.57,2.43,0.93,4.37,1.49,6.26c0.89,3.01,1.74,6.04,2.89,8.94c2.31,5.85,6.78,9.51,12.59,11.58
	C837.7,505.1,840.95,506.05,844.1,507.05z"/>
</svg>
