<?xml version="1.0" encoding="utf-8"?>
<!-- Generator: Adobe Illustrator 26.3.1, SVG Export Plug-In . SVG Version: 6.00 Build 0)  -->
<svg version="1.1" id="Layer_1" xmlns="http://www.w3.org/2000/svg" xmlns:xlink="http://www.w3.org/1999/xlink" x="0px" y="0px"
	 viewBox="0 0 864 651.57" style="enable-background:new 0 0 864 651.57;" xml:space="preserve">
<path d="M725.88,303.14l2.99,8.14l-175.58,64.26l-2.86-7.83L725.88,303.14z M55.68,315.57l108.49,118.5l6.03-5.51L62.05,309.44
	L55.68,315.57z M248.29,268.39l62.99,100.26l7.29-4.58l-63.32-100.79L248.29,268.39z M206.56,83.24l15.9,113.32l8.57-1.23
	L214.86,82.67L206.56,83.24z M794.45,148.22l-15.95,99.64l8.14,1.32l16.25-99.58L794.45,148.22z M110.09,528.32l5.96,5.85
	l52.47-53.06l-6.3-6.01L110.09,528.32z M407.64,398.44l1.3,8.27l71.24-11.11l-0.98-8.72L407.64,398.44z"/>
<path d="M226.08,57.47c-5.53,1.98-11.13,3.71-16.5,5.99c-6.98,2.96-11.68,8.38-14.16,15.47c-1.78,5.09-3.01,10.38-4.47,15.59
	c-0.28,0.98-0.46,2-1.14,2.95c-0.83-3.49-1.57-7.01-2.51-10.47c-2.35-8.71-5.37-17.22-13.86-21.84c-4.78-2.6-10.13-4.16-15.26-6.11
	c-1.4-0.53-2.9-0.8-4.94-1.35c1.1-0.39,1.69-0.63,2.3-0.81c2.21-0.66,4.41-1.35,6.64-1.92c13.19-3.39,21.41-11.65,24.61-24.9
	c0.99-4.13,2.03-8.24,3.24-13.13c0.77,3.3,1.27,5.93,2.02,8.49c1.2,4.08,2.37,8.19,3.93,12.14c3.13,7.94,9.2,12.91,17.09,15.72
	C217.39,54.83,221.8,56.11,226.08,57.47z"/>
<path d="M521.33,394.16c6.22,10.3,12.29,20.37,18.37,30.44c-0.07,0.06-0.13,0.11-0.2,0.17c-8.49-8.1-16.98-16.2-25.72-24.53
	c-4.17,11.25-8.25,22.28-12.34,33.31c-0.09-0.02-0.17-0.03-0.26-0.05c1.04-11.7,2.08-23.4,3.15-35.41
	c-11.51,3.79-22.75,7.5-34,11.21c-0.03-0.05-0.06-0.11-0.09-0.16c9.86-6.52,19.73-13.05,29.86-19.75
	c-10.06-6.58-19.91-13.01-29.77-19.45c0.03-0.08,0.07-0.16,0.1-0.24c11.18,3.62,22.37,7.24,33.85,10.96
	c-1.13-11.94-2.23-23.63-3.33-35.32c0.09-0.02,0.18-0.03,0.26-0.05c4.14,10.95,8.26,21.92,12.5,33.18
	c8.69-8.38,17.14-16.53,25.59-24.68c0.07,0.05,0.15,0.1,0.22,0.15c-6.02,10.1-12.04,20.19-18.21,30.54
	c11.8,1.55,23.38,3.06,34.95,4.58c0.01,0.11,0.01,0.21,0.02,0.32C544.73,390.96,533.19,392.54,521.33,394.16z"/>
<path d="M53.09,269.35c7.18,9.65,14.2,19.09,21.23,28.52c-0.06,0.06-0.12,0.12-0.18,0.19c-9.23-7.24-18.47-14.48-27.97-21.93
	c-3.06,11.6-6.06,22.97-9.07,34.34c-0.09-0.01-0.17-0.01-0.26-0.02c-0.09-11.75-0.19-23.49-0.29-35.55
	c-11.08,4.89-21.92,9.67-32.76,14.44c-0.03-0.05-0.07-0.1-0.1-0.15c9.19-7.45,18.37-14.89,27.81-22.54
	c-10.64-5.56-21.07-11.01-31.5-16.47c0.03-0.08,0.05-0.17,0.08-0.25c11.48,2.52,22.96,5.05,34.75,7.64
	c-2.27-11.77-4.5-23.3-6.73-34.83c0.09-0.02,0.17-0.05,0.26-0.07c5.16,10.5,10.33,21.02,15.63,31.82
	c7.84-9.18,15.46-18.11,23.09-27.04c0.08,0.04,0.15,0.08,0.23,0.12c-5.02,10.63-10.03,21.26-15.17,32.16
	c11.9,0.4,23.56,0.79,35.23,1.18c0.02,0.1,0.03,0.21,0.05,0.31C76.08,263.91,64.74,266.59,53.09,269.35z"/>
<path d="M249.76,231.82c9.22,7.73,18.23,15.28,27.25,22.84c-0.04,0.07-0.09,0.15-0.13,0.22c-10.66-4.91-21.32-9.82-32.28-14.86
	c-0.29,11.99-0.58,23.75-0.87,35.51c-0.09,0.01-0.17,0.03-0.26,0.04c-2.81-11.41-5.62-22.81-8.5-34.52
	c-9.65,7.32-19.09,14.48-28.53,21.63c-0.04-0.04-0.09-0.08-0.13-0.13c7.22-9.37,14.43-18.74,21.84-28.36
	c-11.65-2.96-23.06-5.85-34.47-8.75c0.01-0.09,0.01-0.18,0.02-0.26c11.75-0.2,23.51-0.4,35.57-0.61
	c-4.94-10.93-9.77-21.63-14.61-32.33c0.08-0.04,0.16-0.09,0.23-0.13c7.46,9.04,14.92,18.07,22.58,27.35
	c5.5-10.74,10.86-21.19,16.21-31.65c0.08,0.02,0.17,0.04,0.25,0.07c-2.42,11.5-4.84,23.01-7.32,34.79c11.67-2.36,23.11-4.68,34.55-7
	c0.04,0.1,0.08,0.2,0.12,0.29C270.87,221.2,260.46,226.43,249.76,231.82z"/>
<path d="M94.86,563.59c10.73,8.44,21.23,16.69,31.72,24.95c-0.05,0.09-0.1,0.17-0.14,0.26c-12.27-5.19-24.53-10.38-37.15-15.72
	c0.09,13.62,0.18,26.97,0.26,40.32c-0.1,0.02-0.19,0.04-0.29,0.05c-3.59-12.84-7.18-25.68-10.87-38.86
	c-10.69,8.65-21.15,17.1-31.61,25.55c-0.05-0.05-0.1-0.09-0.16-0.14c7.86-10.89,15.71-21.77,23.78-32.95
	c-13.32-2.94-26.37-5.83-39.41-8.71c0-0.1,0.01-0.2,0.01-0.3c13.33-0.64,26.66-1.29,40.34-1.95c-5.99-12.23-11.85-24.2-17.71-36.17
	c0.09-0.05,0.17-0.11,0.26-0.16c8.79,9.99,17.57,19.97,26.59,30.23c5.86-12.38,11.57-24.43,17.27-36.48
	c0.1,0.02,0.19,0.04,0.29,0.07c-2.34,13.14-4.68,26.27-7.08,39.74c13.15-3.09,26.05-6.13,38.95-9.16c0.05,0.11,0.1,0.22,0.15,0.33
	C118.43,550.8,106.81,557.11,94.86,563.59z"/>
<path d="M428.96,450.85c-23.11-3.71-46.22-7.42-69.98-11.23c5.87,23.19,11.62,45.94,17.38,68.68c-0.16,0.07-0.32,0.14-0.48,0.21
	c-11.52-20.4-23.03-40.8-34.85-61.74c-14.62,19.24-28.91,38.05-43.2,56.86c-0.11-0.06-0.22-0.12-0.33-0.17
	c8.83-21.87,17.66-43.74,26.73-66.2c-23.97,0.57-47.43,1.13-70.9,1.69c-0.04-0.17-0.07-0.34-0.11-0.51
	c22.47-6.69,44.93-13.39,68.01-20.26c-15.35-18.34-30.38-36.31-45.4-54.27c0.13-0.13,0.25-0.25,0.38-0.38
	c19.18,13.37,38.35,26.72,58.05,40.43c4.8-23.59,9.48-46.54,14.15-69.49c0.18,0,0.35,0,0.53-0.01c1.52,23.39,3.05,46.79,4.61,70.76
	c21.14-10.8,41.87-21.39,62.6-31.98c0.13,0.17,0.26,0.33,0.39,0.5c-17.19,15.65-34.37,31.29-52.03,47.37
	c21.86,9.9,43.23,19.57,64.59,29.24C429.05,450.52,429.01,450.68,428.96,450.85z"/>
<path d="M229.46,458.89c-6.03,2.17-12.15,4.06-18.03,6.55c-7.63,3.24-12.76,9.16-15.48,16.91c-1.95,5.57-3.3,11.35-4.89,17.04
	c-0.3,1.08-0.5,2.18-1.25,3.22c-0.91-3.82-1.72-7.66-2.74-11.44c-2.57-9.52-5.87-18.83-15.15-23.87
	c-5.23-2.84-11.08-4.54-16.68-6.68c-1.53-0.58-3.17-0.88-5.4-1.48c1.21-0.43,1.85-0.68,2.51-0.88c2.42-0.72,4.82-1.48,7.26-2.1
	c14.42-3.7,23.41-12.73,26.9-27.22c1.09-4.51,2.22-9.01,3.54-14.36c0.85,3.6,1.39,6.49,2.21,9.29c1.31,4.46,2.59,8.95,4.29,13.27
	c3.43,8.68,10.06,14.11,18.69,17.18C219.96,456,224.78,457.4,229.46,458.89z"/>
<path d="M850.21,125.25c-5.2,1.88-10.47,3.5-15.51,5.64c-6.56,2.78-10.97,7.87-13.3,14.54c-1.67,4.79-2.83,9.75-4.2,14.64
	c-0.26,0.93-0.43,1.87-1.07,2.77c-0.78-3.28-1.48-6.58-2.36-9.84c-2.21-8.19-5.04-16.18-13.02-20.52
	c-4.49-2.44-9.52-3.91-14.34-5.74c-1.31-0.5-2.72-0.76-4.64-1.27c1.04-0.37,1.59-0.59,2.16-0.76c2.08-0.62,4.14-1.27,6.24-1.81
	c12.39-3.18,20.12-10.94,23.12-23.4c0.93-3.88,1.91-7.74,3.05-12.34c0.73,3.1,1.19,5.58,1.9,7.98c1.13,3.83,2.22,7.7,3.69,11.41
	c2.94,7.46,8.65,12.13,16.06,14.77C842.05,122.77,846.19,123.97,850.21,125.25z"/>
<path d="M781.66,294.11c7.18,9.65,14.2,19.09,21.23,28.52c-0.06,0.06-0.12,0.12-0.18,0.19c-9.23-7.24-18.47-14.48-27.97-21.93
	c-3.06,11.6-6.06,22.97-9.07,34.34c-0.09-0.01-0.17-0.01-0.26-0.02c-0.09-11.75-0.19-23.49-0.29-35.55
	c-11.08,4.89-21.92,9.67-32.76,14.44c-0.03-0.05-0.07-0.1-0.1-0.15c9.19-7.45,18.37-14.89,27.81-22.54
	c-10.65-5.57-21.08-11.03-31.51-16.49c0.03-0.08,0.05-0.17,0.08-0.25c11.48,2.52,22.96,5.05,34.75,7.64
	c-2.27-11.77-4.5-23.3-6.73-34.83c0.09-0.02,0.17-0.05,0.26-0.07c5.17,10.52,10.33,21.04,15.64,31.84
	c7.84-9.18,15.46-18.11,23.09-27.04c0.08,0.04,0.15,0.08,0.23,0.12c-5.02,10.63-10.03,21.26-15.17,32.16
	c11.9,0.4,23.56,0.79,35.23,1.18c0.02,0.1,0.03,0.21,0.05,0.31C804.65,288.67,793.31,291.35,781.66,294.11z"/>
<path d="M462.17,527.21c0,1.42-1.49,7.46-4.47,18.14c-9.04,33.45-13.78,52.33-14.23,56.64c-0.45,3.96-2.8,5.94-7.05,5.94
	c-3.62,0-8.09-1.06-13.42-3.18c-6.6-2.69-10.62-7.67-12.07-14.96c-0.54-2.4-1.65-6.91-3.32-13.52c-1.67-6.61-3.25-16.19-4.75-28.75
	c-1.49-12.55-2.24-19.92-2.24-22.11c0-4.31,0.43-6.7,1.29-7.16c0.86-0.46,2.01-0.69,3.46-0.69c1.53,0,4.31,0.36,8.34,1.06
	c4.02,0.71,6.35,1.84,6.98,3.4c6.05,16.33,10.08,33.24,12.07,50.7c7.23-17.18,13.1-32.24,17.62-45.18c0.99-2.76,2.03-4.14,3.12-4.14
	c0.63,0,2.24,0.44,4.81,1.32C460.88,525.61,462.17,526.44,462.17,527.21z M477.62,536.87c4.15,2.12,7.91,3.18,11.25,3.18
	c2.53,0,4.47-0.48,5.83-1.43c1.35-0.96,2.12-2.6,2.31-4.93c0.18-2.34,0.27-3.64,0.27-3.93c0-3.75-1.58-6.26-4.74-7.53
	s-7.1-1.91-11.79-1.91c-1,0-1.88,0.16-2.64,0.48c-0.77,0.32-1.67,1.75-2.71,4.3c-1.04,2.55-1.56,4.84-1.56,6.89
	C473.83,534.04,475.09,535.67,477.62,536.87z M792.8,557.66c0,1.13-2.49,2.74-7.46,4.83c-4.97,2.09-13.47,3.76-25.48,5.04
	c-2.44,6.86-5.34,12.09-8.68,15.7c-3.34,3.6-7.61,6.33-12.81,8.17c-5.2,1.84-10.51,2.76-15.93,2.76c-8.59,0-15.45-0.62-20.6-1.86
	c-5.15-1.24-9.11-3.36-11.86-6.36c-2.76-3-4.14-6.88-4.14-11.62c0-1.38,0.13-2.71,0.4-4c-2.77,1.43-5.88,3-9.34,4.74
	c0.99,4.88,1.49,9.47,1.49,13.79c0,3.4-0.52,7.55-1.56,12.46c-1.04,4.92-4.56,8.96-10.57,12.15c-6.02,3.18-12.59,4.77-19.73,4.77
	c-4.34,0-8.95-0.69-13.83-2.07s-8.09-3.41-9.63-6.1s-2.3-4.84-2.3-6.47c0-2.4,1.13-5.06,3.39-7.95c2.26-2.9,5.51-5.71,9.76-8.43
	s10.85-6.63,19.79-11.72c0.27-3.32,0.45-7.25,0.54-11.77c-10.48,10.81-20.33,16.23-29.55,16.23c-3.64-0.06-6.9-0.38-9.81-0.91
	c-0.54,1.52-1.15,3.23-1.85,5.16c-5.69,15.77-12.83,26.72-21.42,32.88c-4.61,3.33-9.17,5.02-13.69,5.09
	c-10.12,0-17.87-1.13-23.25-3.4c-5.38-2.26-8.67-5.46-9.89-9.6c-1.22-4.13-1.83-8.08-1.83-11.82c0-5.37,0.84-11.53,2.51-18.46
	s3.46-14.85,5.35-23.76l-8-1.7c-4.07,9.62-8.02,17.94-11.86,24.98c-3.84,7.04-8.72,13.24-14.64,18.61
	c-5.92,5.37-12.22,8.06-18.91,8.06c-9.85-0.07-18.03-1.86-24.54-5.36s-9.76-8.93-9.76-16.28c0.09-4.59,0.7-10.07,1.83-16.44
	c1.13-6.36,2.73-11.81,4.81-16.34c0.9-2.12,2.62-3.18,5.15-3.18c2.17,0,6.82,0.96,13.96,2.86c2.35,0.64,3.52,2.55,3.52,5.73
	c0,3.75-0.34,7.74-1.02,11.98s-1.02,8.88-1.02,13.89c0,4.74,0.86,9.19,2.58,13.37c5.33-1.2,10.6-3.93,15.79-8.17
	c5.2-4.24,9.71-9.45,13.56-15.64c3.84-6.19,7.16-12.56,9.96-19.14c-12.11-2.26-18.16-6.29-18.16-12.09c0-3.82,1.47-6.68,4.41-8.59
	c2.93-1.91,5.99-2.86,9.15-2.86c4.43,0,8.47,0.96,12.13,2.86c3.66,1.91,5.49,4.67,5.49,8.27c0,2.48-0.36,5.06-1.08,7.74
	c6.69,1.13,12.38,2.41,17.08,3.82c5.96,1.7,9.26,6.44,9.9,14.21c0.18,2.83,0.27,5.66,0.27,8.48c0,2.05-0.11,4.83-0.34,8.32
	c-0.23,3.5-0.34,6.99-0.34,10.45c0,4.39,0.41,9.79,1.22,16.23c4.25-0.63,8.56-3.02,12.95-7.16c4.38-4.14,8.18-9.23,11.39-15.27
	c2.91-5.5,5.08-9.91,6.5-13.28c-2.1-2.38-3.18-5.59-3.18-9.68c0.09-4.53,2.03-9.3,5.83-14.32s8.81-8.98,15.05-11.88
	c5.87-2.83,11.75-4.24,17.62-4.24c5.6,0,10.71,0.64,15.32,1.91c7.04,1.98,10.57,3.68,10.57,5.09c0,1.91-2.13,2.86-6.37,2.86
	c-2.99,0-6.71,0.73-11.19,2.17c-4.47,1.45-8.29,4.22-11.46,8.32c-3.16,4.1-5.01,8.52-5.55,13.26c10.03-4.46,18.21-10.82,24.53-19.09
	c0.63-0.78,1.63-1.17,2.99-1.17c1.08,0,2.71,0.23,4.88,0.69s4.02,0.97,5.55,1.54c3.07,1.13,5.78,7.14,8.13,18.03
	c5.43-2.26,9.88-4.21,13.35-5.83c1.54-0.72,2.86-1.27,4-1.67c1.28-1.1,2.71-2.14,4.33-3.1c-2.35-3.04-3.53-6.47-3.53-10.29
	c0-2.19,0.77-4.81,2.31-7.85c1.53-3.04,4.18-5.76,7.93-8.17c3.75-2.4,8.88-3.61,15.38-3.61c6.33,0,12.09,0.64,17.28,1.91
	s9.92,3.98,14.17,8.11c4.25,4.14,6.93,8.05,8.07,11.72c1.13,3.68,1.78,7.1,1.96,10.29c5.6-0.92,10.19-2.08,13.76-3.5
	c3.57-1.41,5.76-2.12,6.58-2.12c2.98,0,5.67,0.44,8.06,1.33C791.61,555.1,792.8,556.24,792.8,557.66z M536.19,540.69
	c0-3.18-1.04-5.69-3.12-7.53c-3.8,2.62-5.69,5.02-5.69,7.21c0,2.48,2.35,4.67,7.05,6.58C535.6,544.89,536.19,542.81,536.19,540.69z
	 M651.15,587.67c-7.23,3.39-11.48,7.04-12.75,10.92c-0.63,1.84-0.95,3.54-0.95,5.09c0,1.63,0.36,3.11,1.08,4.46
	c4.52-1.7,7.73-4.12,9.62-7.27C650.06,597.73,651.06,593.33,651.15,587.67z M735.19,566.35l-3.39,0.11
	c-5.88,0-11.39-1.06-16.54-3.18c-1.08,4.18-1.62,7.67-1.62,10.5c0,1.06,0.15,2.63,0.47,4.72c0.32,2.09,1.87,3.76,4.68,5.04
	C727.1,581.63,732.57,575.9,735.19,566.35z M737.63,553.73c0-2.76-0.56-5.87-1.69-9.33s-3.87-6.43-8.2-8.91
	c-2.89,0.42-5.11,1.52-6.64,3.29c-1.99,2.26-2.99,4.98-2.99,8.17c0,1.84,0.77,3.99,2.31,6.47s3.64,4.12,6.3,4.93
	c2.67,0.81,6.12,1.26,10.37,1.33C737.45,557.62,737.63,555.64,737.63,553.73z"/>
</svg>
